/* XPM */
static char *result[] = {
/* columns rows colors chars-per-pixel */
"64 64 18 1 ",
"  c black",
". c #040404",
"X c #1E1E1E",
"o c #3F3013",
"O c gray21",
"+ c #422200",
"@ c #5D4717",
"# c #7C5500",
"$ c #4D4C4B",
"% c #7D7B76",
"& c #84482A",
"* c #D97F40",
"= c #C6A900",
"- c #F6A954",
"; c #A29E96",
": c #BEBBB5",
"> c gray91",
", c None",
/* pixels */
",,,,,,,,,,,,,,,,,,,,,,,,,,,,             ,,,,,,,,,,,,,,,,,,,,,,,",
",,,,,,,,,,,,,,,,,,,,,,,,,,,,             ,,,,,,,,,,,,,,,,,,,,,,,",
",,,,,,,,,,,,,,,,,,,,,,,,,,,,             ,,,,,,,,,,,,,,,,,,,,,,,",
",,,,,,,,,,,,,,,,,,,,,,,,,   ==========###   ,,,,,,,,,,,,,,,,,,,,",
",,,,,,,,,,,,,,,,,,,,,,,,,   ==========###   ,,,,,,,,,,,,,,,,,,,,",
",,,,,,,,,,,,,,,,,,,,,,,,,   ==========###   ,,,,,,,,,,,,,,,,,,,,",
",,,,,,,,,,,,,,,,,,,,,,   ###=============###   ,,,,,,,,,,,,,,,,,",
",,,,,,,,,,,,,,,,,,,,,,   ###=============###   ,,,,,,,,,,,,,,,,,",
",,,,,,,,,,,,,,,,,,,,,,   ###=============###   ,,,,,,,,,,,,,,,,,",
",,,,,,,,,,,,,,,,,,,,,,   ###=============###   ,,,,,,,,,,,,,,,,,",
",,,,,,,,,,,,,,,,,,,,,,   #############+++++++++    ,,,,,,,,,,,,,",
",,,,,,,,,,,,,,,,,,,,,,   #############+++++++++    ,,,,,,,,,,,,,",
",,,,,,,,,,,,,,,,,,,,,,   #############+++++++++    ,,,,,,,,,,,,,",
",,,,,,,,,,,,,,,,,,,,,,   +++#######++++++++++++    ,,,,,,,,,,,,,",
",,,,,,,,,,,,,,,,,,,,,,   +++#######++++++++++++    ,,,,,,,,,,,,,",
",,,,,,,,,,,,,,,,,,,,,,   +++#######++++++++++++    ,,,,,,,,,,,,,",
",,,,,,,,,,,,,,,,,,,      XXXXXXX+++XXXXXX          ,,,,,,,,,,,,,",
",,,,,,,,,,,,,,,,,,,      XXXXXXX+++XXXXXX          ,,,,,,,,,,,,,",
",,,,,,,,,,,,,,,,,,,      XXXXXXX+++XXXXXX          ,,,,,,,,,,,,,",
",,,,,,,,,,,,,,,,   OOO$$$%%%%%%%$$$OOOOOOXXX   ,,,,,,,,,,,,,,,,,",
",,,,,,,,,,,,,,,,   OOO$$$%%%%%%%$$$OOOOOOXXX   ,,,,,,,,,,,,,,,,,",
",,,,,,,,,,,,,,,,   OOO$$$%%%%%%%$$$OOOOOOXXX   ,,,,,,,,,,,,,,,,,",
",,,,,,,,,,,,,   OOO$$$;;;;;;$$$$$$$$$$OOOXXXXXX    ,,,,,,,,,,,,,",
",,,,,,,,,,,,,   OOO$$$;;;;;;$$$$$$$$$$OOOXXXXXX    ,,,,,,,,,,,,,",
",,,,,,,,,,,,,   OOO$$$;;;;;;$$$$$$$$$$OOOXXXXXX    ,,,,,,,,,,,,,",
",,,,,,,,,,,,,   OOO$$$;;;;;;$$$$$$$$$$OOOXXXXXX    ,,,,,,,,,,,,,",
",,,,,,,,,,,,,   ;;;:::%%%$$$$$$$OOO%%%%%%$$$$$$    ,,,,,,,,,,,,,",
",,,,,,,,,,,,,   ;;;:::%%%$$$$$$$OOO%%%%%%$$$$$$    ,,,,,,,,,,,,,",
",,,,,,,,,,,,,   ;;;:::%%%$$$$$$$OOO%%%%%%$$$$$$    ,,,,,,,,,,,,,",
",,,,,,,,,,,,,   :::::::::;;;;;;;;;;%%%$$$$$$OOO    ,,,,,,,,,,,,,",
",,,,,,,,,,,,,   :::::::::;;;;;;;;;;%%%$$$$$$OOO    ,,,,,,,,,,,,,",
",,,,,,,,,,,,,   :::::::::;;;;;;;;;;%%%$$$$$$OOO    ,,,,,,,,,,,,,",
",,,,,,,,,,,,,   OOO:::::::::;;;;;;;;;;XXXXXXXXX    ,,,,,,,,,,,,,",
",,,,,,,,,,,,,   OOO:::::::::;;;;;;;;;;XXXXXXXXX    ,,,,,,,,,,,,,",
",,,,,,,,,,,,,   OOO:::::::::;;;;;;;;;;XXXXXXXXX    ,,,,,,,,,,,,,",
",,,,,,,,,,,,,,,,   $$$$$$$$$OOOOXXXXXXXXXXXXXXX    ,,,,,,,,,,,,,",
",,,,,,,,,,,,,,,,   $$$$$$$$$OOOOXXXXXXXXXXXXXXX    ,,,,,,,,,,,,,",
",,,,,,,,,,,,,,,,   $$$$$$$$$OOOOXXXXXXXXXXXXXXX    ,,,,,,,,,,,,,",
",,,,,,,,,,,,,,,,   %%%...>>>$$$$OOOOOOXXXXXX   ,,,,,,,,,,,,,,,,,",
",,,,,,,,,,,,,,,,   %%%...>>>$$$$OOOOOOXXXXXX   ,,,,,,,,,,,,,,,,,",
",,,,,,,,,,,,,,,,   %%%...>>>$$$$OOOOOOXXXXXX   ,,,,,,,,,,,,,,,,,",
",,,,,,,,,,,,,,,,   %%%...>>>$$$$OOOOOOXXXXXX   ,,,,,,,,,,,,,,,,,",
",,,,,,,,,,,,,,,,   $$$---$$$OOOOOOOOOOOOO...,,,,,,,,,,,,,,,,,,,,",
",,,,,,,,,,,,,,,,   $$$---$$$OOOOOOOOOOOOO...,,,,,,,,,,,,,,,,,,,,",
",,,,,,,,,,,,,,,,   $$$---$$$OOOOOOOOOOOOO...,,,,,,,,,,,,,,,,,,,,",
",,,,,,,,,,,,,,,,   ...OOOOOO%%%%%%%$$$...&&&...,,,,,,,,,,,,,,,,,",
",,,,,,,,,,,,,,,,   ...OOOOOO%%%%%%%$$$...&&&...,,,,,,,,,,,,,,,,,",
",,,,,,,,,,,,,,,,   ...OOOOOO%%%%%%%$$$...&&&...,,,,,,,,,,,,,,,,,",
",,,,,,,,,,,,,,,,...------%%%%%%%%%%$$$...&&&...,,,,,,,,,,,,,,,,,",
",,,,,,,,,,,,,,,,...------%%%%%%%%%%$$$...&&&...,,,,,,,,,,,,,,,,,",
",,,,,,,,,,,,,,,,...------%%%%%%%%%%$$$...&&&...,,,,,,,,,,,,,,,,,",
",,,,,,,,,,,,,,,,...***---...$$$$$$$$$$......,,,,,,,,,,,,,,,,,,,,",
",,,,,,,,,,,,,,,,...***---...$$$$$$$$$$......,,,,,,,,,,,,,,,,,,,,",
",,,,,,,,,,,,,,,,...***---...$$$$$$$$$$......,,,,,,,,,,,,,,,,,,,,",
",,,,,,,,,,,,,,,,.........$$$$$$$$$$$$$$$$...,,,,,,,,,,,,,,,,,,,,",
",,,,,,,,,,,,,,,,.........$$$$$$$$$$$$$$$$...,,,,,,,,,,,,,,,,,,,,",
",,,,,,,,,,,,,,,,.........$$$$$$$$$$$$$$$$...,,,,,,,,,,,,,,,,,,,,",
",,,,,,,,,,,,,,,,.........$$$$$$$$$$$$$$$$...,,,,,,,,,,,,,,,,,,,,",
",,,,,,,,,,,,,,,,...@@@oooooo.......@@@@@@@@@...,,,,,,,,,,,,,,,,,",
",,,,,,,,,,,,,,,,...@@@oooooo.......@@@@@@@@@...,,,,,,,,,,,,,,,,,",
",,,,,,,,,,,,,,,,...@@@oooooo.......@@@@@@@@@...,,,,,,,,,,,,,,,,,",
",,,,,,,,,,,,,,,,...@@@@@@ooo....,,,...@@@@@@...,,,,,,,,,,,,,,,,,",
",,,,,,,,,,,,,,,,...@@@@@@ooo....,,,...@@@@@@...,,,,,,,,,,,,,,,,,",
",,,,,,,,,,,,,,,,...@@@@@@ooo....,,,...@@@@@@...,,,,,,,,,,,,,,,,,"
};
