/* XPM */
static char *result[] = {
/* columns rows colors chars-per-pixel */
"64 64 17 1 ",
"  c black",
". c #040404",
"X c #1E1E1E",
"o c #3F3013",
"O c gray21",
"+ c #422200",
"@ c #5D4717",
"# c #7C5500",
"$ c #4D4C4B",
"% c #7D7B76",
"& c #AA5A33",
"* c #D97F40",
"= c #C6A900",
"- c #F6A954",
"; c #A29E96",
": c #BEBBB5",
"> c None",
/* pixels */
">>>>>>>>>>>>>>>>>>>>>>>>>>>>>>>>            >>>>>>>>>>>>>>>>>>>>",
">>>>>>>>>>>>>>>>>>>>>>>>>>>>>>>>            >>>>>>>>>>>>>>>>>>>>",
">>>>>>>>>>>>>>>>>>>>>>>>>>>>>>>>            >>>>>>>>>>>>>>>>>>>>",
">>>>>>>>>>>>>>>>>>>>>>>>>>>>>>>>            >>>>>>>>>>>>>>>>>>>>",
">>>>>>>>>>>>>>>>>>>>>>>>>>>>>   ========####    >>>>>>>>>>>>>>>>",
">>>>>>>>>>>>>>>>>>>>>>>>>>>>>   ========####    >>>>>>>>>>>>>>>>",
">>>>>>>>>>>>>>>>>>>>>>>>>>>>>   ========####    >>>>>>>>>>>>>>>>",
">>>>>>>>>>>>>>>>>>>>>>>>>>>>>   ========####    >>>>>>>>>>>>>>>>",
">>>>>>>>>>>>>>>>>>>>>>>>>    ###============####   >>>>>>>>>>>>>",
">>>>>>>>>>>>>>>>>>>>>>>>>    ###============####   >>>>>>>>>>>>>",
">>>>>>>>>>>>>>>>>>>>>>>>>    ###============####   >>>>>>>>>>>>>",
">>>>>>>>>>>>>>>>>>>>>>>>>    +++########+++++++++++    >>>>>>>>>",
">>>>>>>>>>>>>>>>>>>>>>>>>    +++########+++++++++++    >>>>>>>>>",
">>>>>>>>>>>>>>>>>>>>>>>>>    +++########+++++++++++    >>>>>>>>>",
">>>>>>>>>>>>>>>>>>>>>>>>>    +++########+++++++++++    >>>>>>>>>",
">>>>>>>>>>>>>>>>>>>>>    XXXXXXX++++++++XXXXXXXX       >>>>>>>>>",
">>>>>>>>>>>>>>>>>>>>>    XXXXXXX++++++++XXXXXXXX       >>>>>>>>>",
">>>>>>>>>>>>>>>>>>>>>    XXXXXXX++++++++XXXXXXXX       >>>>>>>>>",
">>>>>>>>>>>>>>>>>>>>>    XXXXXXX++++++++XXXXXXXX       >>>>>>>>>",
">>>>>>>>>>>>>>>>>    XXXXOOOO$$$%%%%%%%%$$$$OOOOXXX    >>>>>>>>>",
">>>>>>>>>>>>>>>>>    XXXXOOOO$$$%%%%%%%%$$$$OOOOXXX    >>>>>>>>>",
">>>>>>>>>>>>>>>>>    XXXXOOOO$$$%%%%%%%%$$$$OOOOXXX    >>>>>>>>>",
">>>>>>>>>>>>>>>>>    XXXXOOOO$$$%%%%%%%%$$$$OOOOXXX    >>>>>>>>>",
">>>>>>>>>>>>>>   XXXX;;;;;;;;:::::::;;;;;;;;%%%%XXXXXXX    >>>>>",
">>>>>>>>>>>>>>   XXXX;;;;;;;;:::::::;;;;;;;;%%%%XXXXXXX    >>>>>",
">>>>>>>>>>>>>>   XXXX;;;;;;;;:::::::;;;;;;;;%%%%XXXXXXX    >>>>>",
">>>>>>>>>>>>>>   %%%%;;;;:::::::::::::::;;;;;;;;%%%$$$$    >>>>>",
">>>>>>>>>>>>>>   %%%%;;;;:::::::::::::::;;;;;;;;%%%$$$$    >>>>>",
">>>>>>>>>>>>>>   %%%%;;;;:::::::::::::::;;;;;;;;%%%$$$$    >>>>>",
">>>>>>>>>>>>>>   %%%%;;;;:::::::::::::::;;;;;;;;%%%$$$$    >>>>>",
">>>>>>>>>>>>>>   ;;;;OOOOOOOO$$$$$$$OOOOOOOOXXXX$$$XXXX    >>>>>",
">>>>>>>>>>>>>>   ;;;;OOOOOOOO$$$$$$$OOOOOOOOXXXX$$$XXXX    >>>>>",
">>>>>>>>>>>>>>   ;;;;OOOOOOOO$$$$$$$OOOOOOOOXXXX$$$XXXX    >>>>>",
">>>>>>>>>>>>>>   ;;;;OOOOOOOO$$$$$$$OOOOOOOOXXXX$$$XXXX    >>>>>",
">>>>>>>>>>>>>>   XXXX........%%%%%%%........$$$$XXXXXXX    >>>>>",
">>>>>>>>>>>>>>   XXXX........%%%%%%%........$$$$XXXXXXX    >>>>>",
">>>>>>>>>>>>>>   XXXX........%%%%%%%........$$$$XXXXXXX    >>>>>",
">>>>>>>>>>>>>>   XXXX........%%%%%%%........$$$$XXXXXXX    >>>>>",
">>>>>>>>>>>>>>>>>    $$$$----$$$$$$$----$$$$OOOOXXX    >>>>>>>>>",
">>>>>>>>>>>>>>>>>    $$$$----$$$$$$$----$$$$OOOOXXX    >>>>>>>>>",
">>>>>>>>>>>>>>>>>    $$$$----$$$$$$$----$$$$OOOOXXX    >>>>>>>>>",
">>>>>>>>>>...........OOOOOOOOOOOOOOOOOOOOOOOOOOO   >>>>>>>>>>>>>",
">>>>>>>>>>...........OOOOOOOOOOOOOOOOOOOOOOOOOOO   >>>>>>>>>>>>>",
">>>>>>>>>>...........OOOOOOOOOOOOOOOOOOOOOOOOOOO   >>>>>>>>>>>>>",
">>>>>>>>>>...........OOOOOOOOOOOOOOOOOOOOOOOOOOO   >>>>>>>>>>>>>",
">>>>>>....&&&&OOO%%%%%%%%%%%%%%%%%%%%%%%OOOO....>>>>>>>>>>>>>>>>",
">>>>>>....&&&&OOO%%%%%%%%%%%%%%%%%%%%%%%OOOO....>>>>>>>>>>>>>>>>",
">>>>>>....&&&&OOO%%%%%%%%%%%%%%%%%%%%%%%OOOO....>>>>>>>>>>>>>>>>",
">>>>>>....&&&&OOO%%%%%%%%%%%%%%%%%%%%%%%OOOO....>>>>>>>>>>>>>>>>",
">>>>>>....&&&&OOO$$$$%%%%%%%%%%%%%%%%%%%--------...>>>>>>>>>>>>>",
">>>>>>....&&&&OOO$$$$%%%%%%%%%%%%%%%%%%%--------...>>>>>>>>>>>>>",
">>>>>>....&&&&OOO$$$$%%%%%%%%%%%%%%%%%%%--------...>>>>>>>>>>>>>",
">>>>>>....&&&&OOO$$$$%%%%%%%%%%%%%%%%%%%--------...>>>>>>>>>>>>>",
">>>>>>........@@@@@@@oooo$$$$$$$$$$$....****----...>>>>>>>>>>>>>",
">>>>>>........@@@@@@@oooo$$$$$$$$$$$....****----...>>>>>>>>>>>>>",
">>>>>>........@@@@@@@oooo$$$$$$$$$$$....****----...>>>>>>>>>>>>>",
">>>>>>>>>>....@@@@@@@....@@@@@@@....>>>>...........>>>>>>>>>>>>>",
">>>>>>>>>>....@@@@@@@....@@@@@@@....>>>>...........>>>>>>>>>>>>>",
">>>>>>>>>>....@@@@@@@....@@@@@@@....>>>>...........>>>>>>>>>>>>>",
">>>>>>>>>>....@@@@@@@....@@@@@@@....>>>>...........>>>>>>>>>>>>>",
">>>>>>>>>>>>>>>>>>>>>>>>>@@@@@@@....>>>>>>>>>>>>>>>>>>>>>>>>>>>>",
">>>>>>>>>>>>>>>>>>>>>>>>>@@@@@@@....>>>>>>>>>>>>>>>>>>>>>>>>>>>>",
">>>>>>>>>>>>>>>>>>>>>>>>>@@@@@@@....>>>>>>>>>>>>>>>>>>>>>>>>>>>>",
">>>>>>>>>>>>>>>>>>>>>>>>>@@@@@@@....>>>>>>>>>>>>>>>>>>>>>>>>>>>>"
};
