/* XPM */
static char *result[] = {
/* columns rows colors chars-per-pixel */
"64 64 13 1 ",
"  c black",
". c #000B20",
"X c #00143C",
"o c #002161",
"O c #00308D",
"+ c #0042C3",
"@ c #0057FF",
"# c #3D7FFF",
"$ c #5A9AFF",
"% c #7FC6FF",
"& c #ADE7FF",
"* c #E0FCFF",
"= c None",
/* pixels */
"================================================================",
"================================================================",
"================================================================",
"================================================================",
"================================================================",
"================================================================",
"================================================================",
"================================================================",
"================================================================",
"================================================================",
"================================================================",
"================================================================",
"================================================================",
"================================================================",
"================================================================",
"=============================######=============================",
"=============================######=============================",
"===========================@@%%%%%%@@===========================",
"===========================@@%%%%%%@@===========================",
"=======================@@@@%%****%%%%@@@@=======================",
"=======================@@@@%%****%%%%@@@@=======================",
"=====================++%%%%********%%%%%%++=====================",
"=====================++%%%%********%%%%%%++=====================",
"===================++%%%%************&&%%%%++===================",
"===================++%%%%************&&%%%%++===================",
"===================++%%&&************&&&&%%++===================",
"===================++%%&&************&&&&%%++===================",
"=================OO%%%%XX&&********&&XX&&%%%%OO=================",
"=================OO%%%%XX&&********&&XX&&%%%%OO=================",
"=================OO%%&&..&&&&&&&&&&&&..&&&&%%OO=================",
"=================OO%%&&..&&&&&&&&&&&&..&&&&%%OO=================",
"=================OO%%&&&&&&&&&&&&&&&&&&&&&&%%OO=================",
"=================OO%%&&&&&&&&&&&&&&&&&&&&&&%%OO=================",
"=================OO%%%%&&&&&&&&&&&&&&&&&&%%%%OO=================",
"=================OO%%%%&&&&&&&&&&&&&&&&&&%%%%OO=================",
"=================OO$$%%%%&&&&&&&&&&&&&&%%%%$$OO=================",
"=================OO$$%%%%&&&&&&&&&&&&&&%%%%$$OO=================",
"===================oo$$%%%%&&&&&&&&&&%%%%$$oo===================",
"===================oo$$%%%%&&&&&&&&&&%%%%$$oo===================",
"=====================oo$$%%%%&&&&&&%%%%$$oo=====================",
"=====================oo$$%%%%&&&&&&%%%%$$oo=====================",
"=======================oo$$%%%%%%%%%%$$oo=======================",
"=======================oo$$%%%%%%%%%%$$oo=======================",
"=========================oo$$%%%%%%$$oo=========================",
"=========================oo$$%%%%%%$$oo=========================",
"===========================oo$$%%$$oo===========================",
"===========================oo$$%%$$oo===========================",
"=============================      =============================",
"=============================      =============================",
"================================================================",
"================================================================",
"================================================================",
"================================================================",
"================================================================",
"================================================================",
"================================================================",
"================================================================",
"================================================================",
"================================================================",
"================================================================",
"================================================================",
"================================================================",
"================================================================",
"================================================================"
};
