/* XPM */
static char *result[] = {
/* columns rows colors chars-per-pixel */
"64 64 12 1 ",
"  c #000B20",
". c #00143C",
"X c #002161",
"o c #00308D",
"O c #0042C3",
"+ c #0057FF",
"@ c #3D7FFF",
"# c #5A9AFF",
"$ c #7FC6FF",
"% c #ADE7FF",
"& c #E0FCFF",
"* c None",
/* pixels */
"****************************************************************",
"****************************************************************",
"****************************************************************",
"****************************************************************",
"****************************************************************",
"****************************************************************",
"****************************************************************",
"****************************************************************",
"****************************************************************",
"****************************************************************",
"****************************************************************",
"****************************************************************",
"****************************************************************",
"****************************************************************",
"****************************************************************",
"****************************************************************",
"****************************************************************",
"****************************************************************",
"****************************************************************",
"*****************************@@@@@@*****************************",
"*****************************@@@@@@*****************************",
"***************************++$$$$$$++***************************",
"***************************++$$$$$$++***************************",
"***********************++++$$%%%%%%$$++++***********************",
"***********************++++$$%%%%%%$$++++***********************",
"*********************++$$$$%%&&&&&&%%$$$$++*********************",
"*********************++$$$$%%&&&&&&%%$$$$++*********************",
"*******************OO$$%%%%&&&&&&&&&&%%%%$$OO*******************",
"*******************OO$$%%%%&&&&&&&&&&%%%%$$OO*******************",
"*****************oo$$%%%%%%%%&&&&&&%%%%%%%%$$oo*****************",
"*****************oo$$%%%%%%%%&&&&&&%%%%%%%%$$oo*****************",
"*****************oo$$%%%%%%%%%%%%%%%%%%%%%%$$oo*****************",
"*****************oo$$%%%%%%%%%%%%%%%%%%%%%%$$oo*****************",
"*****************oo$$%%%%%%%%%%%%%%%%%%%%%%$$oo*****************",
"*****************oo$$%%%%%%%%%%%%%%%%%%%%%%$$oo*****************",
"*****************oo$$%%%%..%%%%%%%%%%..%%%%$$oo*****************",
"*****************oo$$%%%%..%%%%%%%%%%..%%%%$$oo*****************",
"*****************oo$$$$%%  %%%%%%%%%%  %%$$$$oo*****************",
"*****************oo$$$$%%  %%%%%%%%%%  %%$$$$oo*****************",
"*****************oo##$$$$$$%%%%%%%%%%%%$$$$##oo*****************",
"*****************oo##$$$$$$%%%%%%%%%%%%$$$$##oo*****************",
"*******************XX##$$$$$$$$$$$$$$$$$$##XX*******************",
"*******************XX##$$$$$$$$$$$$$$$$$$##XX*******************",
"*********************XXXX##$$$$$$$$$$##XXXX*********************",
"*********************XXXX##$$$$$$$$$$##XXXX*********************",
"*************************XXXX######XXXX*************************",
"*************************XXXX######XXXX*************************",
"*****************************......*****************************",
"*****************************......*****************************",
"****************************************************************",
"****************************************************************",
"****************************************************************",
"****************************************************************",
"****************************************************************",
"****************************************************************",
"****************************************************************",
"****************************************************************",
"****************************************************************",
"****************************************************************",
"****************************************************************",
"****************************************************************",
"****************************************************************",
"****************************************************************",
"****************************************************************"
};
