/* XPM */
static char *_caea60c7a2042cdd34429d5f586756dAT1U5v25C5nuXW7E[] = {
/* columns rows colors chars-per-pixel */
"45 61 130 2 ",
"   c black",
".  c #0F0000",
"X  c #110100",
"o  c #140C00",
"O  c #151201",
"+  c #17150B",
"@  c #000010",
"#  c #00001E",
"$  c #171614",
"%  c #1C1313",
"&  c #191814",
"*  c #17141A",
"=  c #181719",
"-  c #19191D",
";  c #201E15",
":  c #242115",
">  c #010221",
",  c #001721",
"<  c #0A1920",
"1  c #0E1A2C",
"2  c #161121",
"3  c #181621",
"4  c #111826",
"5  c #191A26",
"6  c #1A1C2C",
"7  c #0E1334",
"8  c #1B1E33",
"9  c #241C29",
"0  c #291F28",
"q  c #1E212A",
"w  c #1E2230",
"e  c #1F2934",
"r  c #1D213D",
"t  c #282724",
"y  c #22232B",
"u  c #2A202A",
"i  c #27282C",
"p  c #2C2C2C",
"a  c #312B2C",
"s  c #2C2D31",
"d  c #25293F",
"f  c #2D2F38",
"g  c #302434",
"h  c #342A35",
"j  c #362A38",
"k  c #3A2A3B",
"l  c #2E303C",
"z  c #693B3F",
"x  c #6E403A",
"c  c #744233",
"v  c #73423B",
"b  c #2C1051",
"n  c #1E2344",
"m  c #1F264C",
"M  c #292D40",
"N  c #20274E",
"B  c #262C4B",
"V  c #3F2244",
"C  c #2E3241",
"Z  c #2F344A",
"A  c #222A53",
"S  c #2D2E50",
"D  c #222B5B",
"F  c #2F3652",
"G  c #313856",
"H  c #2D3764",
"J  c #2F3964",
"K  c #25316A",
"L  c #313B64",
"P  c #313D6D",
"I  c #293675",
"U  c #283779",
"Y  c #2B387B",
"T  c #303A7E",
"R  c #442746",
"E  c #422844",
"W  c #4C274F",
"Q  c #4D2651",
"!  c #532953",
"~  c #7D2E42",
"^  c #33417B",
"/  c #8D274A",
"(  c #9B4C45",
")  c #B4544E",
"_  c #B9574F",
"`  c #B66448",
"'  c #BC664A",
"]  c #BF6752",
"[  c #C5644F",
"{  c #C16A4A",
"}  c #D1714F",
"|  c #C96C55",
" . c #D57450",
".. c #DC7752",
"X. c #DE7853",
"o. c #E37B54",
"O. c #EA7F56",
"+. c #ED8156",
"@. c #2B3B83",
"#. c #2C3D8A",
"$. c #2E36BC",
"%. c #2F38BD",
"&. c #344385",
"*. c #354589",
"=. c #2E4091",
"-. c #31459C",
";. c #34489E",
":. c #3247A1",
">. c #354AA5",
",. c #354CAA",
"<. c #3650A9",
"1. c #3345B6",
"2. c #364DB3",
"3. c #3446BA",
"4. c #3951B6",
"5. c #3750B8",
"6. c #3952BC",
"7. c #3A55C3",
"8. c #3C57C9",
"9. c #3D58CD",
"0. c #3E5AD2",
"q. c #5FA2D4",
"w. c #78D4E7",
"e. c #78D3EA",
"r. c #7BD9EC",
"t. c #7BDAEE",
"y. c #86EFF7",
"u. c #8AF6FA",
"i. c #8BF8FB",
"p. c #8BF8FC",
/* pixels */
"p p p p p p p p p p p p p p p p p p p p p p p p p p p p p p p p p p p p p p p p p p p p p ",
"p p p p p p p p p p p p p p p p p p p p p p p p p p p p p p p p p p p p p p p p p p p p p ",
"p p p p p p p p p p p p p p p p p p p p p p p p p p p p p p p p p p p p p p p p p p p p p ",
"p p p p p p p p p p p p p p p p p p p p p p p p p p p p p p p p p p p p p p p p p p p p p ",
"p p p p p p p p p p p p p p p p p p p p p p p p p p p p p p p p p p p p p p p p p p p p p ",
"p p p p p p p p p p p p p p p p p p p p p p p p p p p p p p p p p p p p p p p p p p p p p ",
"p p p p p p p p p p p p p p p p p p p p p p p p p p p p p p p p p p p p p p p p p p p p p ",
"p p p p p p p p p p p p p p p p p p p p p p p p p p p p p p p p p p p p p p p p p p p p p ",
"p p p p p p p p p p p p p p p p p p p p p p p p p p p p p p p p p p p p p p p p p p p p p ",
"p p p p p p p p p p p p p p p p p p p p p p p p p p p p p p p p p p p p p p p p p p p p p ",
"p p p p p p p p p p p p p p p p p p p p p p p p p p p p p p p p p p p p p p p p p p p p p ",
"p p p p p p p p p p p p p p p a p a p s p p p s a p p p p p p p p p p p p p p p p p p p p ",
"p p p p p p p p p p p p p p p p p p p p p p p p p p p p p p p p p p p p p p p p p p p p p ",
"p p p p p p p p p p p p p k R E R E R E E V E E E E R s p p p p p p p p p p p p p p p p p ",
"p p p p p p p p p p p p p E Q Q Q Q ! W Q Q ! Q Q Q ! h p p p p p p p p p p p p p p p p p ",
"p p p p p p p p p p p p p E Q W Q Q Q W Q Q Q Q Q Q ! j p p p p p p p p p p p p p p p p p ",
"p p p p p p p p p p p p s V Q W Q Q Q Q Q Q Q Q Q Q Q j p p p p p p p p p p p p p p p p p ",
"p p p p p p p p p p p i s V Q W Q Q Q Q W W Q Q Q W Q j p p p p p p p p p p p p p p p p p ",
"p p p p p p p p p p s q < V W W ! ! u u i 9 y u 0 p p p p p p p p p p p p p p p p p p p p ",
"p p p p p p p p p p s q < V W W b b > > # , # # > p p p p p p p p p p p p p p p p p p p p ",
"p p p p p p p p p p p s s g 7 ~ | [ ' ] ( ~ ( { ` a i p p p p p p p p p p p p p p p p p p ",
"p p p p p p p p p p p p p : > c +.o.O.+._ / ) +.X.p p p p p p p p p p p p p p p p p p p p ",
"p p p p p p p p a ^ J J L S @ v O...X.X.[ ) [ o. .a q i p p p p p p p p p p p p p p p p p ",
"p p p p p p p p Z 6.6.5.7.T   v +.X.X.X.o.+.o.X.X.u 4 t p p p p p p p p p p p p p p p p p ",
"p p p p p p f s F 6.5.4.7.Y   x X.}  .}  . . . .} u 4 i p p p p p p p p p p p p p p p p p ",
"p p p p s p ^ 6.6.6.7.5.7.I o 8 1 1 1 1 1 1 1 1 1 5 5 5 5 q p p p p p p p p p p p p p p p ",
"p p p p p p ^ 6.5.6.7.7.9.Y o 5 O O O O o O O O O 5 5 5 3 y p p a p p p p p p p p p p p p ",
"p p p p s p ^ 6.5.6.6.K D N + D ,.>.>.<.<.,.<.<.>.6 5 5 5 q p p p p p p p p p p p p p p p ",
"p p p p s p ^ 8.8.8.8.8 o O . D 8.7.$.$.%.%.$.%.$.8 5 5 3 q p p p p p p p p p p p p p p p ",
"p p p p p p J =.#.#.#.n O K @.#.7.5.q.q.q.q.q.q.q.q 3 q y i p p p p p p p p p p p p p p p ",
"p p p p p p % X X o o 6 o -.9.7.6.6.y.p.u.u.u.i.y.e 2 t p p p p p p p p p p p p p p p p p ",
"p p p p p p d A m 5 8 8 o =.7.6.6.6.e.r.r.r.r.r.w.e * M l f p p p p p p p p p p p p p p p ",
"p p p p s p ^ 7.,.O 8 6 o #.9.7.5.6.3.3.3.3.3.3.1.8 o :.7.&.p s p p p p p p p p p p p p p ",
"p p p p p p ^ 7.>.X O w o #.8.7.7.7.7.7.7.7.7.7.6.r o :.8.*.p s p p p p p p p p p p p p p ",
"p p p p s p ^ 7.2.,.,.n $ n D A D D D D D D D D D 5 * m D N p p p p p p p p p p p p p p p ",
"p p p p p p ^ 6.6.7.7.n * * + o X X . . X X . X X 5 6 o . % p p p p p p p p p p p p p p p ",
"p p p p p p ^ 6.4.6.6.n * 5 - m #.#.#.#.#.#.#.#.@.w o I #.H p p p p p p p p p p p p p p p ",
"p p p p s p ^ 6.6.6.6.n = 6 O K 0.7.7.7.7.7.7.9.9.8 o >.0.*.p s p p p p p p p p p p p p p ",
"p p p p p p ^ <.>.>.>.n * 6 O D 2.,.5.5.6.6.2.,.>.8 o -.7.&.p s p p p p p p p p p p p p p ",
"p p p p p p t p p p p 6 6 5 5 5 o O 5.7.5.7.-.. * 6 o :.7.&.p p p p p p i p p p p p p p p ",
"p p p p p p p p p p p & + 3 5 6 5 6 5.6.6.7.-.. 5 6 o :.8.*.p p p p p p p p p p p p p p p ",
"p p p p p p p p p p p :.<.L t s i i l C C f J 2.,.6 - n N d p p p p p p p p p p p p p p p ",
"p p p p p p p p p p p 4.8.L p p p p p p p s G 8.7.6 5 - & : p p p p p p p p p p p p p p p ",
"p p p p p p p p p p p I @.A : y y y q y y : B @.U y i y y i p p p p p p p p p p p p p p p ",
"p p p p p p p p p p p O o & 6 5 5 5 5 5 5 5 * o o p p p p p p p p p p p p p p p p p p p p ",
"p p p p p p p p p p p y w 6 5 5 5 5 6 5 5 5 6 w w p p p p p p p p p p p p p p p p p p p p ",
"p p p p p p p p p p p p p y 5 5 5 5 5 5 5 5 q p p p p p p p p p p p p p p p p p p p p p p ",
"p p p p p p p p p p p i p y 5 5 5 5 5 5 5 5 q p p p p p p p p p p p p p p p p p p p p p p ",
"p p p p p p p p p p p p p p p i p i p i p t p p p p p p p p p p p p p p p p p p p p p p p ",
"p p p p p p p p p p p p p p p p p p p p p p p p p p p p p p p p p p p p p p p p p p p p p ",
"p p p p p p p p p p p p p p p p p p p p p p p p p p p p p p p p p p p p p p p p p p p p p ",
"p p p p p p p p p p p p p p p p p p p p p p p p p p p p p p p p p p p p p p p p p p p p p ",
"p p p p p p p p p p p p p p p p p p p p p p p p p p p p p p p p p p p p p p p p p p p p p ",
"p p p p p p p p p p p p p p p p p p p p p p p p p p p p p p p p p p p p p p p p p p p p p ",
"p p p p p p p p p p p p p p p p p p p p p p p p p p p p p p p p p p p p p p p p p p p p p ",
"p p p p p p p p p p p p p p p p p p p p p p p p p p p p p p p p p p p p p p p p p p p p p ",
"p p p p p p p p p p p p p p p p p p p p p p p p p p p p p p p p p p p p p p p p p p p p p ",
"p p p p p p p p p p p p p p p p p p p p p p p p p p p p p p p p p p p p p p p p p p p p p ",
"p p p p p p p p p p p p p p p p p p p p p p p p p p p p p p p p p p p p p p p p p p p p p ",
"p p p p p p p p p p p p p p p p p p p p p p p p p p p p p p p p p p p p p p p p p p p p p ",
"p p p p p p p p p p p p p p p p p p p p p p p p p p p p p p p p p p p p p p p p p p p p p "
};
