/* XPM */
static char *result[] = {
/* columns rows colors chars-per-pixel */
"64 64 17 1 ",
"  c #957215",
". c #A27C17",
"X c #AF8619",
"o c #CDA332",
"O c #D0A93E",
"+ c #D3AE4A",
"@ c #D6B356",
"# c #D9B962",
"$ c #DCBE6E",
"% c #DFC47A",
"& c #E2C986",
"* c #E5CE92",
"= c #E8D49E",
"- c #EBD9AA",
"; c #EEDFB6",
": c #F1E4C2",
"> c None",
/* pixels */
">>>>>>>>>>>>>>>>>>>>>>>>>>>>>>>>>>>>>>>>>>>>>>>>>>>>>>>>>>>>>>>>",
">>>>>>>>>>>>>>>>>>>>>>>>>>>>>>>>>>>>>>>>>>>>>>>>>>>>>>>>>>>>>>>>",
">>>>>>>>>>>>>>>>>>>>>>>>>>>>>>>>>>>>>>>>>>>>>>>>>>>>>>>>>>>>>>>>",
">>>>>>>>>>>>>>>>>>>>>>>>>>>>>>>>>>>>>>>>>>>>>>>>>>>>>>>>>>>>>>>>",
">>>>>>>>>>>>>>>>>>>>>>>>>>>>>>>>>>>>>>>>>>>>>>>>>>>>>>>>>>>>>>>>",
">>>>>>>>>>>>>>>>>>>>>>>>>>>>>>>>>>>>>>>>>>>>>>>>>>>>>>>>>>>>>>>>",
">>>>>>>>>>>>>>>>>>>>>>>>>>>>>>>>>>>>>>>>>>>>>>>>>>>>>>>>>>>>>>>>",
">>>>>>>>>>>>>>>>>>>>>>>>>>>>>>>>>>>>>>>>>>>>>>>>>>>>>>>>>>>>>>>>",
">>>>>>>>>>>>>>>>>>>>>>>>>>>>>>>>>>>>>>>>>>>>>>>>>>>>>>>>>>>>>>>>",
">>>>>>>>>>>>>>>>>>>>>>>>>>>>>>>>>>>>>>>>>>>>>>>>>>>>>>>>>>>>>>>>",
">>>>>>>>>>>>>>>>>>>>>>>>>>>>>>>>>>>>>>>>>>>>>>>>>>>>>>>>>>>>>>>>",
">>>>>>>>>>>>>>>>>>>>>>>>>>>>>>>>>>>>>>>>>>>>>>>>>>>>>>>>>>>>>>>>",
">>>>>>>>>>>>>>>>>>>>>>>>>>>>>>>>>>>>>>>>>>>>>>>>>>>>>>>>>>>>>>>>",
">>>>>>>>>>>>>>>>>>>>>>>>>>>>>>>>>>>>>>>>>>>>>>>>>>>>>>>>>>>>>>>>",
">>>>>>>>>>>>>>>>>>>>>>>>>>>>>>>>>>>>>>>>>>>>>>>>>>>>>>>>>>>>>>>>",
">>>>>>>>>>>>>>>>>>>>>>>>>>>>>>>>>>>>>>>>>>>>>>>>>>>>>>>>>>>>>>>>",
">>>>>>>>>>>>>>>>>>>>>>>>>>>           >>>>>>>>>>>>>>>>>>>>>>>>>>",
">>>>>>>>>>>>>>>>>>>>>>>>>>>           >>>>>>>>>>>>>>>>>>>>>>>>>>",
">>>>>>>>>>>>>>>>>>>>>>>>>..oo$$%  ++$$  >>>>>>>>>>>>>>>>>>>>>>>>",
">>>>>>>>>>>>>>>>>>>>>>>>>..oo$$%  ++$$  >>>>>>>>>>>>>>>>>>>>>>>>",
">>>>>>>>>>>>>>>>>>>>>>>  OOooooo&&  @@%%  >>>>>>>>>>>>>>>>>>>>>>",
">>>>>>>>>>>>>>>>>>>>>  ooOO  .. oo&&  ++%%  >>>>>>>>>>>>>>>>>>>>",
">>>>>>>>>>>>>>>>>>>>>  ooOO  .. oo&&  ++%%  >>>>>>>>>>>>>>>>>>>>",
">>>>>>>>>>>>>>>>>>>>>  ooXXoo$$+  @@**  ##  >>>>>>>>>>>>>>>>>>>>",
">>>>>>>>>>>>>>>>>>>>>  ooXXoo$$+  @@**  ##  >>>>>>>>>>>>>>>>>>>>",
">>>>>>>>>>>>>>>>>>>  oooo  oooo%  @@**  OO##  >>>>>>>>>>>>>>>>>>",
">>>>>>>>>>>>>>>>>>>  oooo  oooo%  @@**  OO##  >>>>>>>>>>>>>>>>>>",
">>>>>>>>>>>>>>>>>>>  oo  ooooooo==  --  OO$$  >>>>>>>>>>>>>>>>>>",
">>>>>>>>>>>>>>>>>>>  oo  ooooooo==  --  OO$$  >>>>>>>>>>>>>>>>>>",
">>>>>>>>>>>>>>>>>>>  oo  ooooooo&&  $$  OO$$  >>>>>>>>>>>>>>>>>>",
">>>>>>>>>>>>>>>>>>>  oo  ooooooo&&  $$  OO$$  >>>>>>>>>>>>>>>>>>",
">>>>>>>>>>>>>>>>>>>  oo  ooooooo##  %%  OO%%  >>>>>>>>>>>>>>>>>>",
">>>>>>>>>>>>>>>>>>>  oo  ooooooo##  %%  OO%%  >>>>>>>>>>>>>>>>>>",
">>>>>>>>>>>>>>>>>>>  oo  ooooooo++  &&  OO&&  >>>>>>>>>>>>>>>>>>",
">>>>>>>>>>>>>>>>>>>  oo  ooooooo++  &&  OO&&  >>>>>>>>>>>>>>>>>>",
">>>>>>>>>>>>>>>>>>>  oo  ooooooo++  ::  OO**  >>>>>>>>>>>>>>>>>>",
">>>>>>>>>>>>>>>>>>>  oooo  oooo=  OO;;  OO==  >>>>>>>>>>>>>>>>>>",
">>>>>>>>>>>>>>>>>>>  oooo  oooo=  OO;;  OO==  >>>>>>>>>>>>>>>>>>",
">>>>>>>>>>>>>>>>>>>>>  oo  oo++*  %%**  @@  >>>>>>>>>>>>>>>>>>>>",
">>>>>>>>>>>>>>>>>>>>>  oo  oo++*  %%**  @@  >>>>>>>>>>>>>>>>>>>>",
">>>>>>>>>>>>>>>>>>>>>  oooo     ##**  OO**  >>>>>>>>>>>>>>>>>>>>",
">>>>>>>>>>>>>>>>>>>>>  oooo     ##**  OO**  >>>>>>>>>>>>>>>>>>>>",
">>>>>>>>>>>>>>>>>>>>>>>  oooooo#--  @@$$  >>>>>>>>>>>>>>>>>>>>>>",
">>>>>>>>>>>>>>>>>>>>>>>  oooooo#--  @@$$  >>>>>>>>>>>>>>>>>>>>>>",
">>>>>>>>>>>>>>>>>>>>>>>>>  oo@@$  ++%%  >>>>>>>>>>>>>>>>>>>>>>>>",
">>>>>>>>>>>>>>>>>>>>>>>>>  oo@@$  ++%%  >>>>>>>>>>>>>>>>>>>>>>>>",
">>>>>>>>>>>>>>>>>>>>>>>>>>>           >>>>>>>>>>>>>>>>>>>>>>>>>>",
">>>>>>>>>>>>>>>>>>>>>>>>>>>           >>>>>>>>>>>>>>>>>>>>>>>>>>",
">>>>>>>>>>>>>>>>>>>>>>>>>>>>>>>>>>>>>>>>>>>>>>>>>>>>>>>>>>>>>>>>",
">>>>>>>>>>>>>>>>>>>>>>>>>>>>>>>>>>>>>>>>>>>>>>>>>>>>>>>>>>>>>>>>",
">>>>>>>>>>>>>>>>>>>>>>>>>>>>>>>>>>>>>>>>>>>>>>>>>>>>>>>>>>>>>>>>",
">>>>>>>>>>>>>>>>>>>>>>>>>>>>>>>>>>>>>>>>>>>>>>>>>>>>>>>>>>>>>>>>",
">>>>>>>>>>>>>>>>>>>>>>>>>>>>>>>>>>>>>>>>>>>>>>>>>>>>>>>>>>>>>>>>",
">>>>>>>>>>>>>>>>>>>>>>>>>>>>>>>>>>>>>>>>>>>>>>>>>>>>>>>>>>>>>>>>",
">>>>>>>>>>>>>>>>>>>>>>>>>>>>>>>>>>>>>>>>>>>>>>>>>>>>>>>>>>>>>>>>",
">>>>>>>>>>>>>>>>>>>>>>>>>>>>>>>>>>>>>>>>>>>>>>>>>>>>>>>>>>>>>>>>",
">>>>>>>>>>>>>>>>>>>>>>>>>>>>>>>>>>>>>>>>>>>>>>>>>>>>>>>>>>>>>>>>",
">>>>>>>>>>>>>>>>>>>>>>>>>>>>>>>>>>>>>>>>>>>>>>>>>>>>>>>>>>>>>>>>",
">>>>>>>>>>>>>>>>>>>>>>>>>>>>>>>>>>>>>>>>>>>>>>>>>>>>>>>>>>>>>>>>",
">>>>>>>>>>>>>>>>>>>>>>>>>>>>>>>>>>>>>>>>>>>>>>>>>>>>>>>>>>>>>>>>",
">>>>>>>>>>>>>>>>>>>>>>>>>>>>>>>>>>>>>>>>>>>>>>>>>>>>>>>>>>>>>>>>",
">>>>>>>>>>>>>>>>>>>>>>>>>>>>>>>>>>>>>>>>>>>>>>>>>>>>>>>>>>>>>>>>",
">>>>>>>>>>>>>>>>>>>>>>>>>>>>>>>>>>>>>>>>>>>>>>>>>>>>>>>>>>>>>>>>",
">>>>>>>>>>>>>>>>>>>>>>>>>>>>>>>>>>>>>>>>>>>>>>>>>>>>>>>>>>>>>>>>"
};
