/* XPM */
static char *result[] = {
/* columns rows colors chars-per-pixel */
"64 64 13 1 ",
"  c #957215",
". c #BC901B",
"X c #CDA332",
"o c #D3AE4A",
"O c #D6B356",
"+ c #D9B962",
"@ c #DCBE6E",
"# c #DFC47A",
"$ c #E8D49E",
"% c #EBD9AA",
"& c #EEDFB6",
"* c #F1E4C2",
"= c None",
/* pixels */
"================================================================",
"================================================================",
"================================================================",
"================================================================",
"================================================================",
"================================================================",
"================================================================",
"================================================================",
"================================================================",
"================================================================",
"================================================================",
"================================================================",
"================================================================",
"================================================================",
"================================================================",
"================================================================",
"============================       =============================",
"============================       =============================",
"============================ ++  XX  ===========================",
"============================ ++  XX  ===========================",
"==========================  XXX@@  XX  =========================",
"==========================  X  ++  XX  =========================",
"==========================  X  ++  XX  =========================",
"========================  XXX  @@OO  XX  =======================",
"========================  XXX  @@OO  XX  =======================",
"========================  XX ##  @@  XX  =======================",
"========================  XX ##  @@  XX  =======================",
"========================  XX %%  $$  XX  =======================",
"========================  XX %%  $$  XX  =======================",
"========================  XX $$  %%  XX  =======================",
"========================  XX $$  %%  XX  =======================",
"========================  XX %%  $$  XX  =======================",
"========================  XX %%  $$  XX  =======================",
"========================  XX &&  **  XX  =======================",
"========================  XX &&  **  XX  =======================",
"========================  XX %%  @@  XX  =======================",
"========================  XX $$  ##  XX  =======================",
"========================  XX $$  ##  XX  =======================",
"========================  XXX  ##%%  XX  =======================",
"========================  XXX  ##%%  XX  =======================",
"==========================  X  @@  XX  =========================",
"==========================  X  @@  XX  =========================",
"==========================  Xoo++  XX  =========================",
"==========================  Xoo++  XX  =========================",
"============================ OO..XX  ===========================",
"============================ OO..XX  ===========================",
"============================       =============================",
"============================       =============================",
"================================================================",
"================================================================",
"================================================================",
"================================================================",
"================================================================",
"================================================================",
"================================================================",
"================================================================",
"================================================================",
"================================================================",
"================================================================",
"================================================================",
"================================================================",
"================================================================",
"================================================================",
"================================================================"
};
