/* XPM */
static char *result[] = {
/* columns rows colors chars-per-pixel */
"64 64 13 1 ",
"  c #957215",
". c #A27C17",
"X c #CDA332",
"o c #D3AE4A",
"O c #D6B356",
"+ c #D9B962",
"@ c #DCBE6E",
"# c #DFC47A",
"$ c #E2C986",
"% c #E5CE92",
"& c #E8D49E",
"* c #EBD9AA",
"= c None",
/* pixels */
"================================================================",
"================================================================",
"================================================================",
"================================================================",
"================================================================",
"================================================================",
"================================================================",
"================================================================",
"================================================================",
"================================================================",
"================================================================",
"================================================================",
"================================================================",
"================================================================",
"================================================================",
"================================================================",
"=============================        ===========================",
"=============================        ===========================",
"============================ XX  @@  ===========================",
"============================ XX  @@  ===========================",
"==========================  X  XXoo%%  =========================",
"==========================  X  XX  ##  =========================",
"==========================  X  XX  ##  =========================",
"========================  XX XXXX  @@++  =======================",
"========================  XX XXXX  @@++  =======================",
"========================  XX XX  ##  @@  =======================",
"========================  XX XX  ##  @@  =======================",
"========================  XX XX  %%  %%  =======================",
"========================  XX XX  %%  %%  =======================",
"========================  XX XX  **  $$  =======================",
"========================  XX XX  **  $$  =======================",
"========================  XX XX  &&  $$  =======================",
"========================  XX XX  &&  $$  =======================",
"========================  XX XX  **  $$  =======================",
"========================  XX XX  **  $$  =======================",
"========================  XX XX  ##  **  =======================",
"========================  XX XX  @@  $$  =======================",
"========================  XX XX  @@  $$  =======================",
"========================  XX XXoo  ++OO  =======================",
"========================  XX XXoo  ++OO  =======================",
"==========================  X  XX..oo  =========================",
"==========================  X  XX..oo  =========================",
"==========================  X  XXOO##  =========================",
"==========================  X  XXOO##  =========================",
"============================ XX..@@  ===========================",
"============================ XX..@@  ===========================",
"=============================        ===========================",
"=============================        ===========================",
"================================================================",
"================================================================",
"================================================================",
"================================================================",
"================================================================",
"================================================================",
"================================================================",
"================================================================",
"================================================================",
"================================================================",
"================================================================",
"================================================================",
"================================================================",
"================================================================",
"================================================================",
"================================================================"
};
