/* XPM */
static char *result[] = {
/* columns rows colors chars-per-pixel */
"26 32 3 1 ",
"  c black",
". c white",
"X c None",
/* pixels */
"XXX                 XXXXXX",
"XXX                 XXXXXX",
"XXX                 XXXXXX",
"      ...........      XXX",
"      ...........      XXX",
"      ...........      XXX",
"   .................      ",
"   .................      ",
"   .................      ",
"   ......     ......      ",
"   ......     ......      ",
"   ......     ......      ",
"      ...........         ",
"      ...........         ",
"      ...........         ",
"   .................      ",
"   .................      ",
"   ......     ......      ",
"   ......     ......      ",
"   ......     ......      ",
"   .................      ",
"   .................      ",
"   .................      ",
"      ...........         ",
"      ...........         ",
"      ...........         ",
"XXX                       ",
"XXX                       ",
"XXX                       ",
"XXXXXX                 XXX",
"XXXXXX                 XXX",
"XXXXXX                 XXX"
};
