/* XPM */
static char *result[] = {
/* columns rows colors chars-per-pixel */
"64 64 10 1 ",
"  c black",
". c #002F15",
"X c #005928",
"o c #087129",
"O c #40AD29",
"+ c #6BD926",
"@ c #A9E74E",
"# c #C0E869",
"$ c #E0E8B1",
"% c None",
/* pixels */
"%%%%%%%%%%%%%%%%%%%%%%%%%%%%%%%%%%%%%%%%%%%%%%%%%%%%%%%%%%%%%%%%",
"%%%%%%%%%%%%%%%%%%%%%%%%%%%%%%%%%%%%%%%%%%%%%%%%%%%%%%%%%%%%%%%%",
"%%%%%%%%%%%%%%%%%%%%%%%%%%%%%%%%%%%%%%%%%%%%%%%%%%%%%%%%%%%%%%%%",
"%%%%%%%%%%%%%%%%%%%%%%%%%%%%%%%%%%%%%%%%%%%%%%%%%%%%%%%%%%%%%%%%",
"%%%%%%%%%%%%%%%%%%%%%%%%%%%%%%%%%%%%%%%%%%%%%%%%%%%%%%%%%%%%%%%%",
"%%%%%%%%%%%%%%%%%%%%%%%%%%%%%%%%%%%%%%%%%%%%%%%%%%%%%%%%%%%%%%%%",
"%%%%%%%%%%%%%%%%%%%%%%%%%%%%%%%%%%%%%%%%%%%%%%%%%%%%%%%%%%%%%%%%",
"%%%%%%%%%%%%%%%%%%%%%%%%%%%%%%%%%%%%%%%%%%%%%%%%%%%%%%%%%%%%%%%%",
"%%%%%%%%%%%%%%%%%%%%%%%%%%%%%%%%%%%%%%%%%%%%%%%%%%%%%%%%%%%%%%%%",
"%%%%%%%%%%%%%%%%%%%%%%%%%%%%%%%%%%%%%%%%%%%%%%%%%%%%%%%%%%%%%%%%",
"%%%%%%%%%%%%%%%%%%%%%%%%%%%%%%%%%%%%%%%%%%%%%%%%%%%%%%%%%%%%%%%%",
"%%%%%%%%%%%%%%%%%%%%%%%%%%%%%%%%%%%%%%%%%%%%%%%%%%%%%%%%%%%%%%%%",
"%%%%%%%%%%%%%%%%%%%%%%%%%%%%%%%%%%%%%%%%%%%%%%%%%%%%%%%%%%%%%%%%",
"%%%%%%%%%%%%%%%%%%%%%%%%%%%%%%%%%%%%%%%%%%%%%%%%%%%%%%%%%%%%%%%%",
"%%%%%%%%%%%%%%%%%%%%%%%%%%%%%%%%%%%%%%%%%%%%%%%%%%%%%%%%%%%%%%%%",
"%%%%%%%%%%%%%%%%%%%%%%%%%%%%%%%%%%%%%%%%%%%%%%%%%%%%%%%%%%%%%%%%",
"%%%%%%%%%%%%%%%%%%%%%%%%%%%%%%%%%%%%%%%%%%%%%%%%%%%%%%%%%%%%%%%%",
"%%%%%%%%%%%%%%%%%%%%%%%%%%%%%%%%%%%%%%%%%%%%%%%%%%%%%%%%%%%%%%%%",
"%%%%%%%%%%%%%%%%%%%%%%%%%%%%%%%%%%%%%%%%%%%%%%%%%%%%%%%%%%%%%%%%",
"%%%%%%%%%%%%%%%%%%%%%%%%%%%%%%%%%%%%%%%%%%%%%%%%%%%%%%%%%%%%%%%%",
"%%%%%%%%%%%%%%%%%%%%%%%%%%%%%%%%%%%%%%%%%%%%%%%%%%%%%%%%%%%%%%%%",
"%%%%%%%%%%%%%%%%%%%%%%%%%%%%%%%%%%%%%%%%%%%%%%%%%%%%%%%%%%%%%%%%",
"%%%%%%%%%%%%%%%%%%%%%%%%%%%%%%%%%%%%%%%%%%%%%%%%%%%%%%%%%%%%%%%%",
"%%%%%%%%%%%%%%%%%%%%%%%%%%%%%%%%%%%%%%%%%%%%%%%%%%%%%%%%%%%%%%%%",
"%%%%%%%%%%%%%%%%%%%%%%%%%%%%%%%%%%%%%%%%%%%%%%%%%%%%%%%%%%%%%%%%",
"%%%%%%%%%%%%%%%%%%%%%%%%%%%%%%%%%%%%%%%%%%%%%%%%%%%%%%%%%%%%%%%%",
"%%%%%%%%%%%%%%%%%%%%%%%%%%%%%%%%%%%%%%%%%%%%%%%%%%%%%%%%%%%%%%%%",
"%%%%%%%%%%%%%%%%%%%%%%%%%%%%%%%%%%%%%%%%%%%%%%%%%%%%%%%%%%%%%%%%",
"%%%%%%%%%%%%%%%%%%%%%%%%%%%%%%%%%%%%%%%%%%%%%%%%%%%%%%%%%%%%%%%%",
"%%%%%%%%%%%%%%%%%%%%%%%%%%%%%%%%%%%%%%%%%%%%%%%%%%%%%%%%%%%%%%%%",
"%%%%%%%%%%%%%%%%%%%%%%%%%%%%%%%%%%%%%%%%%%%%%%%%%%%%%%%%%%%%%%%%",
"%%%%%%%%%%%%%%%%%%%%%%%%%%%%%%%%%%%%%%%%%%%%%%%%%%%%%%%%%%%%%%%%",
"%%%%%%%%%%%%%%%%%%%%%%%%%%%%%%%%%%%%%%%%%%%%%%%%%%%%%%%%%%%%%%%%",
"%%%%%%%%%%%%%%%%%%%%%%%%%%%%%%%%%%%%%%%%%%%%%%%%%%%%%%%%%%%%%%%%",
"%%%%%%%%%%%%%%%%%%%%%%%%%%%%%%%%%%%%%%%%%%%%%%%%%%%%%%%%%%%%%%%%",
"%%%%%%%%%%%%%%%%%%%%%%%%%%%%%%%%%%%%%%%%%%%%%%%%%%%%%%%%%%%%%%%%",
"%%%%%%%%%%%%%%%%%%%%%%%%%%%%%%%%%%%%%%%%%%%%%%%%%%%%%%%%%%%%%%%%",
"%%%%%%%%%%%%%%%%%%%%%%%%%%%%%%%%%%%%%%%%%%%%%%%%%%%%%%%%%%%%%%%%",
"%%%%%%%%%%%%%%%%%%%%%%%%%%%%%%%%%%%%%%%%%%%%%%%%%%%%%%%%%%%%%%%%",
"%%%%%%%%%%%%%%%%%%%%%%%%%%%%%%%%%%%%%%%%%%%%%%%%%%%%%%%%%%%%%%%%",
"%%%%%%%%%%%%%%%%%%%%                        %%%%%%%%%%%%%%%%%%%%",
"%%%%%%%%%%%%%%%%%%%%                        %%%%%%%%%%%%%%%%%%%%",
"%%%%%%%%%%%%%%%%%%%%                        %%%%%%%%%%%%%%%%%%%%",
"%%%%%%%%%%%%%%%%%   ooo$$$$$$#########OOOooo   %%%%%%%%%%%%%%%%%",
"%%%%%%%%%%%%%%%%%   ooo$$$$$$#########OOOooo   %%%%%%%%%%%%%%%%%",
"%%%%%%%%%%%%%%%%%   ooo$$$$$$#########OOOooo   %%%%%%%%%%%%%%%%%",
"%%%%%%%%%%%%%%   XXX###$$$$$$############OOOXXX   %%%%%%%%%%%%%%",
"%%%%%%%%%%%%%%   XXX###$$$$$$############OOOXXX   %%%%%%%%%%%%%%",
"%%%%%%%%%%%%%%   XXX###$$$$$$############OOOXXX   %%%%%%%%%%%%%%",
"%%%%%%%%%%%   ...OOO######oooooooooooooooOOOOOO...   %%%%%%%%%%%",
"%%%%%%%%%%%   ...OOO######oooooooooooooooOOOOOO...   %%%%%%%%%%%",
"%%%%%%%%%%%   ...OOO######oooooooooooooooOOOOOO...   %%%%%%%%%%%",
"%%%%%%%%%%%   XXXOOOXXX..................XXXOOOXXX   %%%%%%%%%%%",
"%%%%%%%%%%%   XXXOOOXXX..................XXXOOOXXX   %%%%%%%%%%%",
"%%%%%%%%%%%   XXXOOOXXX..................XXXOOOXXX   %%%%%%%%%%%",
"%%%%%%%%%%%   ...+++OOOXXX............XXXOOO+++...   %%%%%%%%%%%",
"%%%%%%%%%%%   ...+++OOOXXX............XXXOOO+++...   %%%%%%%%%%%",
"%%%%%%%%%%%   ...+++OOOXXX............XXXOOO+++...   %%%%%%%%%%%",
"%%%%%%%%%%%%%%   XXX+++@@@@@@@@@@@@@@@@@@+++XXX   %%%%%%%%%%%%%%",
"%%%%%%%%%%%%%%   XXX+++@@@@@@@@@@@@@@@@@@+++XXX   %%%%%%%%%%%%%%",
"%%%%%%%%%%%%%%   XXX+++@@@@@@@@@@@@@@@@@@+++XXX   %%%%%%%%%%%%%%",
"%%%%%%%%%%%%%%%%%                              %%%%%%%%%%%%%%%%%",
"%%%%%%%%%%%%%%%%%                              %%%%%%%%%%%%%%%%%",
"%%%%%%%%%%%%%%%%%                              %%%%%%%%%%%%%%%%%"
};
