/* XPM */
static char *result[] = {
/* columns rows colors chars-per-pixel */
"64 64 17 1 ",
"  c black",
". c #040404",
"X c #1E1E1E",
"o c #3F3013",
"O c gray21",
"+ c #422200",
"@ c #5D4717",
"# c #7C5500",
"$ c #4D4C4B",
"% c #7D7B76",
"& c #D97F40",
"* c #C6A900",
"= c #F6A954",
"- c #A29E96",
"; c #BEBBB5",
": c gray91",
"> c None",
/* pixels */
">>>>>>>>>>>>>>>>>>>>>>>>>>>>>             >>>>>>>>>>>>>>>>>>>>>>",
">>>>>>>>>>>>>>>>>>>>>>>>>>>>>             >>>>>>>>>>>>>>>>>>>>>>",
">>>>>>>>>>>>>>>>>>>>>>>>>>>>>             >>>>>>>>>>>>>>>>>>>>>>",
">>>>>>>>>>>>>>>>>>>>>>>>>>   **********###   >>>>>>>>>>>>>>>>>>>",
">>>>>>>>>>>>>>>>>>>>>>>>>>   **********###   >>>>>>>>>>>>>>>>>>>",
">>>>>>>>>>>>>>>>>>>>>>>>>>   **********###   >>>>>>>>>>>>>>>>>>>",
">>>>>>>>>>>>>>>>>>>>>>>>>>   **********###   >>>>>>>>>>>>>>>>>>>",
">>>>>>>>>>>>>>>>>>>>>>>   ###*************###   >>>>>>>>>>>>>>>>",
">>>>>>>>>>>>>>>>>>>>>>>   ###*************###   >>>>>>>>>>>>>>>>",
">>>>>>>>>>>>>>>>>>>>>>>   ###*************###   >>>>>>>>>>>>>>>>",
">>>>>>>>>>>>>>>>>>>>>>>   #############+++++++++   >>>>>>>>>>>>>",
">>>>>>>>>>>>>>>>>>>>>>>   #############+++++++++   >>>>>>>>>>>>>",
">>>>>>>>>>>>>>>>>>>>>>>   #############+++++++++   >>>>>>>>>>>>>",
">>>>>>>>>>>>>>>>>>>>>>>   +++######+++++++++++++   >>>>>>>>>>>>>",
">>>>>>>>>>>>>>>>>>>>>>>   +++######+++++++++++++   >>>>>>>>>>>>>",
">>>>>>>>>>>>>>>>>>>>>>>   +++######+++++++++++++   >>>>>>>>>>>>>",
">>>>>>>>>>>>>>>>>>>>      XXXXXX+++XXXXXXX         >>>>>>>>>>>>>",
">>>>>>>>>>>>>>>>>>>>      XXXXXX+++XXXXXXX         >>>>>>>>>>>>>",
">>>>>>>>>>>>>>>>>>>>      XXXXXX+++XXXXXXX         >>>>>>>>>>>>>",
">>>>>>>>>>>>>>>>    OOO$$$%%%%%%$$$OOOOOOOXXX   >>>>>>>>>>>>>>>>",
">>>>>>>>>>>>>>>>    OOO$$$%%%%%%$$$OOOOOOOXXX   >>>>>>>>>>>>>>>>",
">>>>>>>>>>>>>>>>    OOO$$$%%%%%%$$$OOOOOOOXXX   >>>>>>>>>>>>>>>>",
">>>>>>>>>>>>>>>>    OOO$$$%%%%%%$$$OOOOOOOXXX   >>>>>>>>>>>>>>>>",
">>>>>>>>>>>>>   OOOO$$$------$$$$$$$$$$OOOXXXXXX   >>>>>>>>>>>>>",
">>>>>>>>>>>>>   OOOO$$$------$$$$$$$$$$OOOXXXXXX   >>>>>>>>>>>>>",
">>>>>>>>>>>>>   OOOO$$$------$$$$$$$$$$OOOXXXXXX   >>>>>>>>>>>>>",
">>>>>>>>>>>>>   ----;;;%%%$$$$$$OOO%%%%%%%$$$$$$   >>>>>>>>>>>>>",
">>>>>>>>>>>>>   ----;;;%%%$$$$$$OOO%%%%%%%$$$$$$   >>>>>>>>>>>>>",
">>>>>>>>>>>>>   ----;;;%%%$$$$$$OOO%%%%%%%$$$$$$   >>>>>>>>>>>>>",
">>>>>>>>>>>>>   ;;;;;;;;;;---------%%%%$$$$$$OOO   >>>>>>>>>>>>>",
">>>>>>>>>>>>>   ;;;;;;;;;;---------%%%%$$$$$$OOO   >>>>>>>>>>>>>",
">>>>>>>>>>>>>   ;;;;;;;;;;---------%%%%$$$$$$OOO   >>>>>>>>>>>>>",
">>>>>>>>>>>>>   OOOO;;;;;;;;;----------XXXXXXXXX   >>>>>>>>>>>>>",
">>>>>>>>>>>>>   OOOO;;;;;;;;;----------XXXXXXXXX   >>>>>>>>>>>>>",
">>>>>>>>>>>>>   OOOO;;;;;;;;;----------XXXXXXXXX   >>>>>>>>>>>>>",
">>>>>>>>>>>>>>>>    $$$$$$$$$OOOXXXXXXXXXXXXXXXX   >>>>>>>>>>>>>",
">>>>>>>>>>>>>>>>    $$$$$$$$$OOOXXXXXXXXXXXXXXXX   >>>>>>>>>>>>>",
">>>>>>>>>>>>>>>>    $$$$$$$$$OOOXXXXXXXXXXXXXXXX   >>>>>>>>>>>>>",
">>>>>>>>>>>>>>>>    $$$$$$$$$OOOXXXXXXXXXXXXXXXX   >>>>>>>>>>>>>",
">>>>>>>>>>>>>>>>    %%%...:::$$$OOOOOOOXXXXXX   >>>>>>>>>>>>>>>>",
">>>>>>>>>>>>>>>>    %%%...:::$$$OOOOOOOXXXXXX   >>>>>>>>>>>>>>>>",
">>>>>>>>>>>>>>>>    %%%...:::$$$OOOOOOOXXXXXX   >>>>>>>>>>>>>>>>",
">>>>>>>>>>>>>>>>    $$$===$$$OOOOOOOOOOOOO...>>>>>>>>>>>>>>>>>>>",
">>>>>>>>>>>>>>>>    $$$===$$$OOOOOOOOOOOOO...>>>>>>>>>>>>>>>>>>>",
">>>>>>>>>>>>>>>>    $$$===$$$OOOOOOOOOOOOO...>>>>>>>>>>>>>>>>>>>",
">>>>>>>>>>>>>>>>    ...OOOOOO%%%%%%$$$$...>>>>>>>>>>>>>>>>>>>>>>",
">>>>>>>>>>>>>>>>    ...OOOOOO%%%%%%$$$$...>>>>>>>>>>>>>>>>>>>>>>",
">>>>>>>>>>>>>>>>    ...OOOOOO%%%%%%$$$$...>>>>>>>>>>>>>>>>>>>>>>",
">>>>>>>>>>>>>>>>>>>>...$$$$$$%%%%%%$$$$...>>>>>>>>>>>>>>>>>>>>>>",
">>>>>>>>>>>>>>>>>>>>...$$$$$$%%%%%%$$$$...>>>>>>>>>>>>>>>>>>>>>>",
">>>>>>>>>>>>>>>>>>>>...$$$$$$%%%%%%$$$$...>>>>>>>>>>>>>>>>>>>>>>",
">>>>>>>>>>>>>>>>>>>>...$$$...======.......>>>>>>>>>>>>>>>>>>>>>>",
">>>>>>>>>>>>>>>>>>>>...$$$...======.......>>>>>>>>>>>>>>>>>>>>>>",
">>>>>>>>>>>>>>>>>>>>...$$$...======.......>>>>>>>>>>>>>>>>>>>>>>",
">>>>>>>>>>>>>>>>>>>>...$$$...======.......>>>>>>>>>>>>>>>>>>>>>>",
">>>>>>>>>>>>>>>>>>>>...OOO...&&&===.......>>>>>>>>>>>>>>>>>>>>>>",
">>>>>>>>>>>>>>>>>>>>...OOO...&&&===.......>>>>>>>>>>>>>>>>>>>>>>",
">>>>>>>>>>>>>>>>>>>>...OOO...&&&===.......>>>>>>>>>>>>>>>>>>>>>>",
">>>>>>>>>>>>>>>>>>>>>>>...ooo..........>>>>>>>>>>>>>>>>>>>>>>>>>",
">>>>>>>>>>>>>>>>>>>>>>>...ooo..........>>>>>>>>>>>>>>>>>>>>>>>>>",
">>>>>>>>>>>>>>>>>>>>>>>...ooo..........>>>>>>>>>>>>>>>>>>>>>>>>>",
">>>>>>>>>>>>>>>>>>>>>>>...@@@@@@@@@....>>>>>>>>>>>>>>>>>>>>>>>>>",
">>>>>>>>>>>>>>>>>>>>>>>...@@@@@@@@@....>>>>>>>>>>>>>>>>>>>>>>>>>",
">>>>>>>>>>>>>>>>>>>>>>>...@@@@@@@@@....>>>>>>>>>>>>>>>>>>>>>>>>>"
};
