/* XPM */
static char *result[] = {
/* columns rows colors chars-per-pixel */
"26 32 3 1 ",
"  c black",
". c white",
"X c None",
/* pixels */
"                    XXXXXX",
"                    XXXXXX",
"                    XXXXXX",
"   ......   .....   XXXXXX",
"   ......   .....   XXXXXX",
"   ......   .....   XXXXXX",
"   ......   .....   XXXXXX",
"   ......   .....   XXXXXX",
"   ......   .....   XXXXXX",
"   ......   .....      XXX",
"   ......   .....      XXX",
"   ......   .....      XXX",
"   .................      ",
"   .................      ",
"   .................      ",
"   .................      ",
"   .................      ",
"            .....         ",
"            .....         ",
"            .....         ",
"XXX         .....         ",
"XXX         .....         ",
"XXX         .....         ",
"XXXXXX      .....   XXXXXX",
"XXXXXX      .....   XXXXXX",
"XXXXXX      .....   XXXXXX",
"XXXXXX              XXXXXX",
"XXXXXX              XXXXXX",
"XXXXXX              XXXXXX",
"XXXXXXXXX           XXXXXX",
"XXXXXXXXX           XXXXXX",
"XXXXXXXXX           XXXXXX"
};
