/* XPM */
static char *result[] = {
/* columns rows colors chars-per-pixel */
"64 64 16 1 ",
"  c black",
". c #040404",
"X c #1E1E1E",
"o c #3F3013",
"O c gray21",
"+ c #422200",
"@ c #5D4717",
"# c #7C5500",
"$ c #4D4C4B",
"% c #7D7B76",
"& c #AA5A33",
"* c #D97F40",
"= c #C6A900",
"- c #F6A954",
"; c #A29E96",
": c None",
/* pixels */
":::::::::::::::::::::::::::::      :::::::::::::::::::::::::::::",
":::::::::::::::::::::::::::::      :::::::::::::::::::::::::::::",
":::::::::::::::::::::::::::::      :::::::::::::::::::::::::::::",
"::::::::::::::::::::::::::   ======   ::::::::::::::::::::::::::",
"::::::::::::::::::::::::::   ======   ::::::::::::::::::::::::::",
"::::::::::::::::::::::::::   ======   ::::::::::::::::::::::::::",
"::::::::::::::::::::::    ###======###   :::::::::::::::::::::::",
"::::::::::::::::::::::    ###======###   :::::::::::::::::::::::",
"::::::::::::::::::::::    ###======###   :::::::::::::::::::::::",
"::::::::::::::::::::::    ###======###   :::::::::::::::::::::::",
"::::::::::::::::::::::    ############   :::::::::::::::::::::::",
"::::::::::::::::::::::    ############   :::::::::::::::::::::::",
"::::::::::::::::::::::    ############   :::::::::::::::::::::::",
"::::::::::::::::::::::    +++######+++   :::::::::::::::::::::::",
"::::::::::::::::::::::    +++######+++   :::::::::::::::::::::::",
"::::::::::::::::::::::    +++######+++   :::::::::::::::::::::::",
":::::::::::::::::::   XXXX++++++++++++XXX    :::::::::::::::::::",
":::::::::::::::::::   XXXX++++++++++++XXX    :::::::::::::::::::",
":::::::::::::::::::   XXXX++++++++++++XXX    :::::::::::::::::::",
"::::::::::::::::   XXXOOOO$$$++++++$$$OOOXXXX   ::::::::::::::::",
"::::::::::::::::   XXXOOOO$$$++++++$$$OOOXXXX   ::::::::::::::::",
"::::::::::::::::   XXXOOOO$$$++++++$$$OOOXXXX   ::::::::::::::::",
":::::::::::::   XXXOOO$$$$$$$;;;;;;$$$$$$OOOOXXX   :::::::::::::",
":::::::::::::   XXXOOO$$$$$$$;;;;;;$$$$$$OOOOXXX   :::::::::::::",
":::::::::::::   XXXOOO$$$$$$$;;;;;;$$$$$$OOOOXXX   :::::::::::::",
":::::::::::::   XXXOOO$$$$$$$;;;;;;$$$$$$OOOOXXX   :::::::::::::",
":::::::::::::   %%%%%%OOOO$$$%%%%%%$$$OOO%%%%%%%   :::::::::::::",
":::::::::::::   %%%%%%OOOO$$$%%%%%%$$$OOO%%%%%%%   :::::::::::::",
":::::::::::::   %%%%%%OOOO$$$%%%%%%$$$OOO%%%%%%%   :::::::::::::",
":::::::::::::   $$$%%%%%%%;;;;;;;;;;;;%%%%%%%$$$   :::::::::::::",
":::::::::::::   $$$%%%%%%%;;;;;;;;;;;;%%%%%%%$$$   :::::::::::::",
":::::::::::::   $$$%%%%%%%;;;;;;;;;;;;%%%%%%%$$$   :::::::::::::",
":::::::::::::   XXX$$$%%%%%%%;;;;;;%%%%%%$$$$XXX   :::::::::::::",
":::::::::::::   XXX$$$%%%%%%%;;;;;;%%%%%%$$$$XXX   :::::::::::::",
":::::::::::::   XXX$$$%%%%%%%;;;;;;%%%%%%$$$$XXX   :::::::::::::",
"::::::::::::::::   XXXOOOOOOO$$$$$$OOOOOOXXXX   ::::::::::::::::",
"::::::::::::::::   XXXOOOOOOO$$$$$$OOOOOOXXXX   ::::::::::::::::",
"::::::::::::::::   XXXOOOOOOO$$$$$$OOOOOOXXXX   ::::::::::::::::",
"::::::::::::::::   $$$$$$$$$$$$$$$$$$$$$$$$$$   ::::::::::::::::",
"::::::::::::::::   $$$$$$$$$$$$$$$$$$$$$$$$$$   ::::::::::::::::",
"::::::::::::::::   $$$$$$$$$$$$$$$$$$$$$$$$$$   ::::::::::::::::",
"::::::::::::::::   $$$$$$$$$$$$$$$$$$$$$$$$$$   ::::::::::::::::",
"::::::::::::::::...%%%OOOO$$$$$$$$$$$$OOO$$$$***...:::::::::::::",
"::::::::::::::::...%%%OOOO$$$$$$$$$$$$OOO$$$$***...:::::::::::::",
"::::::::::::::::...%%%OOOO$$$$$$$$$$$$OOO$$$$***...:::::::::::::",
":::::::::::::...%%%%%%%%%%%%%%%%%%%%%%%%%OOOO&&&...:::::::::::::",
":::::::::::::...%%%%%%%%%%%%%%%%%%%%%%%%%OOOO&&&...:::::::::::::",
":::::::::::::...%%%%%%%%%%%%%%%%%%%%%%%%%OOOO&&&...:::::::::::::",
":::::::::::::...------....$$$$$$$$$$$$$$$.......::::::::::::::::",
":::::::::::::...------....$$$$$$$$$$$$$$$.......::::::::::::::::",
":::::::::::::...------....$$$$$$$$$$$$$$$.......::::::::::::::::",
":::::::::::::...---***....$$$$$$$$$$$$OOO....:::::::::::::::::::",
":::::::::::::...---***....$$$$$$$$$$$$OOO....:::::::::::::::::::",
":::::::::::::...---***....$$$$$$$$$$$$OOO....:::::::::::::::::::",
"::::::::::::::::................OOOOOOOOO....:::::::::::::::::::",
"::::::::::::::::................OOOOOOOOO....:::::::::::::::::::",
"::::::::::::::::................OOOOOOOOO....:::::::::::::::::::",
"::::::::::::::::................OOOOOOOOO....:::::::::::::::::::",
"::::::::::::::::::::::::::::::::...oooooo....:::::::::::::::::::",
"::::::::::::::::::::::::::::::::...oooooo....:::::::::::::::::::",
"::::::::::::::::::::::::::::::::...oooooo....:::::::::::::::::::",
"::::::::::::::::::::::::::::::::...@@@@@@....:::::::::::::::::::",
"::::::::::::::::::::::::::::::::...@@@@@@....:::::::::::::::::::",
"::::::::::::::::::::::::::::::::...@@@@@@....:::::::::::::::::::"
};
