/* XPM */
static char *result[] = {
/* columns rows colors chars-per-pixel */
"64 64 15 1 ",
"  c black",
". c #040404",
"X c #1E1E1E",
"o c #3F3013",
"O c gray21",
"+ c #422200",
"@ c #5D4717",
"# c #7C5500",
"$ c #4D4C4B",
"% c #7D7B76",
"& c #D97F40",
"* c #C6A900",
"= c #F6A954",
"- c #A29E96",
"; c None",
/* pixels */
";;;;;;;;;;;;;;;;;;;;;;;;;;;;;       ;;;;;;;;;;;;;;;;;;;;;;;;;;;;",
";;;;;;;;;;;;;;;;;;;;;;;;;;;;;       ;;;;;;;;;;;;;;;;;;;;;;;;;;;;",
";;;;;;;;;;;;;;;;;;;;;;;;;;;;;       ;;;;;;;;;;;;;;;;;;;;;;;;;;;;",
";;;;;;;;;;;;;;;;;;;;;;;;;;   *******   ;;;;;;;;;;;;;;;;;;;;;;;;;",
";;;;;;;;;;;;;;;;;;;;;;;;;;   *******   ;;;;;;;;;;;;;;;;;;;;;;;;;",
";;;;;;;;;;;;;;;;;;;;;;;;;;   *******   ;;;;;;;;;;;;;;;;;;;;;;;;;",
";;;;;;;;;;;;;;;;;;;;;;;   ###*******###   ;;;;;;;;;;;;;;;;;;;;;;",
";;;;;;;;;;;;;;;;;;;;;;;   ###*******###   ;;;;;;;;;;;;;;;;;;;;;;",
";;;;;;;;;;;;;;;;;;;;;;;   ###*******###   ;;;;;;;;;;;;;;;;;;;;;;",
";;;;;;;;;;;;;;;;;;;;;;;   #############   ;;;;;;;;;;;;;;;;;;;;;;",
";;;;;;;;;;;;;;;;;;;;;;;   #############   ;;;;;;;;;;;;;;;;;;;;;;",
";;;;;;;;;;;;;;;;;;;;;;;   #############   ;;;;;;;;;;;;;;;;;;;;;;",
";;;;;;;;;;;;;;;;;;;;;;;   +++#######+++   ;;;;;;;;;;;;;;;;;;;;;;",
";;;;;;;;;;;;;;;;;;;;;;;   +++#######+++   ;;;;;;;;;;;;;;;;;;;;;;",
";;;;;;;;;;;;;;;;;;;;;;;   +++#######+++   ;;;;;;;;;;;;;;;;;;;;;;",
";;;;;;;;;;;;;;;;;;;;;;;   +++#######+++   ;;;;;;;;;;;;;;;;;;;;;;",
";;;;;;;;;;;;;;;;;;;;   XXX+++++++++++++XXX    ;;;;;;;;;;;;;;;;;;",
";;;;;;;;;;;;;;;;;;;;   XXX+++++++++++++XXX    ;;;;;;;;;;;;;;;;;;",
";;;;;;;;;;;;;;;;;;;;   XXX+++++++++++++XXX    ;;;;;;;;;;;;;;;;;;",
";;;;;;;;;;;;;;;;    XXXOOO$$$+++++++$$$OOOXXXX   ;;;;;;;;;;;;;;;",
";;;;;;;;;;;;;;;;    XXXOOO$$$+++++++$$$OOOXXXX   ;;;;;;;;;;;;;;;",
";;;;;;;;;;;;;;;;    XXXOOO$$$+++++++$$$OOOXXXX   ;;;;;;;;;;;;;;;",
";;;;;;;;;;;;;   XXXXOOO$$$$$$-------$$$$$$OOOOXXX   ;;;;;;;;;;;;",
";;;;;;;;;;;;;   XXXXOOO$$$$$$-------$$$$$$OOOOXXX   ;;;;;;;;;;;;",
";;;;;;;;;;;;;   XXXXOOO$$$$$$-------$$$$$$OOOOXXX   ;;;;;;;;;;;;",
";;;;;;;;;;;;;   %%%%%%%OOO$$$%%%%%%%$$$OOO%%%%%%%   ;;;;;;;;;;;;",
";;;;;;;;;;;;;   %%%%%%%OOO$$$%%%%%%%$$$OOO%%%%%%%   ;;;;;;;;;;;;",
";;;;;;;;;;;;;   %%%%%%%OOO$$$%%%%%%%$$$OOO%%%%%%%   ;;;;;;;;;;;;",
";;;;;;;;;;;;;   %%%%%%%OOO$$$%%%%%%%$$$OOO%%%%%%%   ;;;;;;;;;;;;",
";;;;;;;;;;;;;   $$$$%%%%%%-------------%%%%%%%$$$   ;;;;;;;;;;;;",
";;;;;;;;;;;;;   $$$$%%%%%%-------------%%%%%%%$$$   ;;;;;;;;;;;;",
";;;;;;;;;;;;;   $$$$%%%%%%-------------%%%%%%%$$$   ;;;;;;;;;;;;",
";;;;;;;;;;;;;   XXXX$$$%%%%%%-------%%%%%%$$$$XXX   ;;;;;;;;;;;;",
";;;;;;;;;;;;;   XXXX$$$%%%%%%-------%%%%%%$$$$XXX   ;;;;;;;;;;;;",
";;;;;;;;;;;;;   XXXX$$$%%%%%%-------%%%%%%$$$$XXX   ;;;;;;;;;;;;",
";;;;;;;;;;;;;;;;    XXXOOOOOO$$$$$$$OOOOOOXXXX   ;;;;;;;;;;;;;;;",
";;;;;;;;;;;;;;;;    XXXOOOOOO$$$$$$$OOOOOOXXXX   ;;;;;;;;;;;;;;;",
";;;;;;;;;;;;;;;;    XXXOOOOOO$$$$$$$OOOOOOXXXX   ;;;;;;;;;;;;;;;",
";;;;;;;;;;;;;;;;    $$$$$$$$$$$$$$$$$$$$$$$$$$   ;;;;;;;;;;;;;;;",
";;;;;;;;;;;;;;;;    $$$$$$$$$$$$$$$$$$$$$$$$$$   ;;;;;;;;;;;;;;;",
";;;;;;;;;;;;;;;;    $$$$$$$$$$$$$$$$$$$$$$$$$$   ;;;;;;;;;;;;;;;",
";;;;;;;;;;;;;;;;....%%%OOO$$$$$$$$$$$$$OOO%%%%...;;;;;;;;;;;;;;;",
";;;;;;;;;;;;;;;;....%%%OOO$$$$$$$$$$$$$OOO%%%%...;;;;;;;;;;;;;;;",
";;;;;;;;;;;;;;;;....%%%OOO$$$$$$$$$$$$$OOO%%%%...;;;;;;;;;;;;;;;",
";;;;;;;;;;;;;;;;....%%%OOO$$$$$$$$$$$$$OOO%%%%...;;;;;;;;;;;;;;;",
";;;;;;;;;;;;;...%%%%%%%%%%%%%%%%%%%%%%%%%%%%%%%%%...;;;;;;;;;;;;",
";;;;;;;;;;;;;...%%%%%%%%%%%%%%%%%%%%%%%%%%%%%%%%%...;;;;;;;;;;;;",
";;;;;;;;;;;;;...%%%%%%%%%%%%%%%%%%%%%%%%%%%%%%%%%...;;;;;;;;;;;;",
";;;;;;;;;;...=======...$$$%%%%%%%%%%%%%$$$....======...;;;;;;;;;",
";;;;;;;;;;...=======...$$$%%%%%%%%%%%%%$$$....======...;;;;;;;;;",
";;;;;;;;;;...=======...$$$%%%%%%%%%%%%%$$$....======...;;;;;;;;;",
";;;;;;;;;;...===&&&&...$$$$$$$$$$$$$$$$$$$....&&&===...;;;;;;;;;",
";;;;;;;;;;...===&&&&...$$$$$$$$$$$$$$$$$$$....&&&===...;;;;;;;;;",
";;;;;;;;;;...===&&&&...$$$$$$$$$$$$$$$$$$$....&&&===...;;;;;;;;;",
";;;;;;;;;;;;;..........OOO$$$$$$$$$$$$$OOO..........;;;;;;;;;;;;",
";;;;;;;;;;;;;..........OOO$$$$$$$$$$$$$OOO..........;;;;;;;;;;;;",
";;;;;;;;;;;;;..........OOO$$$$$$$$$$$$$OOO..........;;;;;;;;;;;;",
";;;;;;;;;;;;;..........OOO$$$$$$$$$$$$$OOO..........;;;;;;;;;;;;",
";;;;;;;;;;;;;;;;;;;;...oooooo.......oooooo....;;;;;;;;;;;;;;;;;;",
";;;;;;;;;;;;;;;;;;;;...oooooo.......oooooo....;;;;;;;;;;;;;;;;;;",
";;;;;;;;;;;;;;;;;;;;...oooooo.......oooooo....;;;;;;;;;;;;;;;;;;",
";;;;;;;;;;;;;;;;;;;;...@@@@@@.......@@@@@@....;;;;;;;;;;;;;;;;;;",
";;;;;;;;;;;;;;;;;;;;...@@@@@@.......@@@@@@....;;;;;;;;;;;;;;;;;;",
";;;;;;;;;;;;;;;;;;;;...@@@@@@.......@@@@@@....;;;;;;;;;;;;;;;;;;"
};
