/* XPM */
static char *result[] = {
/* columns rows colors chars-per-pixel */
"64 64 182 2 ",
"   c #010101",
".  c #090603",
"X  c #0C0A04",
"o  c #0D0D08",
"O  c #120D06",
"+  c #190F08",
"@  c #180F08",
"#  c #131207",
"$  c #15140A",
"%  c #1C1309",
"&  c #1D1B0B",
"*  c #1C1C12",
"=  c #21160B",
"-  c #231C0C",
";  c #2C1D0E",
":  c #301F10",
">  c #26220E",
",  c #29250F",
"<  c #232316",
"1  c #2E2A12",
"2  c #2D2D1C",
"3  c #272819",
"4  c #332211",
"5  c #392613",
"6  c #312D12",
"7  c #3D2914",
"8  c #363113",
"9  c #3B3615",
"0  c #3D3816",
"q  c #38351A",
"w  c #3B3B24",
"e  c #363622",
"r  c #432D16",
"t  c #413B17",
"y  c #4B3319",
"u  c #443D19",
"i  c #453217",
"p  c #51361A",
"a  c #563A1C",
"s  c #5B3D1E",
"d  c #4B451B",
"f  c #4F481C",
"g  c #534C1E",
"h  c #57421D",
"j  c #57501F",
"k  c #44432A",
"l  c #484628",
"z  c #504D2C",
"x  c #5B5221",
"c  c #4E4E30",
"v  c #535333",
"b  c #5D5D39",
"n  c #644421",
"m  c #6C4924",
"M  c #724D26",
"N  c #615522",
"B  c #645C24",
"V  c #685F26",
"C  c #7D5429",
"Z  c #785127",
"A  c #6A6126",
"S  c #6F6428",
"D  c #716729",
"F  c #756A2A",
"G  c #796F2C",
"H  c #7D722D",
"J  c #64633D",
"K  c #6D6D43",
"L  c #686740",
"P  c #706F45",
"I  c #737246",
"U  c #78774A",
"Y  c #7D7C4C",
"T  c #757448",
"R  c #81572B",
"E  c #855A2C",
"W  c #8B5D2D",
"Q  c #8E612F",
"!  c #81762F",
"~  c #84782F",
"^  c #946431",
"/  c #9B6A33",
"(  c #847830",
")  c #8A7E32",
"_  c #9F7636",
"`  c #A36E35",
"'  c #A67037",
"]  c #AB7438",
"[  c #A87137",
"{  c #B3793B",
"}  c #B87C3D",
"|  c #B0773A",
" . c #8D8133",
".. c #918534",
"X. c #968936",
"o. c #998B37",
"O. c #9B8E38",
"+. c #9E9039",
"@. c #BD813F",
"#. c #A3943B",
"$. c #A7983C",
"%. c #AA9B3D",
"&. c #B0A03F",
"*. c #C0823F",
"=. c #83824F",
"-. c #848351",
";. c #8C8B55",
":. c #908F57",
">. c #979458",
",. c #BF8C40",
"<. c #AFA040",
"1. c #B4A441",
"2. c #BBAB44",
"3. c #B8A742",
"4. c #9F9E62",
"5. c #A09F62",
"6. c #A5A465",
"7. c #ACAB69",
"8. c #A9A767",
"9. c #B4B36E",
"0. c #BCBA73",
"q. c #B8B670",
"w. c #C28440",
"e. c #C88742",
"r. c #CC8A43",
"t. c #D28E45",
"y. c #C39142",
"u. c #D69147",
"i. c #D89247",
"p. c #DD9549",
"a. c #D39D48",
"s. c #E59B4B",
"d. c #EA9E4D",
"f. c #C1AF45",
"g. c #C3B246",
"h. c #C7B548",
"j. c #C8B648",
"k. c #CDBA4A",
"l. c #D1BE4C",
"z. c #EAA34E",
"x. c #E5A64D",
"c. c #E8B24F",
"v. c #EDAE50",
"b. c #EAB851",
"n. c #F1B953",
"m. c #C1BE73",
"M. c #D6C34D",
"N. c #D9C64F",
"B. c #DCC84F",
"V. c #DDCA50",
"C. c #E2CE51",
"Z. c #E9C452",
"A. c #F5C555",
"S. c #F9CC57",
"D. c #E6D153",
"F. c #E9D555",
"G. c #EDD956",
"H. c #F0DB57",
"J. c #FBD459",
"K. c #F4DE58",
"L. c #FCDC59",
"P. c #F6D257",
"I. c #F6E159",
"U. c #FCE55B",
"Y. c #FFE95C",
"T. c #CCCB7D",
"R. c #D0CE7F",
"E. c #DAD57B",
"W. c #D5D383",
"Q. c #D9D784",
"!. c #DAD984",
"~. c #DFDD89",
"^. c #E6E48D",
"/. c #E8E68B",
"(. c #ECEA91",
"). c #F0EE93",
"_. c #F5F396",
"`. c #F7F799",
"'. c #FFFE9D",
"]. c #F9F798",
"[. c #FFFFA1",
"{. c None",
/* pixels */
"{.{.{.{.{.{.{.{.{.{.{.{.{.{.{.{.{.{.{.{.{.{.{.{.{.{.{.{.{.{.{.{.{.{.{.{.{.{.{.{.{.{.{.{.{.{.{.{.{.{.{.{.{.{.{.{.{.{.{.{.{.{.{.{.",
"{.{.{.{.{.{.{.{.{.{.{.{.{.{.{.{.{.{.{.{.{.{.{.{.{.{.{.{.{.{.{.{.            {.{.{.{.{.{.{.{.{.{.{.{.{.{.{.{.{.{.{.{.{.{.{.{.{.{.",
"{.{.{.{.{.{.{.{.{.{.{.{.{.{.{.{.{.{.{.{.{.{.{.{.{.{.& .       # & 1 1 > $ X         {.{.{.{.{.{.{.{.{.{.{.{.{.{.{.{.{.{.{.{.{.{.",
"{.{.{.{.{.{.{.{.{.{.{.{.{.{.{.{.{.{.{.{.{.{.{.{.. . # 9 G +.2.k.D.F.F.D.l.f.$.F 8 X     {.{.{.{.{.{.{.{.{.{.{.{.{.{.{.{.{.{.{.{.",
"{.{.{.{.{.{.{.{.{.{.{.{.{.{.{.{.{.{.{.{.{.    # f O.M.I.Y.Y.Y.Y.Y.Y.Y.Y.Y.Y.Y.Y.H.2.B #     {.{.{.{.{.{.{.{.{.{.{.{.{.{.{.{.{.{.",
"{.{.{.{.{.{.{.{.{.{.{.{.{.{.{.{.{.{.{.    > H j.I.Y.Y.Y.Y.Y.Y.Y.Y.Y.Y.Y.Y.Y.Y.Y.Y.Y.Y.h.g .   {.{.{.{.{.{.{.{.{.{.{.{.{.{.{.{.{.",
"{.{.{.{.{.{.{.{.{.{.{.{.{.{.{.{.{.    > ( B.U.Y.Y.Y.Y.Y.Y.Y.Y.Y.Y.Y.Y.Y.Y.Y.Y.Y.Y.Y.Y.Y.I.O.&     {.{.{.{.{.{.{.{.{.{.{.{.{.{.{.",
"{.{.{.{.{.{.{.{.{.{.{.{.{.{.{.{.  # D N.Y.Y.Y.Y.Y.Y.Y.Y.Y.I.I.I.U.Y.Y.Y.Y.Y.Y.Y.Y.Y.Y.Y.Y.Y.g.9     {.{.{.{.{.{.{.{.{.{.{.{.{.{.",
"{.{.{.{.{.{.{.{.{.{.{.{.{.{.    0 3.U.Y.Y.Y.Y.Y.Y.G.j. .B u 9 9 d 3.Y.Y.U.Y.Y.Y.Y.Y.Y.Y.Y.Y.Y.B.d       {.{.{.{.{.{.{.{.{.{.{.{.",
"{.{.{.{.{.{.{.{.{.{.{.{.{.  X D D.Y.Y.Y.Y.Y.U.M.G 8 #   # 1 8 < o B U.Y.Y.Y.Y.Y.U.Y.Y.Y.U.Y.Y.Y.C.d       {.{.{.{.{.{.{.{.{.{.{.",
"{.{.{.{.{.{.{.{.{.{.{.{.  $ +.U.Y.Y.Y.Y.Y.M.B $ . 8 ! 3.M.G.I.F.M.F.Y.Y.Y.Y.Y.Y.Y.Y.U.Y.Y.Y.U.Y.Y.N.9       {.{.{.{.{.{.{.{.{.{.",
"{.{.{.{.{.{.{.{.{.{.{.  , 3.Y.Y.Y.Y.Y.F.H $ X j 3.G.Y.Y.Y.Y.Y.Y.Y.Y.Y.Y.Y.Y.U.Y.U.Y.Y.Y.Y.Y.Y.Y.Y.Y.2.&       {.{.{.{.{.{.{.{.{.",
"{.{.{.{.{.{.{.{.{.{.  1 k.Y.Y.Y.Y.Y.2.0   f 2.I.Y.Y.Y.Y.Y.Y.Y.Y.Y.Y.Y.Y.Y.Y.Y.Y.Y.Y.Y.Y.Y.Y.Y.Y.Y.Y.Y....     {.{.{.{.{.{.{.{.{.",
"{.{.{.{.{.{.{.{.{.  1 M.Y.Y.Y.Y.I. .# & O.I.Y.Y.Y.Y.Y.Y.Y.Y.Y.Y.Y.Y.Y.Y.Y.Y.Y.Y.Y.Y.U.Y.Y.Y.Y.Y.Y.Y.Y.I.g       {.{.{.{.{.{.{.{.",
"{.{.{.{.{.{.{.{.  & g.Y.Y.Y.Y.G.A   d M.Y.Y.Y.Y.Y.Y.Y.Y.Y.Y.Y.Y.Y.U.Y.Y.Y.Y.Y.Y.Y.Y.Y.Y.U.Y.Y.U.Y.Y.Y.Y.h.$ O O   {.{.{.{.{.{.{.",
"{.{.{.{.{.{.{.  # %.Y.Y.Y.Y.F.x   A C.Y.Y.Y.Y.Y.Y.Y.Y.Y.Y.Y.Y.V.! g G F.Y.Y.Y.Y.Y.U.Y.Y.Y.Y.Y.Y.Y.Y.Y.Y.U.B X y .   {.{.{.{.{.{.",
"{.{.{.{.{.{.{.  H Y.Y.Y.Y.G.x . G H.Y.Y.Y.Y.Y.Y.Y.Y.Y.Y.Y.Y.k.8   . . H Y.Y.Y.Y.Y.U.Y.Y.Y.Y.Y.Y.Y.Y.Y.Y.Y.g.# n y   {.{.{.{.{.{.",
"{.{.{.{.{.{.  t F.Y.Y.Y.K.A . H I.Y.Y.Y.Y.G.+.D X.N.Y.Y.Y.D.0 o -.0.w , V.Y.Y.Y.Y.Y.Y.Y.U.Y.Y.U.Y.Y.Y.Y.Y.U.d , ' +   {.{.{.{.{.",
"{.{.{.{.{.  o 3.Y.Y.Y.Y. .. D I.Y.Y.Y.Y.G.x . o . & X.U.Y.(   -.'.[.6.. 8 B A <.U.Y.U.Y.Y.Y.Y.Y.Y.Y.Y.Y.Y.Y...X { M   {.{.{.{.{.",
"{.{.{.{.{.  A U.Y.Y.Y.2.o u F.Y.Y.Y.Y.Y.+.. T T.8.2 X #.I.0 2 ^.'.'.^.l o * . o &.Y.Y.Y.Y.Y.Y.Y.Y.Y.Y.Y.Y.Y.j.O W t.=   {.{.{.{.",
"{.{.{.{.  $ j.Y.Y.Y.F.0 X 2.Y.U.Y.Y.Y.Y.V $ !.[.'.T.< 1 2.& K '.'.'.'.^.W.!.6.$ g Y.Y.Y.Y.Y.Y.Y.Y.Y.Y.Y.Y.Y.H.6 n d.M   {.{.{.{.",
"{.{.{.{.  B Y.Y.Y.Y.H   A U.Y.Y.Y.Y.Y.I.0 2 (.'.'.'.;.  B # ;.[.'.'.'.[.'.'._.e 9 K.Y.Y.Y.Y.U.Y.Y.Y.U.Y.Y.Y.I.d 5 s.*.#   {.{.{.",
"{.{.{.  X 2.Y.Y.Y.N.& & M.Y.Y.Y.Y.Y.I.H   v `.'.'.'.!.& # . ;.'.'.'.'.'.'.'.W.$ N U.Y.Y.U.Y.Y.Y.Y.Y.Y.Y.Y.Y.Y.B + ] p.y   {.{.{.",
"{.{.{.  0 G.Y.Y.Y. .   .Y.Y.Y.Y.Y.K.D . k W.[.'.'.'.].z     =.[.'.'.'.'.'.`.K . &.Y.Y.Y.Y.Y.Y.Y.Y.U.Y.Y.Y.U.Y.V   X M Z   {.{.{.",
"{.{.{.   .Y.Y.Y.Y.D g G.Y.Y.Y.Y.Y.G $ -.(.'.'.'.'.'.'.Y     -.'.'.'.'.'.~.K X A I.Y.Y.Y.Y.Y.Y.Y.Y.Y.Y.Y.Y.Y.Y.B . % X y .   {.{.",
"{.{.  X 2.Y.Y.Y.Y.D.F.Y.Y.U.Y.Y.N.& U '.'.'.'.'.'.'.'.7.    :.[.'.^.8.J < . B F.Y.Y.Y.Y.Y.Y.Y.Y.Y.U.Y.Y.Y.Y.Y.A + ` :       {.{.",
"{.{.  1 F.Y.Y.Y.Y.Y.Y.Y.Y.Y.Y.Y.h.. I `.'.'.'.'.'.'.'.T.$ . q.'.4.2 .     . q D M.Y.Y.Y.Y.Y.Y.Y.Y.Y.Y.Y.Y.Y.Y.B = t.{ -     {.{.",
"{.{.  j U.Y.Y.Y.Y.Y.Y.Y.Y.Y.Y.Y.K.u . k L T Y =.4.!.'.`.K T _.4.o       $ 3 $   , k.Y.Y.Y.Y.Y.Y.U.Y.Y.Y.Y.Y.U.x : p.d.] %   {.{.",
"{.{.   .Y.Y.Y.Y.Y.Y.Y.U.Y.Y.Y.Y.Y.M.x *           < q.'.].'.'.K $ 2 b 6.W.^.W.-.o x U.Y.Y.Y.Y.Y.Y.Y.Y.Y.Y.Y.I.0 = r.d.s.r   {.{.",
"{.{.  $.Y.Y.Y.Y.Y.Y.Y.Y.Y.Y.Y.Y.Y.Y.G.X.0 >         J '.'.'.'.).~./.'.'.'.'.[._.e 1 H.Y.Y.Y.Y.U.Y.Y.Y.U.Y.Y.D.,   5 *.s.r   {.{.",
"{.  . 2.Y.Y.Y.Y.Y.Y.Y.Y.Y.Y.Y.Y.Y.M.d .   . * e w k q.'.'.'.'.'.'.'.'.'.'.'.[.Q.< h K.Y.U.Y.Y.Y.Y.U.Y.Y.Y.Y.g.O =   i t.7   {.{.",
"{.  . g.Y.Y.Y.Y.Y.Y.Y.Y.Y.U.Y.Y.M.1 . k :.0.W.).`.].'.'.^.U b :.`.'.'.'.'.'.E.k ; w.S.Y.Y.Y.Y.Y.Y.Y.Y.Y.U.Y.o.. / n   y -   {.{.",
"{.  o j.Y.Y.Y.Y.U.Y.Y.Y.Y.Y.Y.Y.B * 8.).'.'.'.'.'.'.'.^.v     . 8.'.'.'.'.m.1 4 *.n.L.Y.Y.Y.Y.Y.Y.Y.Y.Y.Y.Y.x % e.p.n X     {.{.",
"{.  X j.Y.Y.Y.Y.Y.Y.Y.Y.Y.Y.Y.M.& :.[.'.'.'.'.'.'.'.'.I     O X c `.'.'.].c @ ,.P.Y.Y.Y.Y.Y.Y.Y.Y.Y.Y.Y.Y.F.1 i s.d.s.R     {.{.",
"{.  . g.Y.Y.Y.Y.Y.Y.Y.U.Y.Y.Y.f.X >.'.'.'.'.'.'.'.'.~.3 O . ; 7 2 ^.[.'.`.w p A.Y.Y.Y.Y.Y.Y.Y.Y.U.Y.Y.Y.Y.3.. R d.s.d./   {.{.{.",
"{.  . g.Y.Y.Y.Y.Y.Y.Y.Y.Y.Y.Y.C., 0 E.'.'.'.'.'.'.'.>.  M 4 % n X 0.[.'._.w C S.Y.Y.Y.Y.Y.Y.N.l.Y.Y.Y.Y.Y.A   4 ] d.d.h   {.{.{.",
"{.  . &.Y.Y.Y.Y.Y.Y.Y.Y.Y.Y.Y.Y.O.O 1 =.(.'.'.'.'._.l % *.i @ ^ O v ~.^.=.o _ U.Y.Y.Y.Y.Y.G.9 d K.Y.Y.Y.D., % X % ` s.5   {.{.{.",
"{.{.  X.Y.Y.Y.Y.U.Y.Y.Y.Y.Y.U.Y.Y.2.g . -.'.'.'.'.9.o M v.N O *.n   < < . s Z.Y.Y.Y.Y.Y.Y.+.  A U.Y.Y.Y. .. / R . = R O   {.{.{.",
"{.{.  S Y.Y.Y.Y.Y.Y.U.Y.U.Y.Y.Y.Y.Y.F.8 k `.'.'.~.w = w.A.A @ a.Z.Q y p / Z.Y.Y.Y.Y.Y.Y.I.f X 3.Y.Y.Y.F.8 4 i.s.M . X   {.{.{.{.",
"{.{.  9 H.Y.Y.Y.U.Y.Y.Y.Y.Y.Y.Y.Y.Y.Y.x * W._.m.k O ^ v.L.j ; x.Y.P.A.A.L.Y.Y.Y.Y.Y.Y.Y.&.o B U.Y.Y.Y.... Q z.s.s.E .   {.{.{.{.",
"{.{.  # j.Y.Y.Y.U.Y.Y.Y.Y.U.Y.U.Y.Y.Y...  3 w # O W z.P.I.0 r c.Y.Y.Y.Y.Y.Y.Y.Y.Y.Y.Y.B.6 , M.Y.Y.Y.C.1 % r.d.s.d.' . {.{.{.{.{.",
"{.{.{.  O.Y.Y.Y.Y.Y.Y.Y.Y.Y.Y.Y.Y.Y.Y.H.o.i 4 s { z.P.Y.B.& m A.Y.Y.Y.Y.Y.Y.Y.Y.Y.Y.F.g X %.Y.Y.Y.Y.G   . a u.d.s.a   {.{.{.{.{.",
"{.{.{.  d I.Y.Y.Y.Y.Y.Y.Y.Y.U.Y.Y.Y.Y.Y.Y.P.c.v.A.L.Y.Y.#.  ^ S.Y.Y.Y.Y.Y.Y.Y.Y.Y.F.j . H U.Y.Y.Y.3.# y 5   y u.} O   {.{.{.{.{.",
"{.{.{.  # g.Y.Y.Y.Y.U.Y.Y.Y.Y.Y.Y.Y.Y.Y.Y.Y.Y.U.Y.Y.Y.K.d X @.L.Y.Y.Y.Y.Y.Y.Y.Y.C.f   A G.Y.Y.Y.D.8 = e.r.r   5 7   {.{.{.{.{.{.",
"{.{.{.{.  B Y.Y.Y.Y.U.Y.Y.Y.Y.Y.U.Y.Y.Y.Y.Y.Y.Y.Y.Y.Y.k.O 9 x.U.Y.Y.Y.Y.Y.Y.Y.2.8   D G.Y.Y.Y.I.B X / d.d.u.M O     {.{.{.{.{.{.",
"{.{.{.{.  # g.Y.Y.Y.Y.Y.Y.U.Y.Y.Y.Y.Y.Y.Y.Y.Y.Y.Y.Y.L.y.7 ' S.Y.Y.Y.Y.Y.Y.G.! # o  .K.Y.Y.Y.Y.!   $ { d.s.d.i.5   {.{.{.{.{.{.{.",
"{.{.{.{.{.  g I.Y.Y.Y.Y.Y.Y.Y.Y.Y.Y.Y.Y.Y.Y.Y.Y.Y.Y.Y.n.x.b.U.Y.Y.Y.Y.U.&.u   8 &.Y.Y.Y.Y.U. .# ; . = ` d.d.R     {.{.{.{.{.{.{.",
"{.{.{.{.{.  . O.Y.Y.Y.Y.U.Y.U.Y.Y.Y.Y.Y.Y.Y.Y.Y.Y.Y.Y.Y.L.Y.Y.Y.Y.I.g.j O O F C.Y.Y.Y.Y.U. .o d r.E O O / ] %   {.{.{.{.{.{.{.{.",
"{.{.{.{.{.{.  - j.Y.Y.Y.Y.Y.Y.Y.Y.U.Y.Y.Y.Y.Y.Y.Y.Y.Y.Y.Y.Y.Y.D.$.f # X x g.U.Y.Y.U.Y.F.D . s t.d.s.` = O %   {.{.{.{.{.{.{.{.{.",
"{.{.{.{.{.{.{.  d F.Y.Y.Y.Y.Y.Y.Y.Y.Y.Y.Y.U.N.V.I.I.K.D.j.+.B ,   $ x 2.I.Y.Y.Y.Y.Y.g.u     n s.d.s.d.] O   {.{.{.{.{.{.{.{.{.{.",
"{.{.{.{.{.{.{.{.  x F.Y.Y.Y.Y.Y.Y.Y.Y.Y.Y.k.> & 9 9 9 - o   # t  .M.U.Y.Y.Y.U.Y.D.H # = ^ r . Q d.d.p.s     {.{.{.{.{.{.{.{.{.{.",
"{.{.{.{.{.{.{.{.    x D.Y.Y.Y.Y.Y.U.Y.Y.Y.D.) g 9 0 0 f H +.M.U.Y.Y.Y.Y.Y.Y.F.X.1 X s w.d.] O % } i.s     {.{.{.{.{.{.{.{.{.{.{.",
"{.{.{.{.{.{.{.{.{.    t j.Y.Y.Y.Y.Y.Y.Y.Y.Y.Y.U.I.I.I.Y.Y.Y.Y.Y.Y.Y.Y.Y.C.) 6     : r.d.s.s.C   4 r     {.{.{.{.{.{.{.{.{.{.{.{.",
"{.{.{.{.{.{.{.{.{.{.{.  -  .F.Y.Y.Y.Y.Y.Y.Y.Y.Y.Y.Y.Y.Y.Y.Y.Y.Y.Y.I.2.D >   : Q y   y t.d.d.i.r     {.{.{.{.{.{.{.{.{.{.{.{.{.{.",
"{.{.{.{.{.{.{.{.{.{.{.      8 ( g.F.I.Y.Y.Y.Y.Y.Y.Y.Y.Y.Y.U.F.2.! u o   + ^ i.z.r.y   y r.r.n O   {.{.{.{.{.{.{.{.{.{.{.{.{.{.{.",
"{.{.{.{.{.{.{.{.{.{.{.{.        X 1 0 x A H X.$.<.$.O.H A l 6 X . ; m , . E d.s.d.i.n . ; ;     {.{.{.{.{.{.{.{.{.{.{.{.{.{.{.{.",
"{.{.{.{.{.{.{.{.{.{.{.{.{.{.          X         .             s [ u.d.' O O [ d.d.r.M X     {.{.{.{.{.{.{.{.{.{.{.{.{.{.{.{.{.{.",
"{.{.{.{.{.{.{.{.{.{.{.{.{.{.{.    . s ` ] Q R ;   ; R ^ / r   7 r.s.s.d./ + % W n =     {.{.{.{.{.{.{.{.{.{.{.{.{.{.{.{.{.{.{.{.",
"{.{.{.{.{.{.{.{.{.{.{.{.{.{.{.{.{.  . ; n ] p.` O X W d.d.i.n X r *.s.p.} r         {.{.{.{.{.{.{.{.{.{.{.{.{.{.{.{.{.{.{.{.{.{.",
"{.{.{.{.{.{.{.{.{.{.{.{.{.{.{.{.{.{.      X ; p ;   O m r.i.e.a   = s 5 X       {.{.{.{.{.{.{.{.{.{.{.{.{.{.{.{.{.{.{.{.{.{.{.{.",
"{.{.{.{.{.{.{.{.{.{.{.{.{.{.{.{.{.{.{.{.{.              = ; % X           {.{.{.{.{.{.{.{.{.{.{.{.{.{.{.{.{.{.{.{.{.{.{.{.{.{.{.",
"{.{.{.{.{.{.{.{.{.{.{.{.{.{.{.{.{.{.{.{.{.{.{.{.{.{.{.          {.{.{.{.{.{.{.{.{.{.{.{.{.{.{.{.{.{.{.{.{.{.{.{.{.{.{.{.{.{.{.{.",
"{.{.{.{.{.{.{.{.{.{.{.{.{.{.{.{.{.{.{.{.{.{.{.{.{.{.{.{.{.{.{.{.{.{.{.{.{.{.{.{.{.{.{.{.{.{.{.{.{.{.{.{.{.{.{.{.{.{.{.{.{.{.{.{.",
"{.{.{.{.{.{.{.{.{.{.{.{.{.{.{.{.{.{.{.{.{.{.{.{.{.{.{.{.{.{.{.{.{.{.{.{.{.{.{.{.{.{.{.{.{.{.{.{.{.{.{.{.{.{.{.{.{.{.{.{.{.{.{.{."
};
