/* XPM */
static char *result[] = {
/* columns rows colors chars-per-pixel */
"64 64 7 1 ",
"  c #3F3656",
". c #397D40",
"X c #425B79",
"o c #52A548",
"O c #E4DB51",
"+ c #679189",
"@ c None",
/* pixels */
"@@@@@@@@@@@@@@@@@@@@@@@@@@@@@@@@@@@@@@@@@@@@@@@@@@@@@@@@@@@@@@@@",
"@@@@@@@@@@@@@@@@@@@@@@@@@@@@@@@@@@@@@@@@@@@@@@@@@@@@@@@@@@@@@@@@",
"@@@@@@@@@@@@@@@@@@@@@@@@@@@@@@@@@@@@@@@@@@@@@@@@@@@@@@@@@@@@@@@@",
"@@@@@@@@@@@@@@@@@@@@@@@@@@@@@@@@@@@@@@@@@@@@@@@@@@@@@@@@@@@@@@@@",
"@@@@@@@@@@@@@@@@@@@@@@@@@@@@@@@@@@@@@@@@@@@@@@@@@@@@@@@@@@@@@@@@",
"@@@@@@@@@@@@@@@@@@@@@@@@@@@@@@@@@@@@@@@@@@@@@@@@@@@@@@@@@@@@@@@@",
"@@@@@@@@@@@@@@@@@@@@@@@@@@@@@@@@@@@@@@@@@@@@@@@@@@@@@@@@@@@@@@@@",
"@@@@@@@@@@@@@@@@@@@@@@@@@@@@@@@@@@@@@@@@@@@@@@@@@@@@@@@@@@@@@@@@",
"@@@@@@@@@@@@@@@@@@@@@@@@@@@@@@@@@@@@@@@@@@@@@@@@@@@@@@@@@@@@@@@@",
"@@@@@@@@@@@@@@@@@@@@@@@@@@@@@@@@@@@@@@@@@@@@@@@@@@@@@@@@@@@@@@@@",
"@@@@@@@@@@@@@@@@@@@@@@@@@@@@@@@@@@@@@@@@@@@@@@@@@@@@@@@@@@@@@@@@",
"@@@@@@@@@@@@@@@@@@@@@@@@@@@@@@@@@@@@@@@@@@@@@@@@@@@@@@@@@@@@@@@@",
"@@@@@@@@@@@@@@@@@@@@@@@@@@@@@@@@@@@@@@@@@@@@@@@@@@@@@@@@@@@@@@@@",
"@@@@@@@@@@@@@@@@@@@@@@@@@@@@@@@@@@@@@@@@@@@@@@@@@@@@@@@@@@@@@@@@",
"@@@@@@@@@@@@@@@@@@@@@@@@@@@@@@@@@@@@@@@@@@@@@@@@@@@@@@@@@@@@@@@@",
"@@@@@@@@@@@@@@@@@@@@@@@@@@@@@@@@@@@@@@@@@@@@@@@@@@@@@@@@@@@@@@@@",
"@@@@@@@@@@@@@@@@@@@@@@@.....ooooooooo......@@@@@@@@@@@@@@@@@@@@@",
"@@@@@@@@@@@@@@@@@@@@@@@.....ooooooooo......@@@@@@@@@@@@@@@@@@@@@",
"@@@@@@@@@@@@@@@@@@@@@@@.....ooooooooo......@@@@@@@@@@@@@@@@@@@@@",
"@@@@@@@@@@@@@@@@@@@@@@@.....ooooooooo......@@@@@@@@@@@@@@@@@@@@@",
"@@@@@@@@@@@@@@@@@@@XXXXoooooOOOOoooooooooooXXXX@@@@@@@@@@@@@@@@@",
"@@@@@@@@@@@@@@@@@@@XXXXoooooOOOOoooooooooooXXXX@@@@@@@@@@@@@@@@@",
"@@@@@@@@@@@@@@@@@@@XXXXoooooOOOOoooooooooooXXXX@@@@@@@@@@@@@@@@@",
"@@@@@@@@@@@@@@@@@@@XXXXoooooOOOOoooooooooooXXXX@@@@@@@@@@@@@@@@@",
"@@@@@@@@@@@@@@@@@@@XXXXoooooOOOOoooooooooooXXXX@@@@@@@@@@@@@@@@@",
"@@@@@@@@@@@@@@@XXXX....oooooooooooooooooooo....XXXX@@@@@@@@@@@@@",
"@@@@@@@@@@@@@@@XXXX....oooooooooooooooooooo....XXXX@@@@@@@@@@@@@",
"@@@@@@@@@@@@@@@XXXX....oooooooooooooooooooo....XXXX@@@@@@@@@@@@@",
"@@@@@@@@@@+++++XXXX.........ooooooooo..........XXXX++++@@@@@@@@@",
"@@@@@@@@@@+++++XXXX.........ooooooooo..........XXXX++++@@@@@@@@@",
"@@@@@@@@@@+++++XXXX.........ooooooooo..........XXXX++++@@@@@@@@@",
"@@@@@@@@@@+++++XXXX.........ooooooooo..........XXXX++++@@@@@@@@@",
"@@@@@@@@@@+++++XXXX.........ooooooooo..........XXXX++++@@@@@@@@@",
"@@@@@@@@@@XXXXXXXXX............................XXXXXXXX@@@@@@@@@",
"@@@@@@@@@@XXXXXXXXX............................XXXXXXXX@@@@@@@@@",
"@@@@@@@@@@XXXXXXXXX............................XXXXXXXX@@@@@@@@@",
"@@@@@@@@@@XXXXXXXXX............................XXXXXXXX@@@@@@@@@",
"@@@@@@@@@@XXXXXXXXX............................XXXXXXXX@@@@@@@@@",
"@@@@@@@@@@     XXXXXXXX....................XXXXXXXX    @@@@@@@@@",
"@@@@@@@@@@     XXXXXXXX....................XXXXXXXX    @@@@@@@@@",
"@@@@@@@@@@     XXXXXXXX....................XXXXXXXX    @@@@@@@@@",
"@@@@@@@@@@     XXXXXXXX....................XXXXXXXX    @@@@@@@@@",
"@@@@@@@@@@XXXXX    XXXXXXXXXXXXXXXXXXXXXXXXXXXX    XXXX@@@@@@@@@",
"@@@@@@@@@@XXXXX    XXXXXXXXXXXXXXXXXXXXXXXXXXXX    XXXX@@@@@@@@@",
"@@@@@@@@@@XXXXX    XXXXXXXXXXXXXXXXXXXXXXXXXXXX    XXXX@@@@@@@@@",
"@@@@@@@@@@XXXXX    XXXXXXXXXXXXXXXXXXXXXXXXXXXX    XXXX@@@@@@@@@",
"@@@@@@@@@@XXXXX    XXXXXXXXXXXXXXXXXXXXXXXXXXXX    XXXX@@@@@@@@@",
"@@@@@@@@@@+++++                                    ++++@@@@@@@@@",
"@@@@@@@@@@+++++                                    ++++@@@@@@@@@",
"@@@@@@@@@@+++++                                    ++++@@@@@@@@@",
"@@@@@@@@@@+++++                                    ++++@@@@@@@@@",
"@@@@@@@@@@+++++++++XXXX                    XXXX+++++++@@@@@@@@@@",
"@@@@@@@@@@@@@@@++++XXXX                    XXXX++++@@@@@@@@@@@@@",
"@@@@@@@@@@@@@@@++++XXXX                    XXXX++++@@@@@@@@@@@@@",
"@@@@@@@@@@@@@@@++++XXXX                    XXXX++++@@@@@@@@@@@@@",
"@@@@@@@@@@@@@@@++++XXXX                    XXXX++++@@@@@@@@@@@@@",
"@@@@@@@@@@@@@@@@@@@@@@@@@@@@@@@@@@@@@@@@@@@@@@@@@@@@@@@@@@@@@@@@",
"@@@@@@@@@@@@@@@@@@@@@@@@@@@@@@@@@@@@@@@@@@@@@@@@@@@@@@@@@@@@@@@@",
"@@@@@@@@@@@@@@@@@@@@@@@@@@@@@@@@@@@@@@@@@@@@@@@@@@@@@@@@@@@@@@@@",
"@@@@@@@@@@@@@@@@@@@@@@@@@@@@@@@@@@@@@@@@@@@@@@@@@@@@@@@@@@@@@@@@",
"@@@@@@@@@@@@@@@@@@@@@@@@@@@@@@@@@@@@@@@@@@@@@@@@@@@@@@@@@@@@@@@@",
"@@@@@@@@@@@@@@@@@@@@@@@@@@@@@@@@@@@@@@@@@@@@@@@@@@@@@@@@@@@@@@@@",
"@@@@@@@@@@@@@@@@@@@@@@@@@@@@@@@@@@@@@@@@@@@@@@@@@@@@@@@@@@@@@@@@",
"@@@@@@@@@@@@@@@@@@@@@@@@@@@@@@@@@@@@@@@@@@@@@@@@@@@@@@@@@@@@@@@@"
};
