/* XPM */
static char *result[] = {
/* columns rows colors chars-per-pixel */
"64 64 208 2 ",
"   c #33323D",
".  c #363C45",
"X  c #413E41",
"o  c #334542",
"O  c #344C44",
"+  c #374949",
"@  c #335446",
"#  c #3E5344",
"$  c #3B5A47",
"%  c #3B5F48",
"&  c #355847",
"*  c #2F4D54",
"=  c #32624A",
"-  c #326C4D",
";  c #3E6248",
":  c #33724E",
">  c #3B774E",
",  c #327B51",
"<  c #3D7951",
"1  c #2D5D62",
"2  c #3A6667",
"3  c #485849",
"4  c #565449",
"5  c #5E594B",
"6  c #5C5549",
"7  c #535E50",
"8  c #585754",
"9  c #625B4C",
"0  c #635749",
"q  c #625D51",
"w  c #605F59",
"e  c #57644C",
"r  c #566958",
"t  c #577954",
"y  c #476D4A",
"u  c #636057",
"i  c #64625B",
"p  c #6E6450",
"a  c #677351",
"s  c #797354",
"d  c #7C7957",
"f  c #6C644F",
"g  c #7D7D61",
"h  c #7C7F6C",
"j  c #877A58",
"k  c #877C61",
"l  c #328052",
"z  c #3D8554",
"x  c #3C8C54",
"c  c #3E8758",
"v  c #4E834F",
"b  c #4B8A53",
"n  c #568C57",
"m  c #56875C",
"M  c #479956",
"N  c #4B9255",
"B  c #559753",
"V  c #559059",
"C  c #559857",
"Z  c #62955C",
"A  c #629B5D",
"S  c #6B9F5D",
"D  c #799D5F",
"F  c #709D59",
"G  c #4CA057",
"H  c #56A05F",
"J  c #55AB59",
"K  c #58AE59",
"L  c #59A156",
"P  c #5EB45A",
"I  c #61A658",
"U  c #61B95B",
"Y  c #6ABB5D",
"T  c #61B15C",
"R  c #7CBB5F",
"E  c #76B45E",
"W  c #70AD5D",
"Q  c #579562",
"!  c #579961",
"~  c #7F826C",
"^  c #639B64",
"/  c #639C6B",
"(  c #7E9D6A",
")  c #5BA361",
"_  c #6AA662",
"`  c #7CA869",
"'  c #6DBB63",
"]  c #7BBE60",
"[  c #76B466",
"{  c #7CA676",
"}  c #74C265",
"|  c #7DC467",
" . c #7DC46C",
".. c #9E975D",
"X. c #9C8F5E",
"o. c #AB905C",
"O. c #9C9E62",
"+. c #89866D",
"@. c #A39560",
"#. c #A89A62",
"$. c #86AA68",
"%. c #9EA762",
"&. c #86BC66",
"*. c #97B766",
"=. c #88AB70",
"-. c #89B377",
";. c #94B576",
":. c #9BB976",
">. c #A8A966",
",. c #A7AA67",
"<. c #BFAE69",
"1. c #B3AA66",
"2. c #A8B466",
"3. c #B0B367",
"4. c #B2B46B",
"5. c #B0BD65",
"6. c #C3A668",
"7. c #CEB46D",
"8. c #C3BE6F",
"9. c #C6B36C",
"0. c #C1B375",
"q. c #CBBC74",
"w. c #E3BF6C",
"e. c #85C264",
"r. c #86C66C",
"t. c #85CA6F",
"y. c #94C86B",
"u. c #86C672",
"i. c #95C170",
"p. c #92CE74",
"a. c #95CB7C",
"s. c #97C77B",
"d. c #9ED67D",
"f. c #99D073",
"g. c #B3C066",
"h. c #BFC26E",
"j. c #B2CB6C",
"k. c #A3C87A",
"l. c #A7D67E",
"z. c #B5DB7E",
"x. c #A7C06A",
"c. c #CECB72",
"v. c #C1C77A",
"b. c #CCC572",
"n. c #D4CB7B",
"m. c #CBD071",
"M. c #CCD57C",
"N. c #C5D477",
"B. c #D3CB75",
"V. c #F3C66E",
"C. c #E5CA76",
"Z. c #F3D37A",
"A. c #E3D67D",
"S. c #A19E81",
"D. c #A9A585",
"F. c #A1A885",
"G. c #ABB88A",
"H. c #C4BC8C",
"J. c #A7C587",
"K. c #B6C38D",
"L. c #A4D980",
"P. c #AFDE86",
"I. c #B7DA87",
"U. c #B4E189",
"Y. c #BFE083",
"T. c #D1C789",
"R. c #C5D080",
"E. c #C8D982",
"W. c #D3DB86",
"Q. c #C6C298",
"!. c #C4D191",
"~. c #C6D59D",
"^. c #D0DF94",
"/. c #D3DA9B",
"(. c #CDC891",
"). c #E8D985",
"_. c #F5DC88",
"`. c #F4DA87",
"'. c #F5DA92",
"]. c #E9D68F",
"[. c #D3E28C",
"{. c #D1E49F",
"}. c #D9E99C",
"|. c #C4E38B",
" X c #E7E68D",
".X c #F6EC91",
"XX c #F6E793",
"oX c #F6F499",
"OX c #F1E68E",
"+X c #D4E2A0",
"@X c #DCEDA2",
"#X c #F8EFA5",
"$X c #F6EAA5",
"%X c #ECF3A9",
"&X c #F7F2AA",
"*X c #F9F9B3",
"=X c #F7F5B0",
"-X c #EEECC7",
";X c #F7EBC4",
":X c #EFF4CF",
">X c #FAFAC2",
",X c #F4F5CD",
"<X c #FBFAD3",
"1X c #FCFCD9",
"2X c #F7FAD2",
"3X c #FDFDEC",
"4X c #FEFEF9",
"5X c None",
/* pixels */
"5X5X5X5X5X5X5X5X5X5X5X5X5X5X5X5X5X5X5X5X5X5X5X5X                5X5X5X5X5X5X5X5X5X5X5X5X5X5X5X5X5X5X5X5X5X5X5X5X5X5X5X5X5X5X5X5X",
"5X5X5X5X5X5X5X5X5X5X5X5X5X5X5X5X5X5X5X5X5X5X5X5Xw i i u 9 5 9 5 5X5X5X5X5X5X5X5X5X5X5X5X5X5X5X5X5X5X5X5X5X5X5X5X5X5X5X5X5X5X5X5X",
"5X5X5X5X5X5X5X5X5X5X5X5X5X5X5X5X5X5X5X5X5X5X  w D.Q.Q.H.0.9.<.@.5   5X5X5X5X5X5X5X5X5X5X5X5X5X5X5X5X5X5X5X5X5X5X5X5X5X5X5X5X5X5X",
"5X5X5X5X5X5X5X5X5X5X5X5X5X5X5X5X5X5X5X5X5X5Xw ~ K.{.{.[.N.m.m.5.d 5 5X5X5X5X5X5X5X5X5X5X5X5X5X5X5X5X5X5X5X5X5X5X5X5X5X5X5X5X5X5X",
"5X5X5X5X5X5X5X5X5X5X5X5X5X5X5X5X5X5X5X5X. w F.K.J. .t.t.r.| e.*.3.@.9 . 5X5X5X5X5X5X5X5X5X5X. . .                   5X5X5X5X5X5X",
"5X5X5X5X5X5X5X5X5X5X5X5X5X5X5X5X5X5X5X5Xw ~ K.U. .P U U U P U ] j.4.g 8 5X5X5X5X5X5X5X5X5X5X8 i w w 9 9 9 q w q 9 0 5X5X5X5X5X5X",
"5X5X5X5X5X5X5X5X5X5X5X5XV.V.5X5X5X5X. i D.G.J.} } U U U U U U Y ] :.K.D.8   5X5X5X5X5X5X  w D.Q.H.H.0.<.<.0.Q.H.6.o.6   5X5X5X5X",
"5X5X5X5X5X5X5X5X5X5X5X5XZ.Z.5X5X5X5X. i Q.+Xu.U P P U U U U U U P  .U.K.+.u 5X5X5X5X5X5Xr k G.~.~.~.v.q.h.h.!./.).7.j 5 5X5X5X5X",
"5X5X5X5X5X5X5X5X5X5X5X5X.X.X5X5X5X5X  w H.+Xu.U U U U U U U U U P } | a.G.D.i   5X5X  w F.G.{ / / ^ ^ C Z A ^ -.W.).q.@.5   5X5X",
"5X5X5X5X5X5X5X5X5X5X5X5X*X*X5X5X5X5X3 8 F.K.[ K P U U U U U U U U U P t.^.H.i   5X5X5 k G.G.Q l l l , z n Z ^ -.+X&XOXq.j 6 5X5X",
"5X5X5X5X5X5X5X5XV.Z..X*X1X1X*X.XZ.o.6 # m ! M M K U U U U U P P U U P e.M.0.9   . 5 @.>.` Q x l l , l n >.8.R.+X:X2X&X).7.o.0   ",
"5X5X5X5X5X5X5X5XV.Z..X*X1X-X/.n.C.7.k r < l , c G K P U P } } } } } } p.N.4.5 X 4 d 3.x.L x l l l l l n %.8.R.+X:X:X+XW.).6.9   ",
"5X5X5X5X5X5X5X5X5X5X5X5X*X/.+.j 7.).H.F.Q l l l x M K U U } p.d.l.d.d.L.I.:.7 4 X.>.*.] P G x l l l l c n Z ^ -.+X+X-.=.(.H.w . ",
"5X5X5X5X5X5X5X5X5X5X5X5X.XT.j s >.v.!.G.! l l l l x G P ' u.l.P.U.U.U.U.U.;.7 7 >.j.R U P K M x z l l , l l l ^ R.R.^ ^ !.H.q   ",
"5X5X5X5X5X5X5X5X5X5X5X5XZ.C.7.,.D ^ ! Q c l l l l l x G u.L.P.U.U.U.U.U.U.;.e 3 F R Y U P P P G x l l l l l , C 8.8.Z ^ v.0.q   ",
"5X5X5X5X5X5X5X5X5X5X5X5Xw.C.b.*.Q l l l l l l l l l x ) u.d.a.a.p.a.d.d.l.$.3 # b J K K P U P K x l l l l l l n ,.,.D D >.@.6   ",
"5X5X5X5X5X5X5X5X5X5X  f 7.b.$.n z , l , l l l l , x G P ' ' ) ! C ) Y } } A 3 O , x x G K U P K x l l l l l l x V D 2.,.s 6 5X5X",
"5X5X5X5X5X5X5X5X5X5X  q 0.h.Z c V ! c l l l l l x M K Y | [ N l l x M K P B # o - l l x G K P K M x l l l l l l , V %.@.5 . 5X5X",
"5X5X5X5X5X5X5X5X5X5X  u H.!./ ! k.k.! l l l l x M P P e.P.k.! l l l x M K B # o - l l l x G K P P G x l l l l l l > e 5 5X5X5X5X",
"5X5X5X5X5X5X5X5X5X5X  i Q.~./ ! k.J.` ^ C V N C E e.e.f.z.k.Q , l l l x G N ; @ : l l l l x K P P K x l x x x x x b e 5 5X5X5X5X",
"5X5X5X5X5X5X5X5X5X5X  i Q.~.! b Q ` J.R.q.,.W E 3.B.M.I.` ! x l l l l l x z : : , l l l l x J P U K x x G K K K K W ,...5   5X5X",
"5X5X5X5X5X5X5X5X5X5X  w H.!./ l l ^ N.XX'.W.k.k.W.'..XR.^ l , l l l l l l l l l l l l l l x G P ' ' ) C P U U U P ] j.3.d 5 5X5X",
"5X5X5X5X5X5X5X5X5X5X  q 0.v.^ , l Z 8._.;X,X}.}.-X;X'.8.C l l l l l l l l l l l l l l l l l x H u.d.a.u.' P P U U Y ] *.3.@.5   ",
"5X5X5X5X5X5X5X5X5X5X  q @.>.D n b n >.T.-X1X>X*X1X-XT.,.V l l l l l l l l l l l l l l l x x b H a.U.U.d.} ' U U U U U e.M.0.q   ",
"5X5X5X5X5X5X5X5X5X5X5X5X5 s ,.*.V z n =.{.*X1X1X>X/.=.V b , , l l l l l l l l l l l l x G J K ' d.U.U.d.} U U U U U U r.[.H.i . ",
"5X5X5X5X5X5X5X5X5X5X5X5X  5 @.O.t > m =./.>X1X1X>X+X=.m < - - - : : , l l l l l l l x M K U U } d.U.U.d.} U U U U U U u.{.Q.w   ",
"5X5X5X5X5X5X5X5X5X5X5X5X5X5X5 4 + e ..T.-X1X>X*X1X-XT...e o o o o @ : l l , l l l x G K P U U } d.U.U.d.} U U U U U U t.{.Q.w   ",
"5X5X5X5X5X5X5X5X5X5X5X5X5X5X5 5 3 a 9.'.;X,X%X%X;X;X'.9.a # # # + @ : , l l l l l x J U U U } t.L.U.U.d.| U U U U U U t.^.H.w   ",
"5X5X5X5X5X5X5X5X5X5X5X5X  5 #.>.F $.M..XOX].[.[.].'.OXM.` B C n > : , l l l l l l N J U P } p.L.U.U.U.d.} P U U U U U e.M.0.q   ",
"5X5X5X5X5X5X5X5X5X5X5X5X5 d 5.j.y.f.|.M.c.c.I.E.n.A.[.E.f.| T M x l l l l l l l l x M J C _ d.U.U.U.d.p.} P U U U U U e.M.0.9   ",
"5X5X5X5X5X5X5X5X5X5X  5 @.3.*.y.z.M.f.t.e.y.l.U.|.z.y.f.E.l.I x l l l l l l l l l l x z ; t :.U.U.L.t.} ' P U U U U U r.^.H.w   ",
"5X5X5X5X5X5X5X5X5X5Xw k 4.j.] | z.z.| Y R y.l.U.U.d.' ' l.s.Q < l l , , : , l x l l , , ; r ` ;.;.[ } U U U U U U '  .s.K.D.w   ",
"5X5X5X5X5X5X5X5X. r D.K.y.] Y Y | | Y R 5.m.I.U.P.L.) M ! ! x l l l l : @ % N M x l l x N n e 7 7 t L U U U U U U | I.K.~ w 5X5X",
"5X5X5X5X5X5X5X5X  i Q.{.t.U U U U U U e.c.A.|.P.L.u.! x l l l l l l l - o # B P M x l x K B y # O % v B B L [ e.e.:.K.D.r   5X5X",
"5X5X5X5X5X5X5X5X  w Q.+Xu.U U U U U U e.M. XY.L. .' P G x l l l l l l - o # B P P G x x J P L b > = $ # # a 2.c.m.3.~ u 5X5X5X5X",
"5X5X5X5X5X5X5X5X  w H.[.t.U P U R e.t.l.@X%X}.Y.i.] Y K M x l l l l l - o # B U P K x x J P U K N : @ + 4 s #.6.<...6   5X5X5X5X",
"5X5X5X5X5X5X5X5X  9 0.n.r.P U R g.c.[.}.2X2X%X[.B.5.R P K G x l l , l - o # B U P K x x K P P K x , : t O.#.s 0 9 9 5X5X5X5X5X5X",
"5X5X5X5X5X5X5X5X  0 @.4.;. .} R g.m.M.@X,X,X+XR.v.2.R U U K G x x x : = % y L Y ' ' ) ) P P P G x l l V *.,.g 8 X   5X5X5X5X5X5X",
"5X5X5X5X5X5X5X5X5X5X5 g K.I.r.Y R &.y.l.@X{.-.A Z A T U U P K K K N $ $ v L K } p.d.a.u.} J M x l l l z V ` G.S.8   5X5X5X5X5X5X",
"5X5X5X5X5X5X5X5X5X5X. 8 D.K.s.r.e.R P | E.M.A l l x M K P U U U U B # 3 I } } t.L.U.P.d.' G x l l l l l , ^ !.(.+.w 5X5X5X5X5X5X",
"5X5X5X5X5X5X5X5X5X5X5X5Xu ~ K.^.N.x.L S b.8.Z l l l x M ) P P U U B 3 3 $.d.d.l.P.U.U.p.H x l l l l l l , Z 0.].(.D.w   5X5X5X5X",
"5X5X5X5X5X5X5X5X5X5X5X5X  r D.H.0.,.D ` >.%.n l l l l x G K J J J b # 7 ;.U.U.U.U.P.L.u.H x l l l l l l l Z 8._.$XH.w   5X5X5X5X",
"5X5X5X5X5X5X5X5X5X5X5X5X5X5Xw i 9 s ,.2.D n z l l l l l x x x x x > o e ;.U.U.U.U.L.t.} P G x l l l l l l ^ M.XX=XH.i . 5X5X5X5X",
"5X5X5X5X5X5X5X5X5X5X5X5X5X5X      9 6.h.Z l , l l l l l l l l l : = $ t -.l.d.l.d.p.} P P K M x l l , b n $.^.oX$XH.i . 5X5X5X5X",
"5X5X5X5X5X5X5X5X5X5X5X5X5X5X5X5X  9 <.h.Z l l l l l l l l l , : @ $ v I Y } } } } } } P U P P G x l l V >.b. XXX`.6.9   5X5X5X5X",
"5X5X5X5X5X5X5X5X5X5X5X5X5X5X5X5X  9 <.h.Z l l l l l l l l c V t + # B U U U U U U P P U U U P J x z n $.b._.#X#X`.7.j 0 5X5X5X5X",
"5X5X5X5X5X5X5X5X5X5X5X5X5X5X5X5X  5 <.h.Z l l l l l , , l V *.O.6 # B U U U U U U U U U U U U J b n O.b.).#X<X2X#X`.7.6.5X5X5X5X",
"5X5X5X5X5X5X5X5X5X5X5X5X5X5X5X5X  5 @.>.D n x l l l l c Q ` ,.@.s a L U U U U U U U U U U U } R _ $.b.`.$X>X3X3X>X#X_.Z.5X5X5X5X",
"5X5X5X5X        5X5X5X5X5X5X5X5X5X5X5 s ,.*.V , , l l Q G.G.h s #.2.R U U U U U U U U U U R 5.c.E.[. X#X<X3X4X4X3X<X#X.XoX.XZ.V.",
"5X5X5X5X# 3 # # 5X5X5X5X5X5X5X5X5X5X  5 @.>.D ^ ^ / / { G.S.8 8 0.M.e.U U U U U U U U U U R g.b.M.W. X#X<X3X4X4X3X,X#X.XoX.XZ.V.",
"5X5X  3 v B B v #   5X5X5X5X5X5X5X5X5X5X0 d >.v.!.~.~.G.h 8 X r H.[.t.U U U U U U U U U U Y ] [ _ $.b._.#X>X3X3X>X#X_.Z.5X5X5X5X",
"5X5X  # B U U B #   5X5X5X5X5X5X5X5X5X5X  6 @.0.H.Q.Q.F.w . . i Q.{.t.P U U U U U U U U U Y  .[ t t O.7.).#X<X<X#X_.Z.V.5X5X5X5X",
"5X5X  # B U U B #   5X5X5X5X5X5X5X5X5X5X5X5X5 q w i i r 2 1 . w Q.{.u.P U U U U U U U U U  .I.G.r + 4 j 7.`.#X#X_.Z.5X5X5X5X5X5X",
"5X5X  # b K P B #   5X5X5X5X5X5X5X5X5X5X5X5X      . . * 1 1 + w D.K.i.| Y U U U U U U Y R i.K.D.u     9 6.Z..X.XZ.V.5X5X5X5X5X5X",
"5X5X  o > M P B #   5X5X5X5X5X5X5X5X5X5X5X5X5X5X  . 1 1 * . 5X5Xr d 4.j.] P U U U U U R g.1.g u 5X5X5X5X5X5XoXoX5X5X5X5X5X5X5X5X",
"5X5X  o = < M N % o 5X5X5X5X5X5X5X5X5X5X5X5X5X5Xo * 1 1 *   5X5X. 5 @.3.*.e.e.e.r.u.t.k.B.7.p   5X5X5X5X5X5X.X.X5X5X5X5X5X5X5X5X",
"5X5X5X5Xo & > z : = o   5X5X5X5X5X5X5X5X      o = = * + 5X5X5X5X5X5X5 d 3.m.m.N.^.+X+X}.OX].5X5X5X5X5X5X5X5XZ.Z.5X5X5X5X5X5X5X5X",
"5X5X5X5X  o = : , : @ o 5X5X5X5X5X5X5X5Xo o o O = & o   5X5X5X5X5X5X  9 @.9.6.q.].$X&X=X*X*X5X5X5X5X5X5X5X5XV.V.5X5X5X5X5X5X5X5X",
"5X5X5X5X5X5Xo @ : , : = o             o = - - = @ o 5X5X5X5X5X5X5X5X5X5X5 9 9 j 7.`.oX*X1X2X*X.XZ.V.5X5X5X5X5X5X5X5X5X5X5X5X5X5X",
"5X5X5X5X5X5X  o = - - = O o o o o o o @ = - - = o   5X5X5X5X5X5X5X5X5X5X      9 6.Z.XX*X1X1X*X.XZ.V.5X5X5X5X5X5X5X5X5X5X5X5X5X5X",
"5X5X5X5X5X5X5X5Xo o o @ = - - - - - - = O o o o 5X5X5X5X5X5X5X5X5X5X5X5X5X5X5X5X5X5X5X5X*X*X5X5X5X5X5X5X5X5X5X5X5X5X5X5X5X5X5X5X",
"5X5X5X5X5X5X5X5X      o = - - - - - - = o       5X5X5X5X5X5X5X5X5X5X5X5X5X5X5X5X5X5X5X5X.X.X5X5X5X5X5X5X5X5X5X5X5X5X5X5X5X5X5X5X",
"5X5X5X5X5X5X5X5X5X5X5X5Xo o o o o o o o 5X5X5X5X5X5X5X5X5X5X5X5X5X5X5X5X5X5X5X5X5X5X5X5XZ.Z.5X5X5X5X5X5X5X5X5X5X5X5X5X5X5X5X5X5X",
"5X5X5X5X5X5X5X5X5X5X5X5X                5X5X5X5X5X5X5X5X5X5X5X5X5X5X5X5X5X5X5X5X5X5X5X5XV.V.5X5X5X5X5X5X5X5X5X5X5X5X5X5X5X5X5X5X"
};
