/* XPM */
static char *result[] = {
/* columns rows colors chars-per-pixel */
"64 64 17 1 ",
"  c #302820",
". c #302921",
"X c #312922",
"o c #322A25",
"O c #322B26",
"+ c #342C29",
"@ c #352E2B",
"# c #362F2E",
"$ c #101060",
"% c #F86000",
"& c #289070",
"* c #68C078",
"= c #F8E028",
"- c #90D898",
"; c #A0F8A8",
": c #F8F8E0",
"> c None",
/* pixels */
">>>>>>>>>>>>>>>>>>>>>>>>$$$$>>>>>>>>>$$$$>>>>>>>>>>>>>>>>>>>>>>>",
">>>>>>>>>>>>>>>>>>>>>>>>$$$$>>>>>>>>>$$$$>>>>>>>>>>>>>>>>>>>>>>>",
">>>>>>>>>>>>>>>>>>>$$$$$>>>>>>>>>>>>>>>>>$$$$$>>>>>>>>>>>>>>>>>>",
">>>>>>>>>>>>>>>>>>>$$$$$>>>>>>>>>>>>>>>>>$$$$$>>>>>>>>>>>>>>>>>>",
">>>>>>>>>>>>>>>>>$$>>>>>$$>>>>>>>>>>>>>$$>>>>>$$>>>>>>>>>>>>>>>>",
">>>>>>>>>>>>>>>>>$$>>>>>$$>>>>>>>>>>>>>$$>>>>>$$>>>>>>>>>>>>>>>>",
">>>>>>>>>>>>>>>>>$$>>>>>$$>>>>>>>>>>>>>$$>>>>>$$>>>>>>>>>>>>>>>>",
">>>>>>>>>>>>>>>>>>>>>$$$>>>>>>>>>>>>>>>>>$$$>>>>>>>>>>>>>>>>>>>>",
">>>>>>>>>>>>>>>>>>>>>$$$>>>>>>>>>>>>>>>>>$$$>>>>>>>>>>>>>>>>>>>>",
">>>>>>>>>>>>>>>>>$$>>>>>$$>>>>>>>>>>>>>$$>>>>>$$>>>>>>>>>>>>>>>>",
">>>>>>>>>>>>>>>>>$$>>>>>$$>>>>>>>>>>>>>$$>>>>>$$>>>>>>>>>>>>>>>>",
">>>>>>>>>>>>>>>>>$$>>$$$>>$$>>>>>>>>>$$>>$$$>>$$>>>>>>>>>>>>>>>>",
">>>>>>>>>>>>>>>>>$$>>$$$>>$$>>>>>>>>>$$>>$$$>>$$>>>>>>>>>>>>>>>>",
">>>>>>>>>>>>>>>$$==$$>>>>>>>>>>>>>>>>>>>>>>>$$==$$>>>>>>>>>>>>>>",
">>>>>>>>>>>>>>>$$==$$>>>>>>>>>>>>>>>>>>>>>>>$$==$$>>>>>>>>>>>>>>",
">>>>>>>>>>>>>>>$$==$$>>>>>>>>>>>>>>>>>>>>>>>$$==$$>>>>>>>>>>>>>>",
">>>>>>>>>>>>>>>$$==$$>>>>>>>>>>>>>>>>>>>>>>>$$==$$>>>>>>>>>>>>>>",
">>>>>>>>>>>>>>>$$==$$>>>>>>>>>>>>>>>>>>>>>>>$$==$$>>>>>>>>>>>>>>",
">>>>>>>>>>>>>>>>>$$>>>>>>>>>>>>>>>>>>>>>>>>>>>$$>>>>>>>>>>>>>>>>",
">>>>>>>>>>>>>>>>>$$>>>>>>>>>>>>>>>>>>>>>>>>>>>$$>>>>>>>>>>>>>>>>",
">>>>>>>>>>>>>>>$$>>>>$$$$$>>$$$$$$$$$>>$$$$$>>>>$$>>>>>>>>>>>>>>",
">>>>>>>>>>>>>>>$$>>>>$$$$$>>$$$$$$$$$>>$$$$$>>>>$$>>>>>>>>>>>>>>",
">>>>>>>>>>>>>>>$$%%$$&&&$$>>$$-----$$>>$$&&&$$%%$$>>>>>>>>>>>>>>",
">>>>>>>>>>>>>>>$$%%$$&&&$$>>$$-----$$>>$$&&&$$%%$$>>>>>>>>>>>>>>",
">>>>>>>>>>>>>>>>>$$$$$$$>>>>>>$$$$$>>>>>>$$$$$$$>>>>>>>>>>>>>>>>",
">>>>>>>>>>>>>>>>>$$$$$$$>>>>>>$$$$$>>>>>>$$$$$$$>>>>>>>>>>>>>>>>",
">>>>>>>>>>>>>>>$$==$$>>>>>>>>>>>>>>>>>>>>>>>$$==$$>>>>>>>>>>>>>>",
">>>>>>>>>>>>>>>$$==$$>>>>>>>>>>>>>>>>>>>>>>>$$==$$>>>>>>>>>>>>>>",
">>>>>>>>>>>>>>>$$==$$>>>>>>>>>>>>>>>>>>>>>>>$$==$$>>>>>>>>>>>>>>",
">>>>>>>>>>>>>>>$$==$$$$$>>>>>>>>>>>>>>>>>$$$$$==$$>>>>>>>>>>>>>>",
">>>>>>>>>>>>>>>$$==$$$$$>>>>>>>>>>>>>>>>>$$$$$==$$>>>>>>>>>>>>>>",
">>>>>>>>>>>>>>>$$$$$$>>>$$>>>>>>>>>>>>>$$>>>$$$$$$>>>>>>>>>>>>>>",
">>>>>>>>>>>>>>>$$$$$$>>>$$>>>>>>>>>>>>>$$>>>$$$$$$>>>>>>>>>>>>>>",
">>>>>>>>>>>>>>>>>>>$$$$$>>>>>>>>>>>>>>>>>$$$$$>>>>>>>>>>>>>>>>>>",
">>>>>>>>>>>>>>>>>>>$$$$$>>>>>>>>>>>>>>>>>$$$$$>>>>>>>>>>>>>>>>>>",
">>>>>>>>>>>>>>>$$>>>>>>>$$>>>>>>>>>>>>>$$>>>>>>>$$>>>>>>>>>>>>>>",
">>>>>>>>>>>>>>>$$>>>>>>>$$>>>>>>>>>>>>>$$>>>>>>>$$>>>>>>>>>>>>>>",
">>>>>>>>>>>>>>>$$>>>>>>>$$>>>>>>>>>>>>>$$>>>>>>>$$>>>>>>>>>>>>>>",
">>>>>>>>>>>>>>>$$$$$$$$$>>>>>>>>>>>>>>>>>$$$$$$$$$>>>>>>>>>>>>>>",
">>>>>>>>>>>>>>>$$$$$$$$$>>>>>>>>>>>>>>>>>$$$$$$$$$>>>>>>>>>>>>>>",
">>>>>>>>>>>>>>>$$$$$$$$$$$>>>>>>>>>>>>>$$$$$$$$$$$>>>>>>>>>>>>>>",
">>>>>>>>>>>>>>>$$$$$$$$$$$>>>>>>>>>>>>>$$$$$$$$$$$>>>>>>>>>>>>>>",
">>>>>>>>>>>>>>>$$==::$$$::$$>>>>>>>>>$$::$$$::==$$>>>>>>>>>>>>>>",
">>>>>>>>>>>>>>>$$==::$$$::$$>>>>>>>>>$$::$$$::==$$>>>>>>>>>>>>>>",
">>>>>>>>>>>>>>>$$**$$%%%%%;;$$>>>>>$$;;%%%%%$$**$$>>>>>>>>>>>>>>",
">>>>>>>>>>>>>>>$$**$$%%%%%;;$$>>>>>$$;;%%%%%$$**$$>>>>>>>>>>>>>>",
">>>>>>>>>>>>>>>$$**$$$$$$$;;$$>>>>>$$;;$$$$$$$**$$>>>>>>>>>>>>>>",
">>>>>>>>>>>>>>>$$**$$$$$$$;;$$>>>>>$$;;$$$$$$$**$$>>>>>>>>>>>>>>",
">>>>>>>>>>>>>>>$$**$$$$$$$;;$$>>>>>$$;;$$$$$$$**$$>>>>>>>>>>>>>>",
">>>>>>>>>>>>>>>$$--$$>>>>>$$>>>>>>>>>$$>>>>>$$--$$>>>>>>>>>>>>>>",
">>>>>>>>>>>>>>>$$--$$>>>>>$$>>>>>>>>>$$>>>>>$$--$$>>>>>>>>>>>>>>",
">>>>>>>>$$>>>>>%%$$>>>>>>>             >>>>>>>$$%%>>>>>$$>>>>>>>",
">>>>>>>>$$>>>>>%%$$>>>>>>>             >>>>>>>$$%%>>>>>$$>>>>>>>",
">>>>>>$$==$$$$$==&&$$             .OOo      $$&&==$$$$$==$$>>>>>",
">>>>>>$$==$$$$$==&&$$             X@#+      $$&&==$$$$$==$$>>>>>",
">>>>>>$$=====&&&&$$               X@#+        $$&&&&=====$$>>>>>",
">>>>>>$$=====&&&&$$               .OOo        $$&&&&=====$$>>>>>",
">>>>>>$$*******$$>>                           >>$$*******$$>>>>>",
">>>>>>$$*******$$>>                           >>$$*******$$>>>>>",
">>>>>>$$*******$$>>                           >>$$*******$$>>>>>",
">>>>>>>>$$$$$$$>>>>>>                       >>>>>>$$$$$$$>>>>>>>",
">>>>>>>>$$$$$$$>>>>>>                       >>>>>>$$$$$$$>>>>>>>",
">>>>>>>>>>>>>>>>>>>>>>>>>>             >>>>>>>>>>>>>>>>>>>>>>>>>",
">>>>>>>>>>>>>>>>>>>>>>>>>>             >>>>>>>>>>>>>>>>>>>>>>>>>"
};
