/* XPM */
static char *result[] = {
/* columns rows colors chars-per-pixel */
"64 64 6 1 ",
"  c #2F283A",
". c #3F3656",
"X c #425B79",
"o c #679189",
"O c #91B09A",
"+ c None",
/* pixels */
"++++++++++++++++++++++++++++++++++++++++++++++++++++++++++++++++",
"++++++++++++++++++++++++++++++++++++++++++++++++++++++++++++++++",
"++++++++++++++++++++++++++++++++++++++++++++++++++++++++++++++++",
"++++++++++++++++++++++++++++++++++++++++++++++++++++++++++++++++",
"++++++++++++++++++++++++++++++++++++++++++++++++++++++++++++++++",
"++++++++++++++++++++++++++++++++++++++++++++++++++++++++++++++++",
"++++++++++++++++++++++++++++++++++++++++++++++++++++++++++++++++",
"++++++++++++++++++++++++++++++++++++++++++++++++++++++++++++++++",
"++++++++++++++++++++++++++++++++++++++++++++++++++++++++++++++++",
"++++++++++++++++++++++++++++++++++++++++++++++++++++++++++++++++",
"++++++++++++++++++++++++++++++++++++++++++++++++++++++++++++++++",
"++++++++++++++++++++++++++++++++++++++++++++++++++++++++++++++++",
"++++++++++++++++++++++++++++++++++++++++++++++++++++++++++++++++",
"++++++++++++++++++++++++++++++++++++++++++++++++++++++++++++++++",
"++++++++++++++++++++++++++++++++++++++++++++++++++++++++++++++++",
"++++++++++++++++++++++++++++++++++++++++++++++++++++++++++++++++",
"++++++++++++++++++++++++XXXXoooooooooXXXX+++++++++++++++++++++++",
"++++++++++++++++++++++++XXXXoooooooooXXXX+++++++++++++++++++++++",
"++++++++++++++++++++++++XXXXoooooooooXXXX+++++++++++++++++++++++",
"++++++++++++++++++++++++XXXXoooooooooXXXX+++++++++++++++++++++++",
"++++++++++++++++++++++++XXXXoooooooooXXXX+++++++++++++++++++++++",
"+++++++++++++++++++.....ooooOOOOooooooooo.....++++++++++++++++++",
"+++++++++++++++++++.....ooooOOOOooooooooo.....++++++++++++++++++",
"+++++++++++++++++++.....ooooOOOOooooooooo.....++++++++++++++++++",
"+++++++++++++++++++.....ooooOOOOooooooooo.....++++++++++++++++++",
"+++++++++++++++....XXXXXoooooooooooooooooXXXXX....++++++++++++++",
"+++++++++++++++....XXXXXoooooooooooooooooXXXXX....++++++++++++++",
"+++++++++++++++....XXXXXoooooooooooooooooXXXXX....++++++++++++++",
"+++++++++++++++....XXXXXoooooooooooooooooXXXXX....++++++++++++++",
"+++++++++++++++....XXXXXoooooooooooooooooXXXXX....++++++++++++++",
"++++++++++ooooo....XXXXXXXXXoooooooooXXXXXXXXX....oooo++++++++++",
"++++++++++ooooo....XXXXXXXXXoooooooooXXXXXXXXX....oooo++++++++++",
"++++++++++ooooo....XXXXXXXXXoooooooooXXXXXXXXX....oooo++++++++++",
"++++++++++ooooo....XXXXXXXXXoooooooooXXXXXXXXX....oooo++++++++++",
"++++++++++XXXXX....XXXXXXXXXXXXXXXXXXXXXXXXXXX....XXXX++++++++++",
"++++++++++XXXXX....XXXXXXXXXXXXXXXXXXXXXXXXXXX....XXXX++++++++++",
"++++++++++XXXXX....XXXXXXXXXXXXXXXXXXXXXXXXXXX....XXXX++++++++++",
"++++++++++XXXXX....XXXXXXXXXXXXXXXXXXXXXXXXXXX....XXXX++++++++++",
"++++++++++     .........XXXXXXXXXXXXXXXXX.........    ++++++++++",
"++++++++++     .........XXXXXXXXXXXXXXXXX.........    ++++++++++",
"++++++++++     .........XXXXXXXXXXXXXXXXX.........    ++++++++++",
"++++++++++     .........XXXXXXXXXXXXXXXXX.........    ++++++++++",
"++++++++++     .........XXXXXXXXXXXXXXXXX.........    ++++++++++",
"++++++++++XXXXX    ...........................    XXXX++++++++++",
"++++++++++XXXXX    ...........................    XXXX++++++++++",
"++++++++++XXXXX    ...........................    XXXX++++++++++",
"++++++++++XXXXX    ...........................    XXXX++++++++++",
"++++++++++ooooo                                   oooo++++++++++",
"++++++++++ooooo                                   oooo++++++++++",
"++++++++++ooooo                                   oooo++++++++++",
"++++++++++ooooo                                   oooo++++++++++",
"++++++++++ooooo                                   oooo++++++++++",
"+++++++++++++++ooooXXXXX                 XXXXXoooo++++++++++++++",
"+++++++++++++++ooooXXXXX                 XXXXXoooo++++++++++++++",
"+++++++++++++++ooooXXXXX                 XXXXXoooo++++++++++++++",
"+++++++++++++++ooooXXXXX                 XXXXXoooo++++++++++++++",
"++++++++++++++++++++++++++++++++++++++++++++++++++++++++++++++++",
"++++++++++++++++++++++++++++++++++++++++++++++++++++++++++++++++",
"++++++++++++++++++++++++++++++++++++++++++++++++++++++++++++++++",
"++++++++++++++++++++++++++++++++++++++++++++++++++++++++++++++++",
"++++++++++++++++++++++++++++++++++++++++++++++++++++++++++++++++",
"++++++++++++++++++++++++++++++++++++++++++++++++++++++++++++++++",
"++++++++++++++++++++++++++++++++++++++++++++++++++++++++++++++++",
"++++++++++++++++++++++++++++++++++++++++++++++++++++++++++++++++"
};
