/* XPM */
static char *result[] = {
/* columns rows colors chars-per-pixel */
"64 64 217 2 ",
"   c #1C121B",
".  c #1D141E",
"X  c #1F1825",
"o  c #1F1928",
"O  c #211822",
"+  c #2A2431",
"@  c #242338",
"#  c #2E2A38",
"$  c #2A283D",
"%  c #262841",
"&  c #2E3048",
"*  c #29304D",
"=  c #2A304E",
"-  c #2B304E",
";  c #313042",
":  c #31344E",
">  c #383649",
",  c #3C3C4F",
"<  c #2E3452",
"1  c #363B55",
"2  c #383A53",
"3  c #363C59",
"4  c #373D59",
"5  c #353C5B",
"6  c #373F5E",
"7  c #413C52",
"8  c #3C405A",
"9  c #39405F",
"0  c #3C4361",
"q  c #464557",
"w  c #46485D",
"e  c #6B494D",
"r  c #614B56",
"t  c #664F5A",
"y  c #6A4F58",
"u  c #724F51",
"i  c #6F545A",
"p  c #72575F",
"a  c #7F5B5A",
"s  c #424966",
"d  c #434A67",
"f  c #444C69",
"g  c #444D6B",
"h  c #4A4F69",
"j  c #47506E",
"k  c #4B526D",
"l  c #4C516C",
"z  c #545363",
"x  c #575769",
"c  c #55576B",
"v  c #51576F",
"b  c #55566D",
"n  c #585B6F",
"m  c #4D5573",
"M  c #4C5574",
"N  c #4E5776",
"B  c #535A73",
"V  c #545C77",
"C  c #5C5B73",
"Z  c #585E76",
"A  c #5C5F74",
"S  c #535C79",
"D  c #565E79",
"F  c #545D7B",
"G  c #555E7B",
"H  c #665B6D",
"J  c #765F68",
"K  c #5A6076",
"L  c #56607D",
"P  c #56607E",
"I  c #58607B",
"U  c #5C627A",
"Y  c #5E637A",
"T  c #58617D",
"R  c #58617F",
"E  c #59627F",
"W  c #5D637C",
"Q  c #7C6165",
"!  c #686373",
"~  c #64657D",
"^  c #77707D",
"/  c #853A21",
"(  c #864423",
")  c #864924",
"_  c #85402F",
"`  c #D55610",
"'  c #D57517",
"]  c #FC6408",
"[  c #D4683C",
"{  c #815642",
"}  c #85564F",
"|  c #85605E",
" . c #86696C",
".. c #907679",
"X. c #FC7B42",
"o. c #D5841B",
"O. c #FD8D11",
"+. c #FDA216",
"@. c #E3A13F",
"#. c #C28840",
"$. c #CC9E5B",
"%. c #F68541",
"&. c #E99840",
"*. c #FC9C71",
"=. c #576180",
"-. c #5F6781",
";. c #5B6684",
":. c #5E6887",
">. c #606780",
",. c #636A82",
"<. c #616A86",
"1. c #606A88",
"2. c #616C8A",
"3. c #616C8B",
"4. c #656E8A",
"5. c #646E8B",
"6. c #636E8C",
"7. c #626E8D",
"8. c #6A738F",
"9. c #7D7281",
"0. c #737288",
"q. c #667291",
"w. c #6D7793",
"e. c #697594",
"r. c #6B7694",
"t. c #6F7B98",
"y. c #6F7B99",
"u. c #717B97",
"i. c #717D9B",
"p. c #737F9C",
"a. c #807484",
"s. c #867A88",
"d. c #75809B",
"f. c #77829E",
"g. c #78839F",
"h. c #79849F",
"j. c #7D879F",
"k. c #7A86A3",
"l. c #7E88A1",
"z. c #7C88A4",
"x. c #9C908A",
"c. c #868396",
"v. c #818699",
"b. c #868A9B",
"n. c #8A8A9F",
"m. c #9F9894",
"M. c #A38886",
"N. c #AEA091",
"B. c #808BA6",
"V. c #828CA5",
"C. c #808CA8",
"Z. c #858FA8",
"A. c #8B95AC",
"S. c #8D96AC",
"D. c #9A95A2",
"F. c #9A9AA4",
"G. c #8894B0",
"H. c #8B97B2",
"J. c #8D99B3",
"K. c #9199B1",
"L. c #949DB2",
"P. c #919DB7",
"I. c #949EB4",
"U. c #94A0BA",
"Y. c #98A2B8",
"T. c #9AA6BE",
"R. c #9CA6BC",
"E. c #AAA3AA",
"W. c #BAA9AA",
"Q. c #A4A2B0",
"!. c #A1A4B0",
"~. c #A0A4B1",
"^. c #A4A8B5",
"/. c #A8ACB8",
"(. c #ACB0BC",
"). c #C2AD9D",
"_. c #D4A99A",
"`. c #C1B8BC",
"'. c #E8C6B4",
"]. c #FCD2BF",
"[. c #A5AFC3",
"{. c #A8AFC1",
"}. c #A7B2C7",
"|. c #AFB4C2",
" X c #AEB7CB",
".X c #B4B9C5",
"XX c #B8BDC9",
"oX c #BAC1CE",
"OX c #C4C5CA",
"+X c #C5C6CC",
"@X c #D1CACB",
"#X c #D4C9C9",
"$X c #C7C9D0",
"%X c #C7CAD2",
"&X c #C3C9D6",
"*X c #CBCAD0",
"=X c #C1C9D8",
"-X c #C8CED9",
";X c #D8D1D2",
":X c #DED7D6",
">X c #D5D7DD",
",X c #FCDDCF",
"<X c #CED5E0",
"1X c #D6DBE3",
"2X c #D9DEE5",
"3X c #DFDFE4",
"4X c #DFE4EA",
"5X c #E0E4E9",
"6X c #E2E6ED",
"7X c #FCF3EE",
"8X c #E8ECF1",
"9X c #EFF1F3",
"0X c #F2F1F1",
"qX c #F3F5F7",
"wX c #F5F8FA",
"eX c #FCFEFE",
"rX c None",
/* pixels */
"rXrXrXrXrXrXrXrXrXrXrXrXrXrXrXrXrXrXrXrXrXrXrXrXrXrXrXrXrXrXrXrXrXrXrXrXrXrXrXrXrXrXrXrXrXrXrXrXrXrXrXrXrXrXrXrXrXrXrXrXrXrXrXrX",
"rXrXrXrXrXrXrXrXrXrXrXrXrXrXrXrXrXrXrXrXrXrXrXrXrXrXrXrXrXrXrXrXrXrXrXrXrXrXrXrXrXrXrXrXrXrXrXrXrXrXrXrXrXrXrXrXrXrXrXrXrXrXrXrX",
"rXrXrXrXrXrXrXrXrXrXrXrXrXrXrXrXrXrXrXrXrXrXrXrXrXrXrXrXrXrXrXrXrXrXrXrXrXrXrXrXrXrXrXrXrXrXrXrXrXrXrXrXrXrXrXrXrXrXrXrXrXrXrXrX",
"rXrXrXrXrXrXrXrXrXrXrXrXrXrXrXrXrXrXrXrXrXrXrXrXrXrXrXrXrXrXrXrXrXrXrXrXrXrXrXrXrXrXrXrXrXrXrXrXrXrXrXrXrXrXrXrXrXrXrXrXrXrXrXrX",
"rXrXrXrXrXrXrXrXrXrXrXrXrXrXrXrXrXrXrXrXrXrXrXrXrXrXrXrXrXrXrXrXrXrXrXrXrXrXrXrXrXrXrXrXrXrXrXrXrXrXrXrXrXrXrXrXrXrXrXrXrXrXrXrX",
"rXrXrXrXrXrXrXrXrXrXrXrXrXrXrXrXrXrXrXrXrXrXrXrXrXrXrXrXrXrXrXrXrXrXrXrXrXrXrXrXrXrXrXrXrXrXrXrXrXrXrXrXrXrXrXrXrXrXrXrXrXrXrXrX",
"rXrXrXrXrXrXrXrXrXrXrXrXrXrXrXrXrXrXrXrXrXrXrXrXrXrXrXrXrXrXrXrXrXrXrXrXrXrXrXrXrXrXrXrXrXrXrXrXrXrXrXrXrXrXrXrXrXrXrXrXrXrXrXrX",
"rXrXrXrXrXrXrXrXrXrXrXrXrXrXrXrXrXrXrXrXrXrXrXrXrXrXrXrXrXrXrXrXrXrXrXrXrXrXrXrXrXrXrXrXrXrXrXrXrXrXrXrXrXrXrXrXrXrXrXrXrXrXrXrX",
"rXrXrXrXrXrXrXrXrXrXrXrXrXrXrXrXrXrXrXrXrXrXrXrXrXrXrXrXrXrXrXrXrXrXrXrXrXrXrXrXrXrXrXrXrXrXrXrXrXrXrXrXrXrXrXrXrXrXrXrXrXrXrXrX",
"rXrXrXrXrXrXrXrXrXrXrXrXrXrXrXrXrXrXrXrXrXrXrXrXrXrXrXrXrXrXrXrXrXrXrXrXrXrXrXrXrXrXrXrXrXrXrXrXrXrXrXrXrXrXrXrXrXrXrXrXrXrXrXrX",
"rXrXrXrXrXrXrXrXrXrXrXrXrXrXrXrXrXrXrXrXrXrXrXrXrXrXrXrXrXrXrXrXrXrXrXrXrXrXrXrXrXrXrXrXrXrXrXrXrXrXrXrXrXrXrXrXrXrXrXrXrXrXrXrX",
"rXrXrXrXrXrXrXrXrXrXrXrXrXrXrXrXrXrXrXrXrXrXrXrXrXrXrXrXrXrXrXrXrXrXrXrXrXrXrXrXrXrXrXrXrXrXrXrXrXrXrXrXrXrXrXrXrXrXrXrXrXrXrXrX",
"rXrXrXrXrXrXrXrXrXrXrXrXrXrXrXrXrXrXrXrXrXrXrXrX- * * * * * * * * * * - rXrXrXrXrXrXrXrXrXrXrXrXrXrXrXrXrXrXrXrXrXrXrXrXrXrXrXrX",
"rXrXrXrXrXrXrXrXrXrXrXrXrXrXrXrXrXrXrXrXrXrXrXrXK Y Y Y Y Y Y Y Y Z k d rXrXrXrXrXrXrXrXrXrXrXrXrXrXrXrXrXrXrXrXrXrXrXrXrXrXrXrX",
"rXrXrXrXrXrXrXrXrXrXrXrXrXrXrXrXrXrXrXrX- * * K /.%X%X%X%X%X%X%X%X.XS.8.d * * - rXrXrXrXrXrXrXrXrXrXrXrXrXrXrXrXrXrXrXrXrXrXrXrX",
"rXrXrXrXrXrXrXrXrXrXrXrXrXrXrXrXrXrXrXrXK Y Y b.>XeXeXeXeXeXeXeXeX8X=XL.-.f f d rXrXrXrXrXrXrXrXrXrXrXrXrXrXrXrXrXrXrXrXrXrXrXrX",
"rXrXrXrXrXrXrXrXrXrXrXrXrXrXrXrX- * * K /.%X%X>X9XeXeXeXeXeXeXeXeXwX8X-XL.h.h.8.d - rXrXrXrXrXrXrXrXrXrXrXrXrXrXrXrXrXrXrXrXrXrX",
"rXrXrXrXrXrXrXrXrXrXrXrXrXrXrXrXK Y Y b.>XeXeXeXeXqX5X1X1X1X1X1X1X1X1X&XR.G.G.f.G d rXrXrXrXrXrXrXrXrXrXrXrXrXrXrXrXrXrXrXrXrXrX",
"rXrXrXrXrXrXrXrXrXrXrXrXrXrX- K /.%X%X>X9XeXeXeXeX5X{.A.A.A.A.A.A.A.A.Z.g.i.i.p.f.8.d - rXrXrXrXrXrXrXrXrXrXrXrXrXrXrXrXrXrXrXrX",
"rXrXrXrXrXrXrXrXrXrXrXrXrXrXK b.>XeXeXeXeXeXeXqX5XoXV.q.q.q.q.q.q.q.q.q.q.q.q.y.C.u.s * rXrXrXrXrXrXrXrXrXrXrXrXrXrXrXrXrXrXrXrX",
"rXrXrXrXrXrXrXrXrXrXrXrX- K /.>X9XeXeXeXeXeXeX5X{.V.t.q.q.q.q.q.q.q.q.q.q.q.q.e.y.1.0 * rXrXrXrXrXrXrXrXrXrXrXrXrXrXrXrXrXrXrXrX",
"rXrXrXrXrXrXrXrXrXrXrXrXK b.>XeXeXeXeXeXeXeXeX1XA.q.q.q.q.7.;.=.=.;.7.q.q.q.q.q.q.=.9 = rXrXrXrXrXrXrXrXrXrXrXrXrXrXrXrXrXrXrXrX",
"rXrXrXrXrXrXrXrXrXrX- K /.>X9XeXeXeXeXeXeXeXeX1XA.q.q.q.q.;.g 9 9 g ;.q.q.q.q.q.q.=.9 = = - rXrXrXrXrXrXrXrXrXrXrXrXrXrXrXrXrXrX",
"rXrXrXrXrXrXrXrXrXrXK b.>XeXeXeXeXeXeXeXeXqX5XoXV.q.q.7.;.E W Y Y >.5.q.q.q.q.q.q.5.>.v 4 * rXrXrXrXrXrXrXrXrXrXrXrXrXrXrXrXrXrX",
"rXrXrXrXrXrXrXrX- K /.>X9XeXeXeXeXeXeXeXeX5X{.V.t.q.q.;.g W ^.%X%X|.l.q.q.q.q.q.q.l.|.~.v * rXrXrXrXrXrXrXrXrXrXrXrXrXrXrXrXrXrX",
"rXrXrXrXrXrXrXrXK b.>XeXeXeXeXeXeXeXeXeXeX1XA.q.q.q.q.P 3 A $XeXeX1XA.q.q.q.q.q.q.A.1X%XY * rXrXrXrXrXrXrXrXrXrXrXrXrXrXrXrXrXrX",
"rXrXrXrXrXrX- K /.>X9XeXeXeXeXeXeXeXeXeXeX1XA.q.q.q.q.F : x +XeXeX1XA.q.q.q.q.q.q.A.1X%XY * rXrXrXrXrXrXrXrXrXrXrXrXrXrXrXrXrXrX",
"rXrXrXrXrXrX* Y %XeXeXeXeXqX5X5XqXeXeXeXeX1XA.q.q.q.q.S & q F.OXOX(.j.2.I B B I 2.j.(.!.U 6 rXrXrXrXrXrXrXrXrXrXrXrXrXrXrXrXrXrX",
"rXrXrXrXrXrX* Y %XeXeXeXeX5X{.{.5XeXeXeXeX1XA.q.q.q.q.S & $ q z z n <.I , # # , I <.n c D N 6 - rXrXrXrXrXrXrXrXrXrXrXrXrXrXrXrX",
"rXrXrXrXrXrX* v ~.%X%X%X%X|.l.A.1XeXeXeXeX1XA.q.q.q.q.R 8 & & & & 8 R B #     + w h 2 8 R =.9 * rXrXrXrXrXrXrXrXrXrXrXrXrXrXrXrX",
"rXrXrXrXrXrX* 4 v Y Y Y Y >.5.A.1XeXeXeXeX1XA.q.q.q.q.3.R S S S S R 3.B #     O + > h R 3.=.9 * rXrXrXrXrXrXrXrXrXrXrXrXrXrXrXrX",
"rXrXrXrXrXrX- * * * * = = 0 1.I.2XeXeXeXeX1XA.q.q.q.q.q.q.q.q.q.q.q.q.B #         # B q.q.=.9 * rXrXrXrXrXrXrXrXrXrXrXrXrXrXrXrX",
"rXrXrXrXrXrXrXrXrXrXrXrX= s u.[.4XeXeXeXeX1XA.q.q.q.q.q.q.q.q.q.q.q.q.B #         # B q.q.=.9 * rXrXrXrXrXrXrXrXrXrXrXrXrXrXrXrX",
"rXrXrXrXrXrXrXrXrXrXrXrX* k S.=X8XeXeXeXeX5X{.V.t.q.q.q.q.q.q.q.q.q.q.V ; o o X . # B q.q.=.9 * rXrXrXrXrXrXrXrXrXrXrXrXrXrXrXrX",
"rXrXrXrXrXrXrXrXrXrXrXrX* Z .X8XwXeXeXeXeXqX5XoXV.q.q.q.q.q.q.q.q.q.q.L 1 % % @ X # B q.q.=.9 * rXrXrXrXrXrXrXrXrXrXrXrXrXrXrXrX",
"rXrXrXrXrXrXrXrXrXrXrXrX- K /.>X9XeXeXeXeXeXeX1XA.q.q.q.q.q.q.q.q.q.q.;.g 9 9 1 ; , I 7.;.N 6 - rXrXrXrXrXrXrXrXrXrXrXrXrXrXrXrX",
"rXrXrXrXrXrXrXrXrXrXrXrXrXrXK b.>XeXeXeXeXeXeX1XA.q.q.q.q.q.q.q.q.q.q.7.;.=.=.L V I 2.;.g 6 rXrXrXrXrXrXrXrXrXrXrXrXrXrXrXrXrXrX",
"rXrXrXrXrXrXrXrXrXrXrXrXrXrX* Y %XeXeXeXeXeXeX5X{.V.t.q.q.q.q.q.q.t.V.Z.g.i.i.y.e.q.q.=.9 * rXrXrXrXrXrXrXrXrXrXrXrXrXrXrXrXrXrX",
"rXrXrXrXrXrXrXrXrXrXrXrXrXrX* Y %XeXeXeXeXeXeXqX5XoXV.q.q.q.q.q.q.V.oX&XR.G.G.C.y.q.q.=.9 * rXrXrXrXrXrXrXrXrXrXrXrXrXrXrXrXrXrX",
"rXrXrXrXrXrXrXrXrXrXrXrXrXrX- K /.>X9XeXeXeXeXeXeX5X{.A.A.A.A.A.A.{.5X6X XU.U.H.k.r.:.N 6 - rXrXrXrXrXrXrXrXrXrXrXrXrXrXrXrXrXrX",
"rXrXrXrXrXrXrXrXrXrXrXrXrXrXrXrXK b.>XeXeXeXeXeXeXqX5X1X1X1X1X1X1X5XqX6X XU.U.P.H.d.m 6 rXrXrXrXrXrXrXrXrXrXrXrXrXrXrXrXrXrXrXrX",
"rXrXrXrXrXrXrXrXrXrXrXrXrXrXrXrX= b E.#X#X:X0XeXeXeXeXeXeXeXeXeXeXwX8X<X}.U.U.J.B.8.d - rXrXrXrXrXrXrXrXrXrXrXrXrXrXrXrXrXrXrXrX",
"rXrXrXrXrXrXrXrXrXrXrXrXrXrX- = = 7 i | | M.:XeXeXeXeXeXeXeXeXeXeX8X=X}.T.U.U.B.T d rXrXrXrXrXrXrXrXrXrXrXrXrXrXrXrXrXrXrXrXrXrX",
"rXrXrXrXrXrXrXrXrXrXrXrXrXrXK Y Y ! Q a u  .W.#X#X#X#X#X#X;X3X6X6X<X}.U.U.K.n.0.l 6 rXrXrXrXrXrXrXrXrXrXrXrXrXrXrXrXrXrXrXrXrXrX",
"rXrXrXrXrXrXrXrXrXrXrXrX- K /.%X%X*X@X`.D.s. .| | | | | | ..Q. X X}.T.U.U.n.J t C N 6 - rXrXrXrXrXrXrXrXrXrXrXrXrXrXrXrXrXrXrXrX",
"rXrXrXrXrXrXrXrXrXrXrXrXK b.>XeXeXeXeX8X=XQ...| | | | a u p a.c.c.c.c.c.c.9.y r ~ =.9 * rXrXrXrXrXrXrXrXrXrXrXrXrXrXrXrXrXrXrXrX",
"rXrXrXrXrXrXrXrXrXrX- K /.>X9XeXeXeXeXwX8X3X;X#X#X#X#X`.D.a.p e e e e e e y H ~ 4.=.9 * rXrXrXrXrXrXrXrXrXrXrXrXrXrXrXrXrXrXrXrX",
"rXrXrXrXrXrXrXrXrXrXK b.>XeXeXeXeXeXeXeXeXeXeXeXeXeXeX8X=XQ...} _ / ( ) ) { ^ y.e.;.g 6 rXrXrXrXrXrXrXrXrXrXrXrXrXrXrXrXrXrXrXrX",
"rXrXrXrXrXrXrXrX- K /.>X9XeXeXeXeXeXeXeXeXeXeXeXeXeXeXwX8X3X;X_.[ ` ' o.o.#.x.C.y.7.;.N 6 - rXrXrXrXrXrXrXrXrXrXrXrXrXrXrXrXrXrX",
"rXrXrXrXrXrXrXrX* Y %XeXeXeXeXeXeXqX5X5XqXeXeXeXeXeXeXeXeXeXeX].X.] O.+.+.@.N.G.i.q.q.=.9 * rXrXrXrXrXrXrXrXrXrXrXrXrXrXrXrXrXrX",
"rXrXrXrXrXrXrXrX* Y %XeXeXeXeXeXeX5X{.{.5XeXeXeXeXeXeXeXeXeXeX].X.] O.+.+.@.N.G.i.q.q.=.9 * rXrXrXrXrXrXrXrXrXrXrXrXrXrXrXrXrXrX",
"rXrXrXrXrXrXrXrX* Y %XeXeXeXeX9X>X|.l.A.1XeXeXeXeXeXeXeXeXeXeX].X.] O.+.+.@.N.G.i.q.q.=.9 * rXrXrXrXrXrXrXrXrXrXrXrXrXrXrXrXrXrX",
"rXrXrXrXrXrXrXrX* Y %XeXeXeXeX>Xb.>.5.A.1XeXeXeXeXeXeXeXeXeXeX].X.] O.+.+.@.N.G.i.q.q.=.9 * rXrXrXrXrXrXrXrXrXrXrXrXrXrXrXrXrXrX",
"rXrXrXrXrXrXrXrX- K /.%X%X%X%X~.v 0 1.I.2XeXeXeXeXeXeXeXeXeXeX,X*.%.&.@.@.$.m.z.6.=.=.N 6 - rXrXrXrXrXrXrXrXrXrXrXrXrXrXrXrXrXrX",
"rXrXrXrXrXrXrXrXrXrXK Y Y Y Y v 4 s u.[.4XeXeXeXeXeXeXeXeXeXeX7X,X'.).N.N.m.v.6.j 9 9 6 rXrXrXrXrXrXrXrXrXrXrXrXrXrXrXrXrXrXrXrX",
"rXrXrXrXrXrXrXrXrXrX- * * * * = = k S.=X8XeXeXeXeXeXeXeXeXeXeXwX8X<X}.P.H.C.y.;.g 5 < * rXrXrXrXrXrXrXrXrXrXrXrXrXrXrXrXrXrXrXrX",
"rXrXrXrXrXrXrXrXrXrXrXrXrXrXrXrX= Z .X8XwXeXeXeXeXeXeXeXeXeXeX8X=X}.T.H.k.y.e.7.;.M 5 * rXrXrXrXrXrXrXrXrXrXrXrXrXrXrXrXrXrXrXrX",
"rXrXrXrXrXrXrXrXrXrXrXrXrXrXrXrX* Y %XeXeXeXeXeXeXeXeXeXeX9X>XXXY.G.G.C.y.q.q.q.q.=.9 * rXrXrXrXrXrXrXrXrXrXrXrXrXrXrXrXrXrXrXrX",
"rXrXrXrXrXrXrXrXrXrXrXrXrXrXrXrX* Y %XeXeXeXeXeXeXeXeXeXeX>Xb.,.w.i.i.y.e.q.q.q.q.=.9 * rXrXrXrXrXrXrXrXrXrXrXrXrXrXrXrXrXrXrXrX",
"rXrXrXrXrXrXrXrXrXrXrXrXrXrXrXrX* Y %XeXeXeXeXeXeXeXeX9X>X/.K 6 N ;.7.q.q.q.q.q.q.=.9 * rXrXrXrXrXrXrXrXrXrXrXrXrXrXrXrXrXrXrXrX",
"rXrXrXrXrXrXrXrXrXrXrXrXrXrXrXrX* Y %XeXeXeXeXeXeXeXeX>Xb.K rXrX6 g ;.q.q.q.q.q.q.=.9 * rXrXrXrXrXrXrXrXrXrXrXrXrXrXrXrXrXrXrXrX",
"rXrXrXrXrXrXrXrXrXrXrXrXrXrXrXrX* Y %XeXeXeXeXeXeX9X>X/.K - rXrX* 9 =.q.q.q.q.q.q.=.9 * rXrXrXrXrXrXrXrXrXrXrXrXrXrXrXrXrXrXrXrX",
"rXrXrXrXrXrXrXrXrXrXrXrXrXrXrXrX* Y %XeXeXeXeXeXeX>Xb.K rXrXrXrX* 9 =.q.q.q.q.q.q.=.9 * rXrXrXrXrXrXrXrXrXrXrXrXrXrXrXrXrXrXrXrX",
"rXrXrXrXrXrXrXrXrXrXrXrXrXrXrXrX* Y %XeXeXeXeXeXeX%XY * rXrXrXrX* 9 =.q.q.q.q.q.q.=.9 * rXrXrXrXrXrXrXrXrXrXrXrXrXrXrXrXrXrXrXrX"
};
