/* XPM */
static char *result[] = {
/* columns rows colors chars-per-pixel */
"64 64 195 2 ",
"   c #00143C",
".  c #031436",
"X  c #03112A",
"o  c #13243B",
"O  c #051C45",
"+  c #132746",
"@  c #1E334C",
"#  c #1E3759",
"$  c #132B50",
"%  c #203449",
"&  c #002262",
"*  c #10316F",
"=  c #0D3276",
"-  c #0E357B",
";  c #10377D",
":  c #143B7C",
">  c #183B77",
",  c #2E465C",
"<  c #1E417C",
"1  c #2D4A6C",
"2  c #2E4863",
"3  c #334E67",
"4  c #35516B",
"5  c #2A4E7C",
"6  c #23477C",
"7  c #355578",
"8  c #45637B",
"9  c #002F8D",
"0  c #00308D",
"q  c #133D89",
"w  c #063792",
"e  c #0A3C98",
"r  c #1B448D",
"t  c #17418C",
"y  c #0F429F",
"u  c #1B4591",
"i  c #1F4A97",
"p  c #23509E",
"a  c #2A589F",
"s  c #224D93",
"d  c #3F6183",
"f  c #164AA0",
"g  c #1345A1",
"h  c #1E51AC",
"j  c #1F58B4",
"k  c #2B5BAA",
"l  c #2856A3",
"z  c #255CB2",
"x  c #2A5EB5",
"c  c #305EA9",
"v  c #3263A9",
"b  c #386AA9",
"n  c #2A61B2",
"m  c #3567B7",
"M  c #476985",
"N  c #4E728D",
"B  c #53758B",
"V  c #4D7293",
"C  c #557994",
"Z  c #4173B4",
"A  c #497CB6",
"S  c #0042C4",
"D  c #0F52CF",
"F  c #1254CD",
"G  c #1959C9",
"H  c #195CD8",
"J  c #0D52D4",
"K  c #1D60CF",
"L  c #1F62D4",
"P  c #2A64C2",
"I  c #336CC1",
"U  c #366CC6",
"Y  c #3A74C1",
"T  c #3971CA",
"R  c #2669D8",
"E  c #3777D8",
"W  c #2F72DE",
"Q  c #0057FF",
"!  c #0058FF",
"~  c #0C5FFF",
"^  c #125FF0",
"/  c #0D61FF",
"(  c #1266FE",
")  c #1A6AFF",
"_  c #1666F9",
"`  c #1F72FF",
"'  c #1D65E7",
"]  c #256AE8",
"[  c #397CE6",
"{  c #216FFF",
"}  c #2473FF",
"|  c #2A76FD",
" . c #2D7BFF",
".. c #2972F6",
"X. c #327CFF",
"o. c #3D7FFF",
"O. c #3A7DF1",
"+. c #2E71E9",
"@. c #447CD3",
"#. c #5F849C",
"$. c #5D85A4",
"%. c #4D80B3",
"&. c #658DA4",
"*. c #648EAB",
"=. c #6B93AA",
"-. c #6C97B6",
";. c #739DB4",
":. c #729FBC",
">. c #74A1BC",
",. c #79A5BC",
"<. c #3E81DE",
"1. c #3382FF",
"2. c #3D81FF",
"3. c #3F8EFF",
"4. c #4D8BD2",
"5. c #4A85D5",
"6. c #5894D6",
"7. c #4F8CD5",
"8. c #619FDB",
"9. c #7EACC5",
"0. c #7FAFCA",
"q. c #75A3C0",
"w. c #4484E3",
"e. c #4C8BE5",
"r. c #4E8CEB",
"t. c #4586EF",
"y. c #5494E4",
"u. c #5D9EE1",
"i. c #5491EA",
"p. c #5C9BED",
"a. c #5797ED",
"s. c #438CFF",
"d. c #478AFC",
"f. c #4D93FF",
"g. c #4997FF",
"h. c #5194FF",
"j. c #539CFF",
"k. c #5B9DFF",
"l. c #5898F5",
"z. c #5090E4",
"x. c #609FED",
"c. c #5CA1EC",
"v. c #5CA2FF",
"b. c #55A0FF",
"n. c #6AACEC",
"m. c #65A5E7",
"M. c #71B2EA",
"N. c #62A4F3",
"B. c #67AAF4",
"V. c #63A4FF",
"C. c #63A9FF",
"Z. c #6AACFF",
"A. c #6DB1F4",
"S. c #6DB1FE",
"D. c #71B6F2",
"F. c #72B5FE",
"G. c #75BAFF",
"H. c #7ABEFF",
"J. c #78BBF6",
"K. c #7DC3FF",
"L. c #84B4CC",
"P. c #8CBDD6",
"I. c #89BBD6",
"U. c #80ADC5",
"Y. c #8FC2DB",
"T. c #92C5DE",
"R. c #94C8DF",
"E. c #95C9E3",
"W. c #99CDE6",
"Q. c #92C6E1",
"!. c #9DD3EC",
"~. c #81C5FF",
"^. c #86CBFF",
"/. c #8BCDFF",
"(. c #80C1F7",
"). c #8DD0FF",
"_. c #93D4FF",
"`. c #98D7FF",
"'. c #9CDAFF",
"]. c #A1D7EF",
"[. c #A4DCF5",
"{. c #A1DEFF",
"}. c #A6E2FF",
"|. c #ADE7FF",
" X c #AFE8FF",
".X c #B3E9FF",
"XX c #BBEDFF",
"oX c #C0EFFF",
"OX c #C5F1FF",
"+X c #CBF3FF",
"@X c #D2F6FF",
"#X c #D6F8FF",
"$X c #DDFBFF",
"%X c #E0FCFF",
"&X c None",
/* pixels */
"&X&X&X&X&X&X&X&X&X&X&X&X&X&X&X&X&X&X&X&X&X&X&X&X&X&X&X&X&X&X&X&X&X&X&X&X&X&X&X&X&X&X&X&X&X&X&X&X&X&X&X&X&X&X&X&X&X&X&X&X&X&X&X&X",
"&X&X&X&X&X&X&X&X&X&X&X&X&X&X&X&X&X&X&X&X&X&X&X&X&X&X&X&X&X&X&X&X&X&X&X&X&X&X&X&X&X&X&X&X&X&X&X&X&X&X&X&X&X&X&X&X&X&X&X&X&X&X&X&X",
"&X&X&X&X&X&X&X&X&X&X&X&X&X&X&X&X&X&X&X&X&X&X&X&X&X&X&X&X&X&X&X&X&X&X&X&X&X&X&X&X&X&X&X&X&X&X&X&X&X&X&X&X&X&X&X&X&X&X&X&X&X&X&X&X",
"&X&X&X&X&X&X&X&X&X&X&X&X&X&X&X&X&X&X&X&X&X&X&X&X&X&X&X&X&X&X&X&X&X&X&X&X&X&X&X&X&X&X&X&X&X&X&X&X&X&X&X&X&X&X&X&X&X&X&X&X&X&X&X&X",
"&X&X&X&X&X&X&X&X&X&X&X&X&X&X&X&X&X&X&X&X&X&X&X&X&X&X&X&X&X&X&X&X&X&X&X&X&X&X&X&X&X&X&X&X&X&X&X&X&X&X&X&X&X&X&X&X&X&X&X&X&X&X&X&X",
"&X&X&X&X&X&X&X&X&X&X&X&X&X&X&X&X&X&X&X&X&X&X&X&X&X&X&X&X&X&X&X&X&X&X&X&X&X&X&X&X&X&X&X&X&X&X&X&X&X&X&X&X&X&X&X&X&X&X&X&X&X&X&X&X",
"&X&X&X&X&X&X&X&X&X&X&X&X&X&X&X&X&X&X&X&X&X&X&X&X&X&X&X&X&X&X&X&X&X&X&X&X&X&X&X&X&X&X&X&X&X&X&X&X&X&X&X&X&X&X&X&X&X&X&X&X&X&X&X&X",
"&X&X&X&X&X&X&X&X&X&X&X&X&X&X&X&X&X&X&X&X&X&X&X&X&X&X&X&X&X&X&X&X&X&X&X&X&X&X&X&X&X&X&X&X&X&X&X&X&X&X&X&X&X&X&X&X&X&X&X&X&X&X&X&X",
"&X&X&X&X&X&X&X&X&X&X&X&X&X&X&X&X&X&X&X&X&X&X&X&X&X&X&X&X&X&X&X&X&X&X&X&X&X&X&X&X&X&X&X&X&X&X&X&X&X&X&X&X&X&X&X&X&X&X&X&X&X&X&X&X",
"&X&X&X&X&X&X&X&X&X&X&X&X&X&X&X&X&X&X&X&X&X&X&X&X&X&X&X&X&X&X&X&X&X&X&X&X&X&X&X&X&X&X&X&X&X&X&X&X&X&X&X&X&X&X&X&X&X&X&X&X&X&X&X&X",
"&X&X&X&X&X&X&X&X&X&X&X&X&X&X&X&X&X&X&X&X&X&X&X&X&X&X&X&X&X&X&X&X&X&X&X&X&X&X&X&X&X&X&X&X&X&X&X&X&X&X&X&X&X&X&X&X&X&X&X&X&X&X&X&X",
"&X&X&X&X&X&X&X&X&X&X&X&X&X&X&X&X&X&X&X&X&X&X&X&X&X&X2.o.o.o.2.2.o.o.o.o.o.o.2.2.o.o.&X&X&X&X&X&X&X&X&X&X&X&X&X&X&X&X&X&X&X&X&X&X",
"&X&X&X&X&X&X&X&X&X&X&X&X&X&X&X&X&X&X&X&X&X&X&X&X&X2.d.o.2.2.2.2.2.2.2.2.2.2.2.2.2.2.2.&X&X&X&X&X&X&X&X&X&X&X&X&X&X&X&X&X&X&X&X&X",
"&X&X&X&X&X&X&X&X&X&X&X&X&X&X&X&X&X&X&X&X&X&X&X&X1.d.f.f.h.h.h.h.h.h.h.h.h.h.h.h.h.f.3.&X&X&X&X&X&X&X&X&X&X&X&X&X&X&X&X&X&X&X&X&X",
"&X&X&X&X&X&X&X&X&X&X&X&X&X&X&X&X&X&X&X! ! ! ! ( 1.h.V.V.v.C.C.C.V.C.C.C.C.C.V.C.V.v.s.} Q Q Q Q &X&X&X&X&X&X&X&X&X&X&X&X&X&X&X&X",
"&X&X&X&X&X&X&X&X&X&X&X&X&X&X&X&X&X&X! Q ! ! ! / 1.j.F.G.G.K.G.G.G.G.H.G.G.H.G.G.G.C.g.} Q Q Q Q Q &X&X&X&X&X&X&X&X&X&X&X&X&X&X&X",
"&X&X&X&X&X&X&X&X&X&X&X&X&X&X&X&X&X/ ~ ~ / ( ( ` 3.C.K.^.^.^.^.^.^.K.^.^.^.K.^.^.K.G.j.1.( / ( ~ / / &X&X&X&X&X&X&X&X&X&X&X&X&X&X",
"&X&X&X&X&X&X&X&X&X&X&X&X&X&X&X&X/ ) { } |  .1.3.v.G.)._.)._._._._._._._._._._._._.K.S.j.1.X. .} } ) ( &X&X&X&X&X&X&X&X&X&X&X&X&X",
"&X&X&X&X&X&X&X&X&X&X&X&X&X&X&X! ~ ) X.s.s.g.b.C.G.^.'.'.{.'.{.'.}.{.'.'.{.{.{.'.{._.K.S.v.b.f.s.2.| ) Q Q &X&X&X&X&X&X&X&X&X&X&X",
"&X&X&X&X&X&X&X&X&X&X&X&X&X&X! ! ~ } 2.j.V.S.K.~.).'.|.|.|.|.|.|.|.|.|.|.|.|.|.|.|.}._.).K.F.Z.k.f.X.) ! Q &X&X&X&X&X&X&X&X&X&X&X",
"&X&X&X&X&X&X&X&X&X&X&X&X&X&X_ _ } 1.f.V.S.G.^./.`.{.|..X.XXXXXXX.XXXXXXXXXXXXX.X|.}.'._.^.K.G.Z.k.s. .) _ ^ &X&X&X&X&X&X&X&X&X&X",
"&X&X&X&X&X&X&X&X&X&X&X&XS H ] | 2.f.v.S.H.^._.'.{.}.|..XXXoX+X+XOXOX+X+X+XOXXXXX X|.{.{.`./.K.G.C.j.s.X...' J &X&X&X&X&X&X&X&X&X",
"&X&X&X&X&X&X&X&X&X&X&XS S L +.t.f.v.Z.H.~._.'.}.}.|.|.XXoX@X#X#X#X$X#X#X#X#X+XXX X X}.}.}.`.).K.F.C.k.f.O.] D S S &X&X&X&X&X&X&X",
"&X&X&X&X&X&X&X&X&X&X&XS S H +.l.V.F.H.~._.'.}.|.|..X.XXX+X#X%X%X$X%X%X$X$X$X@XOXXX X X X|.{._./.K.G.Z.k.t.W D S S &X&X&X&X&X&X&X",
"&X&X&X&X&X&X&X&X&X&X&XS S R <.v.S.G.^.).`.'.}. X.XXXoXOX@X#X%X%X$X%X%X%X%X$X#X+XOXXX.X.X X}.'._./.K.G.C.r.W F S S &X&X&X&X&X&X&X",
"&X&X&X&X&X&X&X&X&X&X&XS S L <.C.H.^.).{.{.}.|..XXXOX+X#X#X$X%X%X%X%X%X%X%X%X$X$X@X+XOX.X X}.}.{.`.).K.K.l.E F S S &X&X&X&X&X&X&X",
"&X&X&X&X&X&X&X&X&X&X&XS S R e.n.^._.{.}.|.|.|..XoX+X$X$X$X%X%X%X%X%X%X%X%X%X$X$X$X#XOXXX X|.|.|.}.`.^.K.c.<.F S S &X&X&X&X&X&X&X",
"&X&X&X&X&X&X&X&X&X&XG G K <.c.K.).`.{.|.|.|.|..XoX@X$X%X%X%X%X%X%X%X%X%X%X%X%X$X%X#X+XXX|.|.|.|.}.'._.^.A.z.E K G &X&X&X&X&X&X&X",
"&X&X&X&X&X&X&X&X&Xg P E w.c.D./.`.{.}..X|.|.|..XoX@X$X%X%X%X%X%X%X%X%X%X%X%X%X%X%X#X+XXX|.|.|.|.|.}.'.`.(.n.y.<.T j w &X&X&X&X&X",
"&X&X&X&X&X&X&X&Xw f m z.c.K.^.'.{.}.}.|.|.|.|..XoX+X$X%X%X%X%X%X%X%X%X%X%X%X%X%X%X#X+XXX|.|. X|.|.}.}.}._.(.A.c.<.n w 0 &X&X&X&X",
"&X&X&X&X&X&X&X0 9 f Y u.K.).'.}..X.X|.|.|.|.|..XoX@X#X$X%X%X%X%X%X%X%X%X%X$X%X$X$X@XOXXX|.|.|.|.|.|.|. X'._.^.D.4.n w 0 &X&X&X&X",
"&X&X&X&X&X&X&X0 9 f Y u.^.).'.}.|.|.|.|.|.|.|..XXXoX+X#X#X$X%X%X%X%X%X%X%X$X$X#X@X+XXX.X|. X|. X|.|.|.|.}._./.A.4.n w 0 &X&X&X&X",
"&X&X&X&X&X&X&X0 0 f m 8.K.).'.}.|.|.|.|.|.|.|.|..XXXoX+X@X#X%X%X%X%X%X%X%X$X#X+XOXXX.X.X X X|.|.|.|.|.|.{._.^.D.4.n w 0 &X&X&X&X",
"&X&X&X&X&X&X&X0 0 u <.8.K./.'.}.|.|. X|.|.|.|.|. X X XXX+X#X%X%X%X%X%X$X%X$X@XOX.X.X.X X|.|. X X X|. X|.}._.^.D.4.n w 0 &X&X&X&X",
"&X&X&X&X&X&X&X0 0 f <.8.K._.'.{.|.|.|.|.[.!.Q.Y.W.].|..XoX+X#X#X#X#X#X#X#X#XOXXX X}.!.Q.I.Q.!.}. X|.|.|.{._.^.D.4.n w 0 &X&X&X&X",
"&X&X&X&X&X&X&X0 0 f m c.K.).'.}.|. X|.|.W.9.-.*.9.T.}..XXXOXOXOX+XOXOX+XOX+XXXXX X!.I.:.$.:.I.[.|.|.|.|.{._./.D.4.n w 0 &X&X&X&X",
"&X&X&X&X&X&X&X0 0 f m m.^.).'.}.|.|.|. XI.*.d 7 $.0.[. X.XXXXXXXXX.XXX.XXX.X.X.X XE.>.V 1 V ,.!.|.|.|.|.'.`.^.D.4.n w 0 &X&X&X&X",
"&X&X&X&X&X&X&Xw 0 f Y 8.K.).'.}.|.|.|.|.0.V # $ M >.[. X|.|.|.|. X X X X X|. X X|.Y.$.1   7 *.W.|.|.|. X}._.^.D.4.n w 0 &X&X&X&X",
"&X&X&X&X&X&X&X0 w f m m.K.).'.}.|.|.|.|.9.V # + M >.[. X|.|.|.|. X X|.|.|. X X X|.Y.&.1 . 4 &.R.|.|.|.|.'._.^.D.4.n w 0 &X&X&X&X",
"&X&X&X&X&X&X&X0 0 f Y c.K.).`.}.|.|. X|.9.N @ + 8 >.[. X|. X|.|.|.|.|.|.|.|.|.|.|.Y.#.2 X 4 &.R. X|.|.|.}._.^.D.4.n w 0 &X&X&X&X",
"&X&X&X&X&X&X&X0 0 f Y 6.^.).'.}.|.|.|.|.9.B @ o 8 ;.[. X|.|.|.|.|.|.|.|.|.|.|.|.|.Y.#., X 3 &.R.|..X|.|.{._.^.D.4.n w 0 &X&X&X&X",
"&X&X&X&X&X&X&X0 w f Y c.K.).`.}.|. X|.|.L.#.3 , B U.}. X|.|. X|. X|.|.|.|. X|. X|.R.=.8 % 8 ;.W.|.|.|.|.{._.^.D.4.n w 0 &X&X&X&X",
"&X&X&X&X&X&X&X0 0 i m u.K.).'.}.|.|.|.|.R.,.#.C ;.P.[.|.|.|.|.|. X|. X|.|.|.|. X.XW.U.&.8 =.L.!.|.|.|.|.{._./.D.4.n w 0 &X&X&X&X",
"&X&X&X&X&X&X&X0 0 h Y u.^.).'.}.|.|. X|.].R.L.L.T.!.|..X|. X|.|.|.|.|.|.|.|.|.|. X}.R.Y.U.Y.W.}.|.|.|..X{._.^.D.4.n w 0 &X&X&X&X",
"&X&X&X&X&X&X&X0 0 f Y u.~./.`.}.|. X|.|..X X|.|.|.|.|.|.|..X|.|.|.|.|.|.|.|.|.|. X|.|.|.|.|.|.|.|.|.|.|.{._.^.D.4.n w 0 &X&X&X&X",
"&X&X&X&X&X&X&X0 0 g I y.G.~.).`.{.}.}.|. X X|.|.|.|.|.|.|.|.|.|.|.|.|. X X|.|.|.|.|. X|.|.|.|.|.|.}.{.'._.^.H.B.5.n w 0 &X&X&X&X",
"&X&X&X&X&X&X&X0 9 g P e.Z.G.K.).`.'.}.|.|.|.|.|.|.|.|.|.|.|.|.|.|.|.|.|.|.|.|.|.|.|.|.|. X|.|. X}.{.'.`.^.H.F.c.E z w 0 &X&X&X&X",
"&X&X&X&X&X&X&X0 9 g P 5.V.Z.G.K.).`.{.|.|.|.|. X|.|.|.|.|.|.|.|. X|.|.|.|.|.|. X|. X|.|.|.|.|.|.}.'._.^.H.G.V.a.T j w 0 &X&X&X&X",
"&X&X&X&X&X&X&X0 0 y x E r.l.B.G.~./.`.}.}.}.}.}.}.|.|.|.|.|.|.|. X|.|.|.|. X|.|.|.|.|.}.}.}.}.}.{._.^.H.A.N.i.@.U h w 0 &X&X&X&X",
"&X&X&X&X&X&X&X&X0 y h n m @.y.B.G.~./.`.{.`.`.'.}.}.|.|.|.|.|.|.|.|.|. X|.|.|.|.|.|.}.'.`.'.'.`._.^.H.F.x.e.@.x x g w &X&X&X&X&X",
"&X&X&X&X&X&X&X&X&X&Xt u u m @.x.Z.G.~./.)./.)._.'.{.|.|.|.|..X|.|.|.|.|.|.|.|.|.|.}.'.`./.)./._.^.H.F.V.z.Y l u q e &X&X&X&X&X&X",
"&X&X&X&X&X&X&X&X&X&X&X& & u m r.V.Z.G.^.~.~.~.^._.'.|.|.|.|.|..X X|.|.|. X|.|.|.|.}.'.).~.~.~.~.H.G.V.k.@.k ; & & &X&X&X&X&X&X&X",
"&X&X&X&X&X&X&X&X&X&X&X& & q c T @.7.6.6.x.n.D.G.^.).{.{.{.{.{.{.{.{.{.{.{.{.{.'.'.'./.K.J.A.m.8.6.7.5.@.m p - & &X&X&X&X&X&X&X&X",
"&X&X&X&X&X&X&X&X&X&X&X&X&Xq i l k c v b A 6.N.F.H.^._._._._._._.`._._._._._._.`.`./.~.G.Z.x.4.Z b v c k p q = &X&X&X&X&X&X&X&X&X",
"&X&X&X&X&X&X&X&X&X&X&X&X&X&X; ; ; ; > > a @.i.V.S.H.^.^.^.^.^.^./.^.^.^./.^.^././.~.G.Z.k.5.m s > : ; ; q = &X&X&X&X&X&X&X&X&X&X",
"&X&X&X&X&X&X&X&X&X&X&X&X&X&X& & & & & & q k @.i.x.x.M.M.M.M.M.M.M.M.M.M.M.M.M.M.M.n.x.a.i.m p = & & & & & &X&X&X&X&X&X&X&X&X&X&X",
"&X&X&X&X&X&X&X&X&X&X&X&X&X&X&X& & & & & q s c m b A %.%.%.%.%.%.%.%.%.%.%.%.%.%.A A A Z c l r = & & & & &X&X&X&X&X&X&X&X&X&X&X&X",
"&X&X&X&X&X&X&X&X&X&X&X&X&X&X&X&X&X&X&X&X* > > 6 6 5 5 5 5 5 5 5 5 5 5 5 5 5 5 5 5 5 6 6 < > > &X&X&X&X&X&X&X&X&X&X&X&X&X&X&X&X&X",
"&X&X&X&X&X&X&X&X&X&X&X&X&X&X&X&X&X&X&X&X&XO O O O O O O O O O O O O O O O O O O O O O O O O &X&X&X&X&X&X&X&X&X&X&X&X&X&X&X&X&X&X",
"&X&X&X&X&X&X&X&X&X&X&X&X&X&X&X&X&X&X&X&X&X&X                                                &X&X&X&X&X&X&X&X&X&X&X&X&X&X&X&X&X&X",
"&X&X&X&X&X&X&X&X&X&X&X&X&X&X&X&X&X&X&X&X&X&X&X&X&X&X&X&X&X&X&X&X&X&X&X&X&X&X&X&X&X&X&X&X&X&X&X&X&X&X&X&X&X&X&X&X&X&X&X&X&X&X&X&X",
"&X&X&X&X&X&X&X&X&X&X&X&X&X&X&X&X&X&X&X&X&X&X&X&X&X&X&X&X&X&X&X&X&X&X&X&X&X&X&X&X&X&X&X&X&X&X&X&X&X&X&X&X&X&X&X&X&X&X&X&X&X&X&X&X",
"&X&X&X&X&X&X&X&X&X&X&X&X&X&X&X&X&X&X&X&X&X&X&X&X&X&X&X&X&X&X&X&X&X&X&X&X&X&X&X&X&X&X&X&X&X&X&X&X&X&X&X&X&X&X&X&X&X&X&X&X&X&X&X&X",
"&X&X&X&X&X&X&X&X&X&X&X&X&X&X&X&X&X&X&X&X&X&X&X&X&X&X&X&X&X&X&X&X&X&X&X&X&X&X&X&X&X&X&X&X&X&X&X&X&X&X&X&X&X&X&X&X&X&X&X&X&X&X&X&X"
};
