/* XPM */
static char *result[] = {
/* columns rows colors chars-per-pixel */
"64 64 179 2 ",
"   c #00143C",
".  c #14253C",
"X  c #031841",
"o  c #021A4A",
"O  c #001C53",
"+  c #142947",
"@  c #1F344D",
"#  c #00215E",
"$  c #032056",
"%  c #152E54",
"&  c #1F3857",
"*  c #012363",
"=  c #02276E",
"-  c #002877",
";  c #032C79",
":  c #203B60",
">  c #2D455A",
",  c #21426E",
"<  c #365066",
"1  c #21477B",
"2  c #395A7D",
"3  c #48667D",
"4  c #022E82",
"5  c #002F8B",
"6  c #00318D",
"7  c #153E85",
"8  c #163F89",
"9  c #023390",
"0  c #1A448B",
"q  c #1F498A",
"w  c #0F429F",
"e  c #1E4994",
"r  c #214B87",
"t  c #224E99",
"y  c #265394",
"u  c #295694",
"i  c #29589B",
"p  c #3F6C9C",
"a  c #1245A4",
"s  c #1549A6",
"d  c #1A4EA5",
"f  c #154AAB",
"g  c #1D52B1",
"h  c #2A5CAA",
"j  c #295BA2",
"k  c #265CB1",
"l  c #2A5FB2",
"z  c #2359B6",
"x  c #3869AC",
"c  c #3F70A7",
"v  c #3F72AD",
"b  c #486983",
"n  c #486B8C",
"m  c #416486",
"M  c #52748C",
"N  c #527794",
"B  c #587B92",
"V  c #53799A",
"C  c #0344C4",
"Z  c #094CCB",
"A  c #0648C6",
"S  c #0F51CD",
"D  c #1552C4",
"F  c #1A5AD1",
"G  c #205BC6",
"H  c #2C64C5",
"J  c #2761C7",
"K  c #346BC4",
"L  c #336DCE",
"P  c #3770C7",
"I  c #3C74C5",
"U  c #3B73CC",
"Y  c #3F7BC7",
"T  c #2264DC",
"R  c #2A6ADC",
"E  c #3973D3",
"W  c #155FEA",
"Q  c #0057FF",
"!  c #0058FF",
"~  c #0B5EFB",
"^  c #1D63E2",
"/  c #0D62FF",
"(  c #1164FF",
")  c #1869FF",
"_  c #1C69F6",
"`  c #1F70FF",
"'  c #3A7AE4",
"]  c #3779EB",
"[  c #216FFF",
"{  c #2C7AFF",
"}  c #2874F9",
"|  c #357CFF",
" . c #3D7FFF",
".. c #447BC2",
"X. c #407BD3",
"o. c #61879D",
"O. c #5D85A5",
"+. c #628BAA",
"@. c #6893B2",
"#. c #7099B0",
"$. c #78A4BB",
"%. c #3681FF",
"&. c #3B87FF",
"*. c #4E87C2",
"=. c #4E8BCC",
"-. c #4E88C6",
";. c #5C95CA",
":. c #4681D4",
">. c #4D8AD3",
",. c #4986D8",
"<. c #5995D5",
"1. c #7BA9C4",
"2. c #7BAAC7",
"3. c #4A86EA",
"4. c #4C8CED",
"5. c #4283EE",
"6. c #508EE9",
"7. c #5E9EEA",
"8. c #5796E9",
"9. c #4285FF",
"0. c #458CFF",
"q. c #4A8DFF",
"w. c #4B8BF3",
"e. c #4C94FF",
"r. c #4F91F2",
"t. c #5B9DF6",
"y. c #5395FF",
"u. c #549DFF",
"i. c #5A9DFE",
"p. c #5897F3",
"a. c #5CA3FF",
"s. c #67AAEB",
"d. c #63A5FF",
"f. c #67AAFF",
"g. c #69ADFD",
"h. c #65A6F2",
"j. c #6EB2F4",
"k. c #6EB2FF",
"l. c #72B5F4",
"z. c #74B8F2",
"x. c #7ABFF7",
"c. c #72B5FE",
"v. c #75BBFF",
"b. c #7ABEFE",
"n. c #7DC3FF",
"m. c #84B4CC",
"M. c #88B8CF",
"N. c #85B6D1",
"B. c #87B9D4",
"V. c #8CBDD5",
"C. c #8FC2DB",
"Z. c #90C3DE",
"A. c #93C7E1",
"S. c #9ACEE6",
"D. c #97CCE5",
"F. c #9FD5EE",
"G. c #9BD0E7",
"H. c #82C6FF",
"J. c #84C9FF",
"K. c #89CCFF",
"L. c #8ED0FF",
"P. c #93D4FF",
"I. c #9DDBFF",
"U. c #A1D8EF",
"Y. c #A5DDF5",
"T. c #A2DFFF",
"R. c #A5E1FF",
"E. c #ACE7FF",
"W. c #AFE8FF",
"Q. c #B4EAFF",
"!. c #BCEDFF",
"~. c #C1EFFF",
"^. c #C4F1FF",
"/. c #CCF4FF",
"(. c #D3F7FF",
"). c #D7F8FF",
"_. c #DCFBFF",
"`. c #E0FCFF",
"'. c None",
/* pixels */
"'.'.'.'.'.'.'.'.'.'.'.'.'.'.'.'.'.'.'.'.'.'.'.'.'.'.'.'.'.'.'.'.'.'.'.'.'.'.'.'.'.'.'.'.'.'.'.'.'.'.'.'.'.'.'.'.'.'.'.'.'.'.'.'.",
"'.'.'.'.'.'.'.'.'.'.'.'.'.'.'.'.'.'.'.'.'.'.'.'.'.'.'.'.'.'.'.'.'.'.'.'.'.'.'.'.'.'.'.'.'.'.'.'.'.'.'.'.'.'.'.'.'.'.'.'.'.'.'.'.",
"'.'.'.'.'.'.'.'.'.'.'.'.'.'.'.'.'.'.'.'.'.'.'.'.'.'.'.'.'.'.'.'.'.'.'.'.'.'.'.'.'.'.'.'.'.'.'.'.'.'.'.'.'.'.'.'.'.'.'.'.'.'.'.'.",
"'.'.'.'.'.'.'.'.'.'.'.'.'.'.'.'.'.'.'.'.'.'.'.'.'.'.'.'.'.'.'.'.'.'.'.'.'.'.'.'.'.'.'.'.'.'.'.'.'.'.'.'.'.'.'.'.'.'.'.'.'.'.'.'.",
"'.'.'.'.'.'.'.'.'.'.'.'.'.'.'.'.'.'.'.'.'.'.'.'.'.'.'.'.'.'.'.'.'.'.'.'.'.'.'.'.'.'.'.'.'.'.'.'.'.'.'.'.'.'.'.'.'.'.'.'.'.'.'.'.",
"'.'.'.'.'.'.'.'.'.'.'.'.'.'.'.'.'.'.'.'.'.'.'.'.'.'.'.'.'.'.'.'.'.'.'.'.'.'.'.'.'.'.'.'.'.'.'.'.'.'.'.'.'.'.'.'.'.'.'.'.'.'.'.'.",
"'.'.'.'.'.'.'.'.'.'.'.'.'.'.'.'.'.'.'.'.'.'.'.'.'.'.'.'.'.'.'.'.'.'.'.'.'.'.'.'.'.'.'.'.'.'.'.'.'.'.'.'.'.'.'.'.'.'.'.'.'.'.'.'.",
"'.'.'.'.'.'.'.'.'.'.'.'.'.'.'.'.'.'.'.'.'.'.'.'.'.'.'.'.'.'.'.'.'.'.'.'.'.'.'.'.'.'.'.'.'.'.'.'.'.'.'.'.'.'.'.'.'.'.'.'.'.'.'.'.",
"'.'.'.'.'.'.'.'.'.'.'.'.'.'.'.'.'.'.'.'.'.'.'.'.'.'.'.'.'.'.'.'.'.'.'.'.'.'.'.'.'.'.'.'.'.'.'.'.'.'.'.'.'.'.'.'.'.'.'.'.'.'.'.'.",
"'.'.'.'.'.'.'.'.'.'.'.'.'.'.'.'.'.'.'.'.'.'.'.'. . . . . . . . . . . . . . . . .'.'.'.'.'.'.'.'.'.'.'.'.'.'.'.'.'.'.'.'.'.'.'.'.",
"'.'.'.'.'.'.'.'.'.'.'.'.'.'.'.'.'.'.'.'.'.'.'.'. . . . . . .%.&. . . . . . . . .'.'.'.'.'.'.'.'.'.'.'.'.'.'.'.'.'.'.'.'.'.'.'.'.",
"'.'.'.'.'.'.'.'.'.'.'.'.'.'.'.'.'.'.'.'.'.'.'.| 9.9.9.q.q.q.q.q.q.q.q.q.q.9.9. .| '.'.'.'.'.'.'.'.'.'.'.'.'.'.'.'.'.'.'.'.'.'.'.",
"'.'.'.'.'.'.'.'.'.'.'.'.'.'.'.'.'.'.'.'.'.'.) | 9.q.q.y.i.i.i.i.i.i.a.u.u.e.q.9.| ) '.'.'.'.'.'.'.'.'.'.'.'.'.'.'.'.'.'.'.'.'.'.",
"'.'.'.'.'.'.'.'.'.'.'.'.'.'.'.'.'.'.Q ! ! Q ( { 9.y.i.d.g.g.g.g.k.g.g.g.d.i.y.9.| ( ! ! ! Q '.'.'.'.'.'.'.'.'.'.'.'.'.'.'.'.'.'.",
"'.'.'.'.'.'.'.'.'.'.'.'.'.'.'.'.'.Q ! ! Q Q ( { 9.i.d.k.b.b.b.v.v.n.n.v.g.d.i.q.{ ( Q ! Q ! Q '.'.'.'.'.'.'.'.'.'.'.'.'.'.'.'.'.",
"'.'.'.'.'.'.'.'.'.'.'.'.'.'.'.'.'.~ / / / ( ` | y.d.g.b.J.J.J.K.J.J.n.J.v.k.d.q.| ` / ( / / ~ '.'.'.'.'.'.'.'.'.'.'.'.'.'.'.'.'.",
"'.'.'.'.'.'.'.'.'.'.'.'.'.'.'.'.^ ) [ } { %.%.e.i.g.v.H.L.P.L.L.L.L.P.K.J.v.g.a.e.%.{ { } _ _ _ '.'.'.'.'.'.'.'.'.'.'.'.'.'.'.'.",
"'.'.'.'.'.'.'.'.'.'.'.'.'.'.'.Z T } | &.0.e.u.a.f.v.H.K.P.I.I.I.I.I.I.I.K.n.c.g.a.a.e.0.&.| } ^ Z '.'.'.'.'.'.'.'.'.'.'.'.'.'.'.",
"'.'.'.'.'.'.'.'.'.'.'.'.'.'.C Z T ] q.u.a.g.k.n.v.b.K.P.T.T.T.T.R.R.R.T.P.K.n.v.n.k.g.a.u.q.] T Z C '.'.'.'.'.'.'.'.'.'.'.'.'.'.",
"'.'.'.'.'.'.'.'.'.'.'.'.'.A A Z R 5.i.f.n.n.n.n.J.J.P.T.Q.Q.Q.Q.W.W.Q.W.T.P.K.n.n.n.n.v.f.i.5.R Z A A '.'.'.'.'.'.'.'.'.'.'.'.'.",
"'.'.'.'.'.'.'.'.'.'.'.'.'.D F T ' r.a.k.n.K.L.L.K.P.I.E.!.!.!.!.!.!.!.!.R.I.L.L.L.L.n.n.c.d.r.] T F D '.'.'.'.'.'.'.'.'.'.'.'.'.",
"'.'.'.'.'.'.'.'.'.'.'.'.f D R ' 4.a.k.n.n.L.I.P.I.I.R.!./.^./.^./././.~.!.E.I.I.I.P.P.K.b.k.t.4.' R G f '.'.'.'.'.'.'.'.'.'.'.'.",
"'.'.'.'.'.'.'.'.'.'.'.6 a J ' w.t.f.n.n.L.T.T.T.T.R.Q.^.(.(.).).(.(.(.(.^.Q.R.T.T.T.T.L.H.v.f.t.w.' J a 6 '.'.'.'.'.'.'.'.'.'.'.",
"'.'.'.'.'.'.'.'.'.'.6 6 s H 3.a.f.v.n.L.I.R.E.E.E.Q.!.(._._.`.`.`.`.`._.(.!.W.E.E.W.R.I.L.n.v.g.i.3.H s 6 6 '.'.'.'.'.'.'.'.'.'.",
"'.'.'.'.'.'.'.'.'.'.6 6 s K 6.f.k.n.K.P.T.E.E.Q.!.!./.(._.`.`.`.`.`.`._.(.^.!.!.Q.W.E.T.P.K.n.v.f.4.K s 6 6 '.'.'.'.'.'.'.'.'.'.",
"'.'.'.'.'.'.'.'.'.'.6 6 d P 8.k.n.J.P.I.T.E.W.Q.!.^./.(.`.`.`.`.`.`.`.`.).(./.!.Q.W.E.T.I.P.J.n.k.8.P d 6 6 '.'.'.'.'.'.'.'.'.'.",
"'.'.'.'.'.'.'.'.'.'.6 6 d I 7.v.J.L.T.R.R.E.!.!./.).)._.`.`.`.`.`.`.`._._.).(.^.!.Q.E.R.R.I.L.J.b.7.I d 6 6 '.'.'.'.'.'.'.'.'.'.",
"'.'.'.'.'.'.'.'.'.'.6 6 d Y s.J.L.I.E.E.E.E.Q.!.(._._._.`.`.`.`.`.`.`.`.`._._.(.^.Q.W.E.E.E.I.L.H.s.Y d 6 6 '.'.'.'.'.'.'.'.'.'.",
"'.'.'.'.'.'.'.'.'.'.w a l :.s.J.P.I.E.E.E.E.!.^.(._.`.`.`.`.`.`.`.`.`.`.`.`.`.(.^.Q.W.E.E.E.T.L.J.s.:.l a w '.'.'.'.'.'.'.'.'.'.",
"'.'.'.'.'.'.'.'.'.s g z E <.j.J.P.I.E.E.E.E.Q.^.).`.`.`.`.`.`.`.`.`.`.`.`.`.`.(./.Q.W.W.E.E.T.P.J.j.<.U z g f '.'.'.'.'.'.'.'.'.",
"'.'.'.'.'.'.'.'.9 f H E 3.7.l.J.P.I.W.W.E.E.!.^.(.`.`.`.`.`.`.`.`.`.`.`.`.`.`.(.^.Q.W.E.W.E.T.L.J.l.7.3.L H g 9 '.'.'.'.'.'.'.'.",
"'.'.'.'.'.'.'.6 9 g L 3.p.h.v.J.P.I.W.E.E.E.!.^.(._.`.`.`.`.`.`.`.`.`.`.`.`.`.(.^.Q.E.E.W.E.T.L.J.v.h.p.3.L g 6 6 '.'.'.'.'.'.'.",
"'.'.'.'.'.'.'.6 9 g E p.a.n.n.n.P.T.E.E.E.E.Q.^.(.).)._._.).).)._._._._._._._./.^.Q.W.E.W.E.T.P.J.n.v.f.r.U g 9 9 '.'.'.'.'.'.'.",
"'.'.'.'.'.'.'.6 9 g Y a.k.n.L.P.I.R.E.W.E.W.Q.!.^./.(./././.(././././././././.^.!.Q.W.E.W.E.R.I.P.J.n.k.a.:.g 9 6 '.'.'.'.'.'.'.",
"'.'.'.'.'.'.'.6 9 k :.h.n.n.P.I.T.R.E.E.W.E.W.Q.!.^.^.^.^.!.!.!.^.^.~.^.!.^.^.!.Q.W.E.E.E.E.R.T.I.P.n.b.h.:.k 9 6 '.'.'.'.'.'.'.",
"'.'.'.'.'.'.'.6 9 l >.l.n.L.I.R.R.E.E.W.E.E.W.Q.Q.Q.Q.!.Q.Q.Q.Q.Q.!.Q.Q.!.Q.Q.!.W.W.E.E.E.W.E.E.R.I.L.n.l.>.k 9 6 '.'.'.'.'.'.'.",
"'.'.'.'.'.'.'.6 9 l >.n.K.P.R.E.W.W.E.E.R.R.Y.E.E.E.E.W.W.E.E.E.E.E.E.W.E.E.E.E.E.Y.Y.E.E.E.W.E.E.R.P.L.z.>.l 9 6 '.'.'.'.'.'.'.",
"'.'.'.'.'.'.'.4 4 h =.z.K.P.R.E.E.E.E.F.D.2.m.Z.Y.E.E.E.E.E.E.W.W.W.E.E.E.E.E.Y.Z.M.2.Z.F.E.E.E.E.R.P.K.z.=.h ; ; '.'.'.'.'.'.'.",
"'.'.'.'.'.'.'.; ; j -.z.K.I.R.E.E.W.E.Z.$.O.+.2.S.E.W.E.E.E.E.W.E.E.W.E.E.E.E.D.1.+.O.1.Z.W.W.E.E.R.P.K.z.=.i ; ; '.'.'.'.'.'.'.",
"'.'.'.'.'.'.'.= = i -.z.K.P.R.E.E.W.W.B.o.2 p @.C.W.E.E.W.E.E.E.E.W.E.E.E.E.E.C.+.p 2 O.C.E.E.E.E.R.P.L.z.=.i ; = '.'.'.'.'.'.'.",
"'.'.'.'.'.'.'.* * u -.n.n.P.R.E.W.E.W.2.n % & V A.W.W.W.W.E.E.E.E.E.W.E.W.E.E.B.V : % n 2.W.E.E.E.T.I.K.j.-.u = * '.'.'.'.'.'.'.",
"'.'.'.'.'.'.'.* * u @.j.K.P.R.E.W.E.W.2.n % & V 2.W.W.W.E.E.W.E.W.E.E.E.E.E.E.M.N & % n 2.W.E.W.E.R.P.K.z.@.u * * '.'.'.'.'.'.'.",
"'.'.'.'.'.'.'.* = u O.j.K.I.T.E.E.E.E.1.b + & N 2.Q.W.E.W.E.W.E.W.E.W.E.E.E.W.M.M & + b 1.W.E.E.W.R.I.K.z.*.u * # '.'.'.'.'.'.'.",
"'.'.'.'.'.'.'.# * t =.n.K.P.R.E.E.W.W.$.3 + @ M 2.E.E.W.E.E.E.E.E.E.W.E.W.E.E.m.M @ + b $.E.E.E.E.R.P.J.z.*.i * * '.'.'.'.'.'.'.",
"'.'.'.'.'.'.'.* * i @.l.K.P.R.E.E.E.E.$.3 . + M 2.W.W.W.W.E.E.E.E.W.E.E.W.E.E.m.M @ . 3 $.E.E.E.E.R.P.K.z.*.u * * '.'.'.'.'.'.'.",
"'.'.'.'.'.'.'.# * u -.j.K.P.I.R.E.E.E.m.o.> < o.C.E.W.W.E.E.W.E.E.E.W.E.E.E.E.C.o.< > B 2.E.E.R.R.I.P.K.z.*.u * # '.'.'.'.'.'.'.",
"'.'.'.'.'.'.'.* * i O.z.J.P.P.I.R.R.E.C.#.M B $.A.E.E.W.E.W.E.E.W.W.E.E.W.E.W.A.$.M M #.C.W.E.R.I.P.L.K.z.*.u * * '.'.'.'.'.'.'.",
"'.'.'.'.'.'.'.# * y -.n.n.J.L.P.I.R.E.S.M.#.$.C.U.W.E.E.E.E.E.E.E.E.E.W.E.E.E.F.C.$.#.C.G.W.R.I.P.L.K.n.z.*.u * * '.'.'.'.'.'.'.",
"'.'.'.'.'.'.'.# * u *.z.H.H.J.K.P.T.E.R.U.S.D.U.Y.E.E.E.E.E.E.E.E.E.E.E.W.W.W.R.U.S.S.G.R.E.R.P.L.K.n.n.z.*.u * * '.'.'.'.'.'.'.",
"'.'.'.'.'.'.'.* * u *.z.n.n.n.J.P.I.R.R.E.E.R.E.E.E.R.E.R.E.E.R.E.R.E.R.R.R.E.R.R.R.E.E.E.R.I.L.n.n.n.n.l.*.y * * '.'.'.'.'.'.'.",
"'.'.'.'.'.'.'.# * y ..h.v.n.n.J.K.P.T.U.I.I.I.I.I.T.I.I.I.T.I.I.I.I.I.T.T.I.I.I.T.I.I.I.I.I.P.L.n.n.n.n.h...t * # '.'.'.'.'.'.'.",
"'.'.'.'.'.'.'.* = y ..7.k.v.n.n.K.K.P.P.P.P.P.P.P.P.P.P.P.P.P.U.P.P.P.P.P.P.P.G.P.P.P.P.P.P.L.J.n.n.n.k.h...t * * '.'.'.'.'.'.'.",
"'.'.'.'.'.'.'.# * t ..p.f.k.b.n.n.n.K.J.K.K.K.K.K.K.n.K.K.n.n.n.K.n.K.K.n.K.K.n.K.J.K.K.J.K.J.J.n.n.k.f.p.v e * * '.'.'.'.'.'.'.",
"'.'.'.'.'.'.'.* * 8 K 4.t.g.l.n.n.n.n.n.n.z.n.n.n.n.n.n.n.n.n.n.n.n.n.n.n.n.n.n.n.n.n.z.x.x.n.x.n.v.j.a.w.K t * * '.'.'.'.'.'.'.",
"'.'.'.'.'.'.'.* * e l E X.>.<.<.;.;.;.@.;.;.;.;.@.=.;.;.@.;.;.;.;.=.@.@.;.;.;.;.;.;.@.;.;.;.;.<.<.<.>.:.U k 8 * O '.'.'.'.'.'.'.",
"'.'.'.'.'.'.'.'.* 8 t h x x v v x c p p p p p p p p p p p p p p p p p p p p p p p p p p c n c c c x x l h j 8 * '.'.'.'.'.'.'.'.",
"'.'.'.'.'.'.'.'.'.'.7 8 0 q r r r , , , , , , , , , , , , , , , , , , , , , , , , , , , , , 1 1 r r 0 0 8 7 '.'.'.'.'.'.'.'.'.'.",
"'.'.'.'.'.'.'.'.'.'.* * * * * * $ o X X X X X X   X X X X X X X X X . X X X X X X X X X X X o O * = * * * = '.'.'.'.'.'.'.'.'.'.",
"'.'.'.'.'.'.'.'.'.'.'.* * * * # $ X                                                         o O O * * # * '.'.'.'.'.'.'.'.'.'.'.",
"'.'.'.'.'.'.'.'.'.'.'.* * * * # $ o                                                         o O * * # * * '.'.'.'.'.'.'.'.'.'.'.",
"'.'.'.'.'.'.'.'.'.'.'.'.'.'.'.'.'.'.'.'.'.'.'.'.'.'.'.'.'.'.'.'.'.'.'.'.'.'.'.'.'.'.'.'.'.'.'.'.'.'.'.'.'.'.'.'.'.'.'.'.'.'.'.'.",
"'.'.'.'.'.'.'.'.'.'.'.'.'.'.'.'.'.'.'.'.'.'.'.'.'.'.'.'.'.'.'.'.'.'.'.'.'.'.'.'.'.'.'.'.'.'.'.'.'.'.'.'.'.'.'.'.'.'.'.'.'.'.'.'.",
"'.'.'.'.'.'.'.'.'.'.'.'.'.'.'.'.'.'.'.'.'.'.'.'.'.'.'.'.'.'.'.'.'.'.'.'.'.'.'.'.'.'.'.'.'.'.'.'.'.'.'.'.'.'.'.'.'.'.'.'.'.'.'.'.",
"'.'.'.'.'.'.'.'.'.'.'.'.'.'.'.'.'.'.'.'.'.'.'.'.'.'.'.'.'.'.'.'.'.'.'.'.'.'.'.'.'.'.'.'.'.'.'.'.'.'.'.'.'.'.'.'.'.'.'.'.'.'.'.'."
};
