/* XPM */
static char *result[] = {
/* columns rows colors chars-per-pixel */
"64 64 197 2 ",
"   c #00143C",
".  c #031332",
"X  c #031028",
"o  c #13243C",
"O  c #132949",
"+  c #1E324A",
"@  c #1E3759",
"#  c #0F264D",
"$  c #012363",
"%  c #082C6F",
"&  c #102F67",
"*  c #143368",
"=  c #1C3C68",
"-  c #153368",
";  c #092D71",
":  c #0F347A",
">  c #0D3174",
",  c #12377B",
"<  c #2F465C",
"1  c #2D4867",
"2  c #334D65",
"3  c #37536D",
"4  c #355476",
"5  c #446178",
"6  c #002F8D",
"7  c #00308D",
"8  c #153E85",
"9  c #163F88",
"0  c #063792",
"q  c #0F3F9A",
"w  c #1B448E",
"e  c #1E498F",
"r  c #194187",
"t  c #1A4696",
"y  c #224D8F",
"u  c #25508F",
"i  c #3C5D80",
"p  c #224D97",
"a  c #2A569C",
"s  c #325D9C",
"d  c #3F6C9C",
"f  c #38639C",
"g  c #1244A0",
"h  c #164AA0",
"j  c #184AA5",
"k  c #1C50AF",
"l  c #1B54B6",
"z  c #2857A8",
"x  c #245CB4",
"c  c #2D5EB2",
"v  c #265CBB",
"b  c #2A61B2",
"n  c #2E61B9",
"m  c #3365BB",
"M  c #3769B8",
"N  c #3A6DB3",
"B  c #496A85",
"V  c #4E718B",
"C  c #4B6F90",
"Z  c #4E7393",
"A  c #547894",
"S  c #4378BA",
"D  c #0142C3",
"F  c #1254CD",
"G  c #1A5AC8",
"H  c #0E52D5",
"J  c #1A5DD7",
"K  c #1F61CC",
"L  c #2A64C2",
"P  c #326CC1",
"I  c #396EC3",
"U  c #326BCB",
"Y  c #3A74C1",
"T  c #3373CD",
"R  c #2264D3",
"E  c #2A6CDF",
"W  c #2669D5",
"Q  c #3778D9",
"!  c #0057FF",
"~  c #045AFF",
"^  c #0A5EFE",
"/  c #0B5CF6",
"(  c #135AE0",
")  c #0D61FE",
"_  c #1365FF",
"`  c #1B6CFF",
"'  c #1A68F8",
"]  c #1963EC",
"[  c #256BE7",
"{  c #3677E6",
"}  c #226EFA",
"|  c #2574FF",
" . c #2C7BFF",
".. c #317CFF",
"X. c #3D7FFF",
"o. c #3177F3",
"O. c #4278CE",
"+. c #4076C7",
"@. c #427AD2",
"#. c #467FD9",
"$. c #5F839B",
"%. c #5C8096",
"&. c #5D84A2",
"*. c #658BA3",
"=. c #648EAC",
"-. c #6A95B3",
";. c #739DB4",
":. c #709CBA",
">. c #6990A7",
",. c #75A1BB",
"<. c #7BA7BE",
"1. c #3682FF",
"2. c #3E82FF",
"3. c #3D85F8",
"4. c #3E81E6",
"5. c #4A82C7",
"6. c #4B83D2",
"7. c #4D8BD2",
"8. c #4383D5",
"9. c #528DD9",
"0. c #4F90DC",
"q. c #5792D3",
"w. c #5D98D5",
"e. c #518BCB",
"r. c #609BD0",
"t. c #7DACC5",
"y. c #7EADC9",
"u. c #79A7C4",
"i. c #4A85E3",
"p. c #4C8CE3",
"a. c #4587E5",
"s. c #518EE9",
"d. c #4F92EF",
"f. c #5593E4",
"g. c #5D9EE1",
"h. c #5798EA",
"j. c #448CFF",
"k. c #4B8DFB",
"l. c #4693FF",
"z. c #4C94FF",
"x. c #4E9BFF",
"c. c #5595F3",
"v. c #5D9DF2",
"b. c #5093FF",
"n. c #549BFF",
"m. c #5B9DFF",
"M. c #5EA2EC",
"N. c #5DA3FF",
"B. c #5AA1FB",
"V. c #67A7E8",
"C. c #6FB1EF",
"Z. c #66ABF4",
"A. c #69ABF4",
"S. c #62A5FF",
"D. c #64AAFF",
"F. c #6AACFF",
"G. c #63A4F5",
"H. c #6DB2FF",
"J. c #6FB4F5",
"K. c #71B6F2",
"L. c #72B5FF",
"P. c #74B9FF",
"I. c #7ABDFF",
"U. c #77BAF7",
"Y. c #7EC2FF",
"T. c #80AEC5",
"R. c #84B4CD",
"E. c #8BBCD3",
"W. c #86B7D3",
"Q. c #8FC1DB",
"!. c #92C5DD",
"~. c #96CAE3",
"^. c #99CFE9",
"/. c #95CAE3",
"(. c #9DD3EB",
"). c #81C6FF",
"_. c #85CAFF",
"`. c #8BCDFF",
"'. c #8ED1FF",
"]. c #94D5FF",
"[. c #98D7FF",
"{. c #9BDAFF",
"}. c #A4DCF4",
"|. c #A1DEFF",
" X c #A5E1FF",
".X c #ADE7FF",
"XX c #AFE8FF",
"oX c #B3E9FF",
"OX c #BCEDFF",
"+X c #C1EFFF",
"@X c #C4F1FF",
"#X c #CCF4FF",
"$X c #D1F6FF",
"%X c #D7F8FF",
"&X c #DCFAFF",
"*X c #E0FCFF",
"=X c None",
/* pixels */
"=X=X=X=X=X=X=X=X=X=X=X=X=X=X=X=X=X=X=X=X=X=X=X=X=X=X=X=X=X=X=X=X=X=X=X=X=X=X=X=X=X=X=X=X=X=X=X=X=X=X=X=X=X=X=X=X=X=X=X=X=X=X=X=X",
"=X=X=X=X=X=X=X=X=X=X=X=X=X=X=X=X=X=X=X=X=X=X=X=X=X=X=X=X=X=X=X=X=X=X=X=X=X=X=X=X=X=X=X=X=X=X=X=X=X=X=X=X=X=X=X=X=X=X=X=X=X=X=X=X",
"=X=X=X=X=X=X=X=X=X=X=X=X=X=X=X=X=X=X=X=X=X=X=X=X=X=X=X=X=X=X=X=X=X=X=X=X=X=X=X=X=X=X=X=X=X=X=X=X=X=X=X=X=X=X=X=X=X=X=X=X=X=X=X=X",
"=X=X=X=X=X=X=X=X=X=X=X=X=X=X=X=X=X=X=X=X=X=X=X=X=X=X=X=X=X=X=X=X=X=X=X=X=X=X=X=X=X=X=X=X=X=X=X=X=X=X=X=X=X=X=X=X=X=X=X=X=X=X=X=X",
"=X=X=X=X=X=X=X=X=X=X=X=X=X=X=X=X=X=X=X=X=X=X=X=X=X=X=X=X=X=X=X=X=X=X=X=X=X=X=X=X=X=X=X=X=X=X=X=X=X=X=X=X=X=X=X=X=X=X=X=X=X=X=X=X",
"=X=X=X=X=X=X=X=X=X=X=X=X=X=X=X=X=X=X=X=X=X=X=X=X=X=X=X=X=X=X=X=X=X=X=X=X=X=X=X=X=X=X=X=X=X=X=X=X=X=X=X=X=X=X=X=X=X=X=X=X=X=X=X=X",
"=X=X=X=X=X=X=X=X=X=X=X=X=X=X=X=X=X=X=X=X=X=X=X=X=X=X=X=X=X=X=X=X=X=X=X=X=X=X=X=X=X=X=X=X=X=X=X=X=X=X=X=X=X=X=X=X=X=X=X=X=X=X=X=X",
"=X=X=X=X=X=X=X=X=X=X=X=X=X=X=X=X=X=X=X=X=X=X=X=X=X=X=X=X=X=X=X=X=X=X=X=X=X=X=X=X=X=X=X=X=X=X=X=X=X=X=X=X=X=X=X=X=X=X=X=X=X=X=X=X",
"=X=X=X=X=X=X=X=X=X=X=X=X=X=X=X=X=X=X=X=X=X=X=X=X=XX.X.X.X.X.X.X.X.X.X.X.2.2.X.X.X.X.=X=X=X=X=X=X=X=X=X=X=X=X=X=X=X=X=X=X=X=X=X=X",
"=X=X=X=X=X=X=X=X=X=X=X=X=X=X=X=X=X=X=X=X=X=X=X=X=XX.X.j.j.X.X.j.2.j.X.X.2.2.2.2.j.X.X.=X=X=X=X=X=X=X=X=X=X=X=X=X=X=X=X=X=X=X=X=X",
"=X=X=X=X=X=X=X=X=X=X=X=X=X=X=X=X=X=X=X=X=X=X=X=X2.j.k.b.k.b.z.b.b.b.b.b.b.b.b.z.z.z.j.=X=X=X=X=X=X=X=X=X=X=X=X=X=X=X=X=X=X=X=X=X",
"=X=X=X=X=X=X=X=X=X=X=X=X=X=X=X=X=X=X=X! ! ! ! _ 1.z.S.S.S.S.S.S.S.S.S.S.S.S.S.N.S.m.j.| ! ! ! ! =X=X=X=X=X=X=X=X=X=X=X=X=X=X=X=X",
"=X=X=X=X=X=X=X=X=X=X=X=X=X=X=X=X=X=X! ! ! ! ) ) 1.B.H.P.P.P.P.P.L.P.P.P.P.P.P.P.P.S.3.| ) ! ! ! ! =X=X=X=X=X=X=X=X=X=X=X=X=X=X=X",
"=X=X=X=X=X=X=X=X=X=X=X=X=X=X=X=X=X=X^ ^ ) ) ) _ 1.N.Y.Y.)._.)._._.)._.)._.)._._.Y.P.x.1.) ) ) ) ) ^ =X=X=X=X=X=X=X=X=X=X=X=X=X=X",
"=X=X=X=X=X=X=X=X=X=X=X=X=X=X=X=X=X_ ` | | | 1.1.x.P.'.'.'.'.'.].'.].'.'.'.'.'.].'.Y.D.l.1. .| | } ` _ =X=X=X=X=X=X=X=X=X=X=X=X=X",
"=X=X=X=X=X=X=X=X=X=X=X=X=X=X=X! ) `  .1.3.3.x.B.P.Y.{.{.{.{.{.{.{.{.{.{.{.{.{.{.{.'.Y.D.l.l.3.1...| _ ! =X=X=X=X=X=X=X=X=X=X=X=X",
"=X=X=X=X=X=X=X=X=X=X=X=X=X=X! ! ) | 2.z.m.S.H.P._.]. X X.X X.X X.X X.X X X X.X X X|.`.Y.L.D.B.n.j...` ! ! =X=X=X=X=X=X=X=X=X=X=X",
"=X=X=X=X=X=X=X=X=X=X=X=X=X=X/ ) ` ..l.m.F.L.Y.'.]. X.XXXoXoXoXoXoXoXoXoXoXoXoXoXoX X{.]._.I.L.D.n.2.| _ ) / =X=X=X=X=X=X=X=X=X=X",
"=X=X=X=X=X=X=X=X=X=X=X=X=X( ' }  .j.n.F.P.Y.`.].{. XXXoXoXOX@X+X+X@X@X+X@X@XOXoXXX X|.[.]._.I.H.N.z.2.| ' ] H =X=X=X=X=X=X=X=X=X",
"=X=X=X=X=X=X=X=X=X=X=X=XD J [ 2.j.n.S.L.Y.`.]. X X XXXoXOX#X$X$X$X$X$X$X$X#X@XOXoX.X X|.{.].).Y.H.N.z.2.o.[ H D =X=X=X=X=X=X=X=X",
"=X=X=X=X=X=X=X=X=X=X=XD D G { k.m.D.H.Y.`.].|..XXX.XXXoX#X$X&X*X&X&X&X&X&X&X#X+XoX.X.X.X.X{.'.).P.H.S.b.X.E F D D =X=X=X=X=X=X=X",
"=X=X=X=X=X=X=X=X=X=X=XD D J { n.F.L.I.`.].{. X.XoXoXoX@X#X%X*X*X*X*X*X*X*X&X$X#XOXoXoXXX.X|.{.'._.P.H.S.k.U F D D =X=X=X=X=X=X=X",
"=X=X=X=X=X=X=X=X=X=X=XD D R 4.B.L.I.`.].{.|..XXXoXOX@X#X$X&X*X*X*X*X*X*X*X*X%X$X#X@XOXoX.X X|.].'.).I.F.s.Q F D D =X=X=X=X=X=X=X",
"=X=X=X=X=X=X=X=X=X=X=XD D W a.Z.I.`.].|. X X.XoXOX#X$X$X&X&X*X*X*X*X*X*X*X*X&X$X$X#X+XoX.X.X X X{.'.).P.h.{ F D D =X=X=X=X=X=X=X",
"=X=X=X=X=X=X=X=X=X=X=XD D W p.J.`.].{..X.XXX.XoX+X$X&X*X*X*X*X*X*X*X*X*X*X*X*X*X*X%X#XOX.X.X.X.X X[.'.Y.M.4.J D D =X=X=X=X=X=X=X",
"=X=X=X=X=X=X=X=X=X=XG K W 8.M.Y.].[.|..X.XXX.XoX+X#X&X*X*X*X*X*X*X*X*X*X*X*X*X*X*X%X#XOX.X.XXXXX X|.[.'.C.f.Q R G l =X=X=X=X=X=X",
"=X=X=X=X=X=X=X=X=Xj n Q a.M.K.`.{.|. X.X.X.X.XoX+X$X*X*X*X*X*X*X*X*X*X*X*X*X*X*X*X%X@XOX.X.X.X.X.X X|.[.Y.V.h.8.T x 0 =X=X=X=X=X",
"=X=X=X=X=X=X=X=X0 h M 0.C.U.`.{. X X.X.X.X.X.XoX+X$X&X*X*X*X*X*X*X*X*X*X*X*X*X*X&X&X@XOX.X.X.X.X.X X X X[.Y.K.M.8.x 0 0 =X=X=X=X",
"=X=X=X=X=X=X=X7 7 h Y g.Y.'.{. X.XXX.X.XXX.X.XoXOX#X&X&X*X*X*X*X*X*X*X*X*X*X*X&X&X$X@XOX.X.X.X.X.X.X.X.X|.]._.K.7.b 0 7 =X=X=X=X",
"=X=X=X=X=X=X=X7 7 h Y g.).'.{. X.X.X.XXXXX.X.XoXOX@X#X$X%X&X*X*X*X*X*X*X*X*X&X$X$X#XOXOX.XXX.XXX.X.X.XXX X]._.K.7.b 0 7 =X=X=X=X",
"=X=X=X=X=X=X=X7 0 h Y g.Y.'.{. X.X.X.X.X.XXX.XXXoXOXOX#X$X%X*X*X*X*X*X*X*X*X%X#X@XOXOXXX.XXX.X.X.XXX.XXX{.].`.K.7.b 0 7 =X=X=X=X",
"=X=X=X=X=X=X=X7 6 h Y g.).'.{. XXX.XXX.X.X.X.XXXoXoXoXOX#X%X*X*X*X*X*X*X*X&X$X#XOXXXXXXX.X.X.XXX.X.X.X.X X]._.K.7.b 0 7 =X=X=X=X",
"=X=X=X=X=X=X=X7 7 h N g.Y.'.{. XXX.XXX.X X(.^.^.(.}..XOX@X$X%X%X%X%X%X%X&X%X#XOXoX.X(.(.^.(. X.X.X.X.X.X|.]._.K.7.b 0 7 =X=X=X=X",
"=X=X=X=X=X=X=X7 7 h 5.g.Y.'.{. X.X.X.XXX(.W.,.:.R.!..XoXOX#X#X#X#X#X#X#X#X#X+XOXXX(.!.u.-.y.Q.{..X.X.X.X|.]._.K.7.b 0 7 =X=X=X=X",
"=X=X=X=X=X=X=X7 7 h Y M.Y.'.{. X.X.XXXXXQ.:.Z C -.W..XXXoXOXOXOX+XOXOXOXOXOXOXoX.X^.u.&.i &.y.(..X.X.X.X|.]._.K.7.b 0 7 =X=X=X=X",
"=X=X=X=X=X=X=X7 7 h N M.Y.'.{. XXX.XXXXXy.A 1 @ C <.}..X.XoXoXoXoXoXoXoXoXXXoX.X.X!.-.4 # i -./..X.X.X.X|.[.'.K.7.b 0 7 =X=X=X=X",
"=X=X=X=X=X=X=X7 7 h Y M._.'.{. X.X.XXX.XT.Z @ O B ,.|..X.X.X.X.XXX.XXX.X.X.XXX.X.XQ.&.1   3 >.~..X.X.X.X X[._.K.7.b 0 7 =X=X=X=X",
"=X=X=X=X=X=X=X7 7 h N g.Y.'.{. X.X.X.X.XT.V @ O 5 ,.}..X.X.X.X.X.X.X.X.X.X.X.X.XXXQ.&.2 . 3 >.~..X.XXX.X|.]._.K.7.b 0 7 =X=X=X=X",
"=X=X=X=X=X=X=X7 7 h Y M.Y.'.{. XXX.X.XXXt.V + o 5 ,.}.XX.X.X.X.X.XXX.XXX.X.XXX.X.XQ.$.< X 3 *.!..X.X.X.X|.[._.K.7.b 0 7 =X=X=X=X",
"=X=X=X=X=X=X=X7 0 j N g.Y.'.{. X.X.X.X.XT.B + o 5 ,.}.XX.X.XXX.X.X.X.X.XXXXX.X.X.XQ.$.< X < *.!..XoX.X.X{.[._.K.7.b 0 7 =X=X=X=X",
"=X=X=X=X=X=X=X7 0 g Y g.Y.'.{. X.X.X.X.XQ.>.5 3 $.T. XXXXXXXXX.X.X.X.X.XXX.X.XXX.X^.,.5 < V <.^..X.X.X.X|.]._.K.7.b 0 7 =X=X=X=X",
"=X=X=X=X=X=X=X7 6 h Y g.).'.{. X.X.X.X.X!.t.>.*.<.Q. XXX.XXX.X.X.XXXXX.X.X.X.X.X.X(.E.,.%.;.Q.(..X.XXX.X|.].`.K.7.b 0 7 =X=X=X=X",
"=X=X=X=X=X=X=X7 0 g Y g.).'.]. XXX.X.X.X}.~.Q.Q.~.}..X.XXX.X.X.X.X.X.X.X.X.X.X.X.X}.(.!.R.!.^. XXX.X.X.X|.].`.K.7.b 0 7 =X=X=X=X",
"=X=X=X=X=X=X=X7 6 t Y g.Y.'.{. X.X.X.X.X.X.X.X.X.X.X.X.X.X.XXX.X.XXX.X.X.XXX.X.X.X.XXXXX.X.XXX.X.X.X.X X{.]._.C.7.b 0 7 =X=X=X=X",
"=X=X=X=X=X=X=X7 6 j I f.P.Y.'.].|. X X.X.X.X.XXX.X.X.XXX.X.X.XXX.XXX.X.XXX.X.XXX.XXX.X.X.X.X.X.X.X X|.|.]._.I.A.8.b 0 7 =X=X=X=X",
"=X=X=X=X=X=X=X7 6 g L p.H.P.Y.`.].|. X.X.X.X.X.X.X.X.X.X.XXX.X.X.X.X.X.X.X.X.X.X.X.X.X.X.X.X.X.X X X{.].`.I.H.v.Q x 0 7 =X=X=X=X",
"=X=X=X=X=X=X=X7 6 g L 8.B.F.Y.Y.'.].}..X.X.X.X.X.X.X.X.XXX.X.X.X.X.X.XXX.X.X.X.XXX.X.X.X.X.X.X.X X{.]._.I.L.D.c.Y x 0 7 =X=X=X=X",
"=X=X=X=X=X=X=X7 6 g v Q d.v.M.Y.Y.'.[. X.X X.X.X.X.XXX.XXX.XXX.X.XXX.X.XXX.X.XXX.X.X.X.X.X.X X.X|.].`.I.K.G.c.i.U k 0 7 =X=X=X=X",
"=X=X=X=X=X=X=X=X7 g k n Y #.g.Z.I.).'.|.[.|.{.|.|.|.XXXXXX.X.X.XXX.X.XXX.XXX.X.X.X.X X X{.{.{.{.].`.I.L.M.9.O.P x j 0 =X=X=X=X=X",
"=X=X=X=X=X=X=X=X=X=Xt t p M #.v.F.I.).'.'.`.`.].{.|..XXX.X.X.XXX.X.X.X.X.X.X.XXX.X.X{.].'.'.].'.`.Y.L.F.f.+.z p p q =X=X=X=X=X=X",
"=X=X=X=X=X=X=X=X=X=X; % ; p M d.S.H.I._.)._._._.].|..X.X.X.X.X.X.X.X.X.X.X.XXXXX.X X{.'._._._._.I.L.F.m.#.c 8 % % =X=X=X=X=X=X=X",
"=X=X=X=X=X=X=X=X=X=X=X$ $ 9 c @.i.h.r.V.C.C.U.).`.[.|.|.|. X X X X X X X X X X X X{.].).I.K.C.V.V.g.f.i.I z : $ =X=X=X=X=X=X=X=X",
"=X=X=X=X=X=X=X=X=X=X=X=X$ 9 p n m M S S q.r.A.L.).`.[.[.[.[.{.{.].{.].{.{.].{.].].]._.I.F.V.q.5.S S M m z p : =X=X=X=X=X=X=X=X=X",
"=X=X=X=X=X=X=X=X=X=X=X=X=X8 8 w y y y u N O.h.F.L.).`.`.'.`.'.`.'.'.'.'.`.'.'.'.'._.I.F.S.9.+.s y e w w 9 8 =X=X=X=X=X=X=X=X=X=X",
"=X=X=X=X=X=X=X=X=X=X=X=X=X=X$ $ $ $ $ $ 9 m s.N.F.U.).).).).).).Y._.Y.Y.).).).)._.I.L.S.m.O.z : $ $ $ $ $ =X=X=X=X=X=X=X=X=X=X=X",
"=X=X=X=X=X=X=X=X=X=X=X=X=X=X=X$ $ $ $ $ 8 z M @.#.q.r.r.r.r.r.r.r.r.r.r.r.r.r.r.r.w.e.6.O.M p > $ $ $ $ $ =X=X=X=X=X=X=X=X=X=X=X",
"=X=X=X=X=X=X=X=X=X=X=X=X=X=X=X=X=X=X=X=X, y a a f f d d N Z d d d d C d d d d d C f f f z y r ; =X=X=X=X=X=X=X=X=X=X=X=X=X=X=X=X",
"=X=X=X=X=X=X=X=X=X=X=X=X=X=X=X=X=X=X=X=X=X& * - - = = = = = = = = = = = = = = = = = * * * * & =X=X=X=X=X=X=X=X=X=X=X=X=X=X=X=X=X",
"=X=X=X=X=X=X=X=X=X=X=X=X=X=X=X=X=X=X=X=X=X                                                  =X=X=X=X=X=X=X=X=X=X=X=X=X=X=X=X=X=X",
"=X=X=X=X=X=X=X=X=X=X=X=X=X=X=X=X=X=X=X=X=X=X                                              =X=X=X=X=X=X=X=X=X=X=X=X=X=X=X=X=X=X=X",
"=X=X=X=X=X=X=X=X=X=X=X=X=X=X=X=X=X=X=X=X=X=X=X=X=X=X=X=X=X=X=X=X=X=X=X=X=X=X=X=X=X=X=X=X=X=X=X=X=X=X=X=X=X=X=X=X=X=X=X=X=X=X=X=X",
"=X=X=X=X=X=X=X=X=X=X=X=X=X=X=X=X=X=X=X=X=X=X=X=X=X=X=X=X=X=X=X=X=X=X=X=X=X=X=X=X=X=X=X=X=X=X=X=X=X=X=X=X=X=X=X=X=X=X=X=X=X=X=X=X",
"=X=X=X=X=X=X=X=X=X=X=X=X=X=X=X=X=X=X=X=X=X=X=X=X=X=X=X=X=X=X=X=X=X=X=X=X=X=X=X=X=X=X=X=X=X=X=X=X=X=X=X=X=X=X=X=X=X=X=X=X=X=X=X=X",
"=X=X=X=X=X=X=X=X=X=X=X=X=X=X=X=X=X=X=X=X=X=X=X=X=X=X=X=X=X=X=X=X=X=X=X=X=X=X=X=X=X=X=X=X=X=X=X=X=X=X=X=X=X=X=X=X=X=X=X=X=X=X=X=X"
};
