/* XPM */
static char *result[] = {
/* columns rows colors chars-per-pixel */
"64 64 170 2 ",
"   c #00143C",
".  c #17283D",
"X  c #001847",
"o  c #001848",
"O  c #001C53",
"+  c #001F5E",
"@  c #122D57",
"#  c #122D58",
"$  c #21354B",
"%  c #012262",
"&  c #02266C",
"*  c #123266",
"=  c #022A76",
"-  c #002B7D",
";  c #0E3377",
":  c #123776",
">  c #334C62",
",  c #3A556B",
"<  c #405D73",
"1  c #49687E",
"2  c #022E84",
"3  c #00308D",
"4  c #123A81",
"5  c #023390",
"6  c #1A438C",
"7  c #1C4692",
"8  c #2E5482",
"9  c #2E5689",
"0  c #214D94",
"q  c #204B98",
"w  c #265394",
"e  c #295694",
"r  c #2E5A94",
"t  c #25529A",
"y  c #2A599A",
"u  c #164EB6",
"i  c #1C52B2",
"p  c #295BA4",
"a  c #285AA9",
"s  c #245BB1",
"d  c #285FB1",
"f  c #2056B1",
"g  c #3163B6",
"h  c #396CBC",
"j  c #3F74BC",
"k  c #55778D",
"l  c #5A7E94",
"z  c #497BAD",
"x  c #497EB4",
"c  c #457BBC",
"v  c #0042C4",
"b  c #0F4EC7",
"n  c #094BCC",
"m  c #0F51CC",
"M  c #1355CD",
"N  c #1D5ACC",
"B  c #1D60D2",
"V  c #2864CF",
"C  c #386CC2",
"Z  c #3D72C2",
"A  c #2567DA",
"S  c #316CD2",
"D  c #2F72DA",
"F  c #3A78D7",
"G  c #135EEC",
"H  c #0057FF",
"J  c #035AFF",
"K  c #095EFF",
"L  c #1C62E2",
"P  c #1365FF",
"I  c #1B6BFF",
"U  c #1866F9",
"Y  c #3475E2",
"T  c #3D7EEB",
"R  c #2375FF",
"E  c #2E79FF",
"W  c #2670F4",
"Q  c #337BFF",
"!  c #3D7FFF",
"~  c #3277F1",
"^  c #457BC2",
"/  c #437DD4",
"(  c #5F849B",
")  c #5C8097",
"_  c #4980BB",
"`  c #688FA6",
"'  c #658BA2",
"]  c #729CB3",
"[  c #76A1B8",
"{  c #7AA6BD",
"}  c #7CA8BF",
"|  c #3380FF",
" . c #3C83FF",
".. c #3F8EFF",
"X. c #4E87C2",
"o. c #4E8ACC",
"O. c #4E88C6",
"+. c #4E8BD2",
"@. c #4B87D9",
"#. c #5F9EDF",
"$. c #5793DF",
"%. c #7EACC3",
"&. c #65A2D7",
"*. c #65A3DC",
"=. c #4688E9",
"-. c #5196EA",
";. c #4385FF",
":. c #448AFF",
">. c #4A8DFF",
",. c #4A8BF0",
"<. c #4B93FF",
"1. c #5392F4",
"2. c #5A9BF4",
"3. c #5395FF",
"4. c #559CFF",
"5. c #599CFF",
"6. c #56A0FF",
"7. c #5DA4FF",
"8. c #5BA0F1",
"9. c #63A3F3",
"0. c #6AACF3",
"q. c #61A3FF",
"w. c #65ABFE",
"e. c #6AADFF",
"r. c #63A8F5",
"t. c #6DB2FE",
"y. c #6BB1F6",
"u. c #71B5F3",
"i. c #74B8F2",
"p. c #71B5FF",
"a. c #75BBFF",
"s. c #7ABEFF",
"d. c #7DC3FF",
"f. c #86B5CD",
"g. c #8CBDD4",
"h. c #8FC1D9",
"j. c #91C3DB",
"k. c #98CDE4",
"l. c #96CAE2",
"z. c #9DD3EB",
"x. c #80C6FF",
"c. c #89C6FF",
"v. c #84C9FF",
"b. c #8ACEFF",
"n. c #93CDFF",
"m. c #8DD1FF",
"M. c #94D5FF",
"N. c #9BD5FF",
"B. c #9DDBFF",
"V. c #A0D7EF",
"C. c #A4DBF3",
"Z. c #A0DCFF",
"A. c #AADDFF",
"S. c #A5E1FE",
"D. c #ACE6FF",
"F. c #AFE8FF",
"G. c #B2E3FF",
"H. c #BCE7FF",
"J. c #B4EAFF",
"K. c #BCECFF",
"L. c #C4EEFF",
"P. c #C8EFFF",
"I. c #C3F0FF",
"U. c #CCF3FF",
"Y. c #D2F6FF",
"T. c #D8F7FF",
"R. c #D7F8FF",
"E. c #DCFAFF",
"W. c #E0FCFF",
"Q. c None",
/* pixels */
"Q.Q.Q.Q.Q.Q.Q.Q.Q.Q.Q.Q.Q.Q.Q.Q.Q.Q.Q.Q.Q.Q.Q.Q.Q.Q.Q.Q.Q.Q.Q.Q.Q.Q.Q.Q.Q.Q.Q.Q.Q.Q.Q.Q.Q.Q.Q.Q.Q.Q.Q.Q.Q.Q.Q.Q.Q.Q.Q.Q.Q.Q.Q.Q.",
"Q.Q.Q.Q.Q.Q.Q.Q.Q.Q.Q.Q.Q.Q.Q.Q.Q.Q.Q.Q.Q.Q.Q.Q.Q.Q.Q.Q.Q.Q.Q.Q.Q.Q.Q.Q.Q.Q.Q.Q.Q.Q.Q.Q.Q.Q.Q.Q.Q.Q.Q.Q.Q.Q.Q.Q.Q.Q.Q.Q.Q.Q.Q.Q.",
"Q.Q.Q.Q.Q.Q.Q.Q.Q.Q.Q.Q.Q.Q.Q.Q.Q.Q.Q.Q.Q.Q.Q.Q.Q.Q.Q.Q.Q.Q.Q.Q.Q.Q.Q.Q.Q.Q.Q.Q.Q.Q.Q.Q.Q.Q.Q.Q.Q.Q.Q.Q.Q.Q.Q.Q.Q.Q.Q.Q.Q.Q.Q.Q.",
"Q.Q.Q.Q.Q.Q.Q.Q.Q.Q.Q.Q.Q.Q.Q.Q.Q.Q.Q.Q.Q.Q.Q.Q.Q.Q.Q.Q.Q.Q.Q.Q.Q.Q.Q.Q.Q.Q.Q.Q.Q.Q.Q.Q.Q.Q.Q.Q.Q.Q.Q.Q.Q.Q.Q.Q.Q.Q.Q.Q.Q.Q.Q.Q.",
"Q.Q.Q.Q.Q.Q.Q.Q.Q.Q.Q.Q.Q.Q.Q.Q.Q.Q.Q.Q.Q.Q.Q.Q.Q.Q.Q.Q.Q.Q.Q.Q.Q.Q.Q.Q.Q.Q.Q.Q.Q.Q.Q.Q.Q.Q.Q.Q.Q.Q.Q.Q.Q.Q.Q.Q.Q.Q.Q.Q.Q.Q.Q.Q.",
"Q.Q.Q.Q.Q.Q.Q.Q.Q.Q.Q.Q.Q.Q.Q.Q.Q.Q.Q.Q.Q.Q.Q.Q.Q.Q.Q.Q.Q.Q.Q.Q.Q.Q.Q.Q.Q.Q.Q.Q.Q.Q.Q.Q.Q.Q.Q.Q.Q.Q.Q.Q.Q.Q.Q.Q.Q.Q.Q.Q.Q.Q.Q.Q.",
"Q.Q.Q.Q.Q.Q.Q.Q.Q.Q.Q.Q.Q.Q.Q.Q.Q.Q.Q.Q.Q.Q.Q.Q.Q.Q.Q.Q.Q.Q.Q.Q.Q.Q.Q.Q.Q.Q.Q.Q.Q.Q.Q.Q.Q.Q.Q.Q.Q.Q.Q.Q.Q.Q.Q.Q.Q.Q.Q.Q.Q.Q.Q.Q.",
"Q.Q.Q.Q.Q.Q.Q.Q.Q.Q.Q.Q.Q.Q.Q.Q.Q.Q.Q.Q.Q.Q.Q.Q.Q.Q.Q.Q.Q.Q.Q.Q.Q.Q.Q.Q.Q.Q.Q.Q.Q.Q.Q.Q.Q.Q.Q.Q.Q.Q.Q.Q.Q.Q.Q.Q.Q.Q.Q.Q.Q.Q.Q.Q.",
"Q.Q.Q.Q.Q.Q.Q.Q.Q.Q.Q.Q.Q.Q.Q.Q.Q.Q.Q.Q.Q.Q.Q.Q.Q.Q.Q.Q.Q.Q.Q.Q.Q.Q.Q.Q.Q.Q.Q.Q.Q.Q.Q.Q.Q.Q.Q.Q.Q.Q.Q.Q.Q.Q.Q.Q.Q.Q.Q.Q.Q.Q.Q.Q.",
"Q.Q.Q.Q.Q.Q.Q.Q.Q.Q.Q.Q.Q.Q.Q.Q.Q.Q.Q.Q.Q.Q.Q.Q.Q.Q.Q.Q.Q.Q.Q.Q.Q.Q.Q.Q.Q.Q.Q.Q.Q.Q.Q.Q.Q.Q.Q.Q.Q.Q.Q.Q.Q.Q.Q.Q.Q.Q.Q.Q.Q.Q.Q.Q.",
"Q.Q.Q.Q.Q.Q.Q.Q.Q.Q.Q.Q.Q.Q.Q.Q.Q.Q.Q.Q.Q.Q.Q.Q.Q.Q.Q.Q.Q.Q.Q.Q.Q.Q.Q.Q.Q.Q.Q.Q.Q.Q.Q.Q.Q.Q.Q.Q.Q.Q.Q.Q.Q.Q.Q.Q.Q.Q.Q.Q.Q.Q.Q.Q.",
"Q.Q.Q.Q.Q.Q.Q.Q.Q.Q.Q.Q.Q.Q.Q.Q.Q.Q.Q.Q.Q.Q.Q.Q.Q.Q.Q.Q.Q.Q.Q.Q.Q.Q.Q.Q.Q.Q.Q.Q.Q.Q.Q.Q.Q.Q.Q.Q.Q.Q.Q.Q.Q.Q.Q.Q.Q.Q.Q.Q.Q.Q.Q.Q.",
"Q.Q.Q.Q.Q.Q.Q.Q.Q.Q.Q.Q.Q.Q.Q.Q.Q.Q.Q.Q.Q.Q.Q.Q.Q.Q.Q.Q.Q.Q.Q.Q.Q.Q.Q.Q.Q.Q.Q.Q.Q.Q.Q.Q.Q.Q.Q.Q.Q.Q.Q.Q.Q.Q.Q.Q.Q.Q.Q.Q.Q.Q.Q.Q.",
"Q.Q.Q.Q.Q.Q.Q.Q.Q.Q.Q.Q.Q.Q.Q.Q.Q.Q.Q.Q.Q.Q.Q.Q.Q.Q.Q.Q.Q.Q.Q.Q.Q.Q.Q.Q.Q.Q.Q.Q.Q.Q.Q.Q.Q.Q.Q.Q.Q.Q.Q.Q.Q.Q.Q.Q.Q.Q.Q.Q.Q.Q.Q.Q.",
"Q.Q.Q.Q.Q.Q.Q.Q.Q.Q.Q.Q.Q.Q.Q.Q.Q.Q.Q.Q.Q.Q.Q.Q.Q.Q.Q.Q.Q.Q.Q.Q.Q.Q.Q.Q.Q.Q.Q.Q.Q.Q.Q.Q.Q.Q.Q.Q.Q.Q.Q.Q.Q.Q.Q.Q.Q.Q.Q.Q.Q.Q.Q.Q.",
"Q.Q.Q.Q.Q.Q.Q.Q.Q.Q.Q.Q.Q.Q.Q.Q.Q.Q.Q.Q.Q.Q.Q.Q.Q.Q.Q.Q.Q.Q.Q.Q.Q.Q.Q.Q.Q.Q.Q.Q.Q.Q.Q.Q.Q.Q.Q.Q.Q.Q.Q.Q.Q.Q.Q.Q.Q.Q.Q.Q.Q.Q.Q.Q.",
"Q.Q.Q.Q.Q.Q.Q.Q.Q.Q.Q.Q.Q.Q.Q.Q.Q.Q.Q.Q.Q.Q.Q.Q.Q.Q.Q.Q.Q.Q.Q.Q.Q.Q.Q.Q.Q.Q.Q.Q.Q.Q.Q.Q.Q.Q.Q.Q.Q.Q.Q.Q.Q.Q.Q.Q.Q.Q.Q.Q.Q.Q.Q.Q.",
"Q.Q.Q.Q.Q.Q.Q.Q.Q.Q.Q.Q.Q.Q.Q.Q.Q.Q.Q.Q.Q.Q.Q.Q.Q.Q.Q.Q.Q.Q.Q.Q.Q.Q.Q.Q.Q.Q.Q.Q.Q.Q.Q.Q.Q.Q.Q.Q.Q.Q.Q.Q.Q.Q.Q.Q.Q.Q.Q.Q.Q.Q.Q.Q.",
"Q.Q.Q.Q.Q.Q.Q.Q.Q.Q.Q.Q.Q.Q.Q.Q.Q.Q.Q.Q.Q.Q.Q.Q.Q.! ! ! ! ! ! ! ! ! ! ! ! ! ! Q.Q.Q.Q.Q.Q.Q.Q.Q.Q.Q.Q.Q.Q.Q.Q.Q.Q.Q.Q.Q.Q.Q.Q.Q.",
"Q.Q.Q.Q.Q.Q.Q.Q.Q.Q.Q.Q.Q.Q.Q.Q.Q.Q.Q.Q.Q.Q.Q.Q.! ! ! ! ! ! ! ! ! ! ! ! ! ! ! ! Q.Q.Q.Q.Q.Q.Q.Q.Q.Q.Q.Q.Q.Q.Q.Q.Q.Q.Q.Q.Q.Q.Q.Q.",
"Q.Q.Q.Q.Q.Q.Q.Q.Q.Q.Q.Q.Q.Q.Q.Q.Q.Q.Q.Q.Q.Q.Q.Q.! ! ! ! ! ! !  .! ! ! ! ! ! ! ! Q.Q.Q.Q.Q.Q.Q.Q.Q.Q.Q.Q.Q.Q.Q.Q.Q.Q.Q.Q.Q.Q.Q.Q.",
"Q.Q.Q.Q.Q.Q.Q.Q.Q.Q.Q.Q.Q.Q.Q.Q.Q.Q.Q.Q.Q.Q.Q.Q ! ;.:.:.>.>.>.>.>.>.>.>.>.;.;.;.Q Q.Q.Q.Q.Q.Q.Q.Q.Q.Q.Q.Q.Q.Q.Q.Q.Q.Q.Q.Q.Q.Q.Q.",
"Q.Q.Q.Q.Q.Q.Q.Q.Q.Q.Q.Q.Q.Q.Q.Q.Q.Q.Q.Q.Q.Q.I Q ;.>.3.3.5.5.5.5.5.5.5.5.3.3.>.;.Q I Q.Q.Q.Q.Q.Q.Q.Q.Q.Q.Q.Q.Q.Q.Q.Q.Q.Q.Q.Q.Q.Q.",
"Q.Q.Q.Q.Q.Q.Q.Q.Q.Q.Q.Q.Q.Q.Q.Q.Q.Q.H H J J P E ;.<.5.7.w.e.e.w.e.w.e.w.5.5.3.;.E P H J J H Q.Q.Q.Q.Q.Q.Q.Q.Q.Q.Q.Q.Q.Q.Q.Q.Q.Q.",
"Q.Q.Q.Q.Q.Q.Q.Q.Q.Q.Q.Q.Q.Q.Q.Q.Q.H H H J J P E :.3.q.e.a.a.a.s.a.a.a.a.e.q.5.:.R P J J H H H Q.Q.Q.Q.Q.Q.Q.Q.Q.Q.Q.Q.Q.Q.Q.Q.Q.",
"Q.Q.Q.Q.Q.Q.Q.Q.Q.Q.Q.Q.Q.Q.Q.Q.Q.K K K K K P Q <.7.e.s.c.c.v.v.v.v.v.c.s.e.q.>.| I K K K K K Q.Q.Q.Q.Q.Q.Q.Q.Q.Q.Q.Q.Q.Q.Q.Q.Q.",
"Q.Q.Q.Q.Q.Q.Q.Q.Q.Q.Q.Q.Q.Q.Q.Q.L U I I R R | :.5.e.s.c.N.N.N.N.B.N.N.N.c.a.e.5.<.| R R I I U G Q.Q.Q.Q.Q.Q.Q.Q.Q.Q.Q.Q.Q.Q.Q.Q.",
"Q.Q.Q.Q.Q.Q.Q.Q.Q.Q.Q.Q.v v v m L W E Q ....<.6.q.t.c.N.A.G.G.G.G.G.G.D.N.c.p.q.6.<...| | E W L n v v v Q.Q.Q.Q.Q.Q.Q.Q.Q.Q.Q.Q.",
"Q.Q.Q.Q.Q.Q.Q.Q.Q.Q.Q.v v v v n L ~ :.<.4.6.w.w.p.s.n.A.L.P.P.P.P.L.P.L.A.n.s.t.t.w.6.4.<.:.~ L n v v v v Q.Q.Q.Q.Q.Q.Q.Q.Q.Q.Q.",
"Q.Q.Q.Q.Q.Q.Q.Q.Q.Q.v v v v v n L T 3.q.t.a.d.d.d.c.Z.H.T.T.T.T.T.E.T.T.H.Z.c.x.s.s.a.t.7.4. .B n v v v v v Q.Q.Q.Q.Q.Q.Q.Q.Q.Q.",
"Q.Q.Q.Q.Q.Q.Q.Q.Q.Q.b b M M M B Y ,.q.e.a.x.b.b.b.n.D.P.W.W.W.W.W.W.W.E.P.A.n.b.b.b.x.s.e.q.,.Y B N M M m b Q.Q.Q.Q.Q.Q.Q.Q.Q.Q.",
"Q.Q.Q.Q.Q.Q.Q.Q.Q.u N A A A D F =.2.w.a.d.b.M.N.Z.A.H.P.W.W.W.W.W.W.W.W.P.H.A.Z.N.N.b.x.p.w.2.,.F D A A A N u Q.Q.Q.Q.Q.Q.Q.Q.Q.",
"Q.Q.Q.Q.Q.Q.Q.Q.5 i V Y F ..=.-.8.r.p.s.b.M.Z.D.G.H.U.Y.W.W.W.W.W.W.W.W.Y.P.H.G.D.B.M.m.d.t.0.8.-.=.=.T Y V u 5 Q.Q.Q.Q.Q.Q.Q.Q.",
"Q.Q.Q.Q.Q.Q.Q.3 5 i S =.1.8.r.y.p.a.s.v.M.Z.D.J.U.U.Y.E.E.W.W.W.W.W.W.W.T.T.Y.P.J.F.B.M.x.d.a.p.y.r.2.-.=.S i 5 3 Q.Q.Q.Q.Q.Q.Q.",
"Q.Q.Q.Q.Q.Q.Q.3 5 i F 1.w.t.d.d.x.x.x.m.B.S.K.I.Y.E.E.W.W.W.W.W.W.W.W.W.E.E.E.Y.I.K.S.B.m.x.x.x.d.a.t.q.1.F i 5 3 Q.Q.Q.Q.Q.Q.Q.",
"Q.Q.Q.Q.Q.Q.Q.3 3 f F 2.e.t.d.d.v.v.m.M.B.D.J.K.U.T.R.E.W.W.W.W.W.W.W.W.E.T.T.P.K.F.D.B.M.m.v.v.x.d.p.e.2.F s 5 3 Q.Q.Q.Q.Q.Q.Q.",
"Q.Q.Q.Q.Q.Q.Q.3 5 s / 9.u.d.d.d.b.m.M.B.S.D.F.K.K.U.Y.R.W.W.W.W.W.W.W.W.T.U.U.I.K.F.D.S.B.M.m.b.x.d.a.t.r./ s 5 3 Q.Q.Q.Q.Q.Q.Q.",
"Q.Q.Q.Q.Q.Q.Q.3 5 s @.0.d.d.d.d.m.M.B.S.D.D.F.J.K.K.U.Y.E.W.W.W.W.W.W.W.T.U.I.J.J.F.D.D.S.B.M.m.x.d.d.d.0.@.d 3 3 Q.Q.Q.Q.Q.Q.Q.",
"Q.Q.Q.Q.Q.Q.Q.3 5 d +.u.d.d.d.d.M.B.D.D.F.F.F.F.F.J.I.Y.E.E.E.E.W.W.W.E.U.I.J.F.F.F.F.D.D.D.B.m.v.d.d.d.u.+.d 3 3 Q.Q.Q.Q.Q.Q.Q.",
"Q.Q.Q.Q.Q.Q.Q.2 3 d +.i.d.d.b.b.M.Z.D.S.V.j.k.V.S.F.K.U.R.E.E.R.E.T.T.R.U.K.J.S.z.k.k.z.S.D.B.M.m.v.x.d.i.+.d 3 3 Q.Q.Q.Q.Q.Q.Q.",
"Q.Q.Q.Q.Q.Q.Q.- - p +.i.d.b.b.M.B.S.D.z.f.[ { h.z.F.J.I.U.U.Y.Y.U.U.Y.U.I.K.F.V.h.{ [ f.k.F.S.B.M.m.b.x.i.o.p 2 - Q.Q.Q.Q.Q.Q.Q.",
"Q.Q.Q.Q.Q.Q.Q.= = p o.d.v.m.M.B.Z.S.F.h.[ k ) [ k.F.J.K.I.I.I.K.I.I.I.I.K.J.F.j.{ ) k ] h.D.S.S.B.M.m.v.i.o.p = = Q.Q.Q.Q.Q.Q.Q.",
"Q.Q.Q.Q.Q.Q.Q.& & y _ i.v.M.B.S.S.S.F.f.) > , ' h.F.F.F.K.J.J.J.J.J.J.K.F.F.F.h.` , > ) f.F.D.S.S.B.M.b.i.O.e & & Q.Q.Q.Q.Q.Q.Q.",
"Q.Q.Q.Q.Q.Q.Q.% & r _ i.b.M.S.D.F.F.F.{ 1 . $ k f.F.F.F.F.F.F.F.F.D.F.D.F.F.F.f.k $ . 1 } D.F.F.D.B.M.m.i.O.r & + Q.Q.Q.Q.Q.Q.Q.",
"Q.Q.Q.Q.Q.Q.Q.% % r _ i.b.m.B.S.S.F.F.f.( > < ` h.F.D.F.F.D.D.F.F.F.D.F.D.F.F.h.` < > ( f.F.D.S.S.M.M.v.i._ r % % Q.Q.Q.Q.Q.Q.Q.",
"Q.Q.Q.Q.Q.Q.Q.+ & r O.d.d.m.m.B.Z.S.F.j.[ ) ( } k.F.F.D.D.D.F.D.F.F.D.F.F.D.F.k.} ( ) [ j.F.S.Z.B.M.m.v.i.X.e & + Q.Q.Q.Q.Q.Q.Q.",
"Q.Q.Q.Q.Q.Q.Q.% % r _ i.b.b.m.M.B.Z.F.z.h.} } j.z.F.D.D.F.D.D.F.D.D.F.D.D.F.D.z.h.%.} h.z.F.S.B.m.m.v.x.i.X.e % % Q.Q.Q.Q.Q.Q.Q.",
"Q.Q.Q.Q.Q.Q.Q.+ % r _ d.d.d.d.b.M.B.F.S.z.z.z.C.S.F.F.F.D.F.F.F.D.F.D.F.F.D.F.S.V.z.z.V.S.F.Z.M.b.v.v.x.i.O.e % % Q.Q.Q.Q.Q.Q.Q.",
"Q.Q.Q.Q.Q.Q.Q.+ % e X.u.s.d.d.v.m.B.S.D.S.D.D.S.S.D.S.D.D.S.S.D.D.D.S.S.D.S.D.S.S.D.S.D.D.S.B.m.v.d.d.d.u.c r & + Q.Q.Q.Q.Q.Q.Q.",
"Q.Q.Q.Q.Q.Q.Q.% % w ^ 0.a.s.d.x.m.M.B.B.B.B.B.B.B.B.B.B.B.B.B.B.B.B.B.B.B.B.B.B.B.B.B.B.B.B.M.m.d.d.d.d.0.^ w % % Q.Q.Q.Q.Q.Q.Q.",
"Q.Q.Q.Q.Q.Q.Q.% & 0 ^ 9.t.a.d.x.v.m.M.M.M.M.M.M.M.M.M.M.M.M.M.M.M.M.M.M.M.M.M.M.M.M.M.M.M.M.m.b.d.d.a.t.9.c 0 % + Q.Q.Q.Q.Q.Q.Q.",
"Q.Q.Q.Q.Q.Q.Q.+ % 0 Z 2.e.p.d.x.v.v.m.m.m.b.b.b.b.b.b.m.b.b.b.b.v.m.m.m.v.m.m.m.b.m.b.b.b.b.v.v.d.d.t.w.1.^ 0 & % Q.Q.Q.Q.Q.Q.Q.",
"Q.Q.Q.Q.Q.Q.Q.% & q C 1.q.t.s.x.d.x.x.x.x.x.x.x.d.d.d.d.d.v.d.d.x.d.x.x.x.x.d.x.d.x.x.x.x.x.x.d.d.d.t.q.1.h 0 % % Q.Q.Q.Q.Q.Q.Q.",
"Q.Q.Q.Q.Q.Q.Q.% % 4 g / @.-.#.&.&.&.&.&.&.&.&.&.&.&.&.&.&.&.&.&.&.&.&.&.&.&.&.&.&.&.&.&.&.&.&.*.*.#.-.@./ g 6 & + Q.Q.Q.Q.Q.Q.Q.",
"Q.Q.Q.Q.Q.Q.Q.Q.% 4 a g h c c x _ z z z z z z z _ z z z _ z z z z z z z z z z z z z z z z z x x _ c c h g a 4 & Q.Q.Q.Q.Q.Q.Q.Q.",
"Q.Q.Q.Q.Q.Q.Q.Q.Q.4 7 q q y y y r 9 8 8 8 8 8 8 , 9 8 8 , 9 8 8 8 8 8 8 8 8 8 8 8 8 8 8 8 8 9 r y y t t q 6 4 Q.Q.Q.Q.Q.Q.Q.Q.Q.",
"Q.Q.Q.Q.Q.Q.Q.Q.Q.Q.; ; ; ; : : * * # @ @ @ @ @ @ @ @ @ @ @ @ @ @ @ @ @ @ @ @ @ # # # # @ # * * : : ; ; ; : Q.Q.Q.Q.Q.Q.Q.Q.Q.Q.",
"Q.Q.Q.Q.Q.Q.Q.Q.Q.Q.% % % % + + O o                                                         o O + + % % + % Q.Q.Q.Q.Q.Q.Q.Q.Q.Q.",
"Q.Q.Q.Q.Q.Q.Q.Q.Q.Q.Q.& % % % + O X                                                         o O + % % % + Q.Q.Q.Q.Q.Q.Q.Q.Q.Q.Q.",
"Q.Q.Q.Q.Q.Q.Q.Q.Q.Q.Q.Q.Q.Q.Q.Q.Q.Q.Q.Q.Q.Q.Q.Q.Q.Q.Q.Q.Q.Q.Q.Q.Q.Q.Q.Q.Q.Q.Q.Q.Q.Q.Q.Q.Q.Q.Q.Q.Q.Q.Q.Q.Q.Q.Q.Q.Q.Q.Q.Q.Q.Q.Q.Q.",
"Q.Q.Q.Q.Q.Q.Q.Q.Q.Q.Q.Q.Q.Q.Q.Q.Q.Q.Q.Q.Q.Q.Q.Q.Q.Q.Q.Q.Q.Q.Q.Q.Q.Q.Q.Q.Q.Q.Q.Q.Q.Q.Q.Q.Q.Q.Q.Q.Q.Q.Q.Q.Q.Q.Q.Q.Q.Q.Q.Q.Q.Q.Q.Q.",
"Q.Q.Q.Q.Q.Q.Q.Q.Q.Q.Q.Q.Q.Q.Q.Q.Q.Q.Q.Q.Q.Q.Q.Q.Q.Q.Q.Q.Q.Q.Q.Q.Q.Q.Q.Q.Q.Q.Q.Q.Q.Q.Q.Q.Q.Q.Q.Q.Q.Q.Q.Q.Q.Q.Q.Q.Q.Q.Q.Q.Q.Q.Q.Q.",
"Q.Q.Q.Q.Q.Q.Q.Q.Q.Q.Q.Q.Q.Q.Q.Q.Q.Q.Q.Q.Q.Q.Q.Q.Q.Q.Q.Q.Q.Q.Q.Q.Q.Q.Q.Q.Q.Q.Q.Q.Q.Q.Q.Q.Q.Q.Q.Q.Q.Q.Q.Q.Q.Q.Q.Q.Q.Q.Q.Q.Q.Q.Q.Q.",
"Q.Q.Q.Q.Q.Q.Q.Q.Q.Q.Q.Q.Q.Q.Q.Q.Q.Q.Q.Q.Q.Q.Q.Q.Q.Q.Q.Q.Q.Q.Q.Q.Q.Q.Q.Q.Q.Q.Q.Q.Q.Q.Q.Q.Q.Q.Q.Q.Q.Q.Q.Q.Q.Q.Q.Q.Q.Q.Q.Q.Q.Q.Q.Q."
};
