/* XPM */
static char *result[] = {
/* columns rows colors chars-per-pixel */
"64 64 165 2 ",
"   c #091931",
".  c #00153D",
"X  c #091B39",
"o  c #021741",
"O  c #031841",
"+  c #091E41",
"@  c #1D2F45",
"#  c #152E54",
"$  c #243C57",
"%  c #012363",
"&  c #0F326E",
"*  c #173975",
"=  c #1B3D79",
"-  c #243F60",
";  c #1E407A",
":  c #344E64",
">  c #37536B",
",  c #264A7A",
"<  c #294D7A",
"1  c #284875",
"2  c #375573",
"3  c #456379",
"4  c #002F8C",
"5  c #00308D",
"6  c #0F3984",
"7  c #143C83",
"8  c #1A438D",
"9  c #10419B",
"0  c #255099",
"q  c #1549A7",
"w  c #1A4EA7",
"e  c #184FAB",
"r  c #1346A3",
"t  c #1D52A7",
"y  c #1B51A8",
"u  c #2857AC",
"i  c #2A59A6",
"p  c #315FAB",
"a  c #285DBA",
"s  c #2F60B3",
"d  c #3060B3",
"f  c #3A69B4",
"g  c #466886",
"h  c #52758D",
"j  c #527794",
"k  c #577E9E",
"l  c #4374B4",
"z  c #4C7FB4",
"x  c #0143C4",
"c  c #1A5AC4",
"v  c #185BD8",
"b  c #175CDA",
"n  c #1F60CD",
"m  c #1E60D4",
"M  c #2E68C5",
"N  c #346DC5",
"B  c #3B75C6",
"V  c #3F7AC5",
"C  c #3A71CF",
"Z  c #2265D4",
"A  c #2468D4",
"S  c #3C7ED8",
"D  c #0E5EF7",
"F  c #0057FF",
"G  c #085DFF",
"H  c #1F69EF",
"J  c #0F62FD",
"K  c #1466FF",
"L  c #1768FF",
"P  c #1B6CFF",
"I  c #1E70FF",
"U  c #2B6FE9",
"Y  c #3678E4",
"T  c #2473FE",
"R  c #2C79FF",
"E  c #317CFF",
"W  c #3D7FFF",
"Q  c #4076C8",
"!  c #447CD6",
"~  c #5D8198",
"^  c #5980A0",
"/  c #4E82B4",
"(  c #688FA6",
")  c #648EAA",
"_  c #658DA5",
"`  c #6E97AD",
"'  c #6A96B4",
"]  c #76A2BD",
"[  c #3F83DF",
"{  c #3B80F6",
"}  c #3B83FF",
"|  c #3D8AFF",
" . c #518CDC",
".. c #7FAFCB",
"X. c #7AA8C2",
"o. c #4484E4",
"O. c #4C8EE4",
"+. c #4887E3",
"@. c #5898E3",
"#. c #5592EB",
"$. c #5D9EED",
"%. c #5596E0",
"&. c #4486FF",
"*. c #448BFF",
"=. c #4A8FFF",
"-. c #4C8DF4",
";. c #4390FF",
":. c #4B95FF",
">. c #569BFF",
",. c #5F9FFF",
"<. c #5597F4",
"1. c #5EA1EC",
"2. c #56A1FF",
"3. c #5CA4FF",
"4. c #5EAAFF",
"5. c #5EA2F4",
"6. c #60A2E3",
"7. c #67A7EE",
"8. c #74B7EE",
"9. c #62A3F1",
"0. c #62A4FF",
"q. c #65A9FF",
"w. c #6BADFF",
"e. c #67ADF4",
"r. c #6CB1FF",
"t. c #6EB3F6",
"y. c #78BBF7",
"u. c #71B5FF",
"i. c #75B9FF",
"p. c #7ABEFF",
"a. c #74B6F3",
"s. c #7DC4FF",
"d. c #80AFC7",
"f. c #80AFC9",
"g. c #83B2CB",
"h. c #84B6D1",
"j. c #8BBCD3",
"k. c #8FC2DD",
"l. c #93C6DE",
"z. c #93C7E1",
"x. c #95CAE3",
"c. c #98CDE4",
"v. c #9ED4ED",
"b. c #80C7FF",
"n. c #84CAFF",
"m. c #8ACDFF",
"M. c #8DD0FF",
"N. c #95D6FF",
"B. c #9AD9FF",
"V. c #A0D7EE",
"C. c #A5DDF5",
"Z. c #A1DEFE",
"A. c #A5E1FF",
"S. c #ACE7FF",
"D. c #AFE8FF",
"F. c #B4EAFF",
"G. c #BBECFF",
"H. c #C0EFFF",
"J. c #C5F1FF",
"K. c #CDF4FF",
"L. c #D3F7FF",
"P. c #D6F8FF",
"I. c #DCFAFF",
"U. c #E0FCFF",
"Y. c None",
/* pixels */
"Y.Y.Y.Y.Y.Y.Y.Y.Y.Y.Y.Y.Y.Y.Y.Y.Y.Y.Y.Y.Y.Y.Y.Y.Y.Y.Y.Y.Y.Y.Y.Y.Y.Y.Y.Y.Y.Y.Y.Y.Y.Y.Y.Y.Y.Y.Y.Y.Y.Y.Y.Y.Y.Y.Y.Y.Y.Y.Y.Y.Y.Y.Y.Y.",
"Y.Y.Y.Y.Y.Y.Y.Y.Y.Y.Y.Y.Y.Y.Y.Y.Y.Y.Y.Y.Y.Y.Y.Y.Y.Y.Y.Y.Y.Y.Y.Y.Y.Y.Y.Y.Y.Y.Y.Y.Y.Y.Y.Y.Y.Y.Y.Y.Y.Y.Y.Y.Y.Y.Y.Y.Y.Y.Y.Y.Y.Y.Y.Y.",
"Y.Y.Y.Y.Y.Y.Y.Y.Y.Y.Y.Y.Y.Y.Y.Y.Y.Y.Y.Y.Y.Y.Y.Y.Y.Y.Y.Y.Y.Y.Y.Y.Y.Y.Y.Y.Y.Y.Y.Y.Y.Y.Y.Y.Y.Y.Y.Y.Y.Y.Y.Y.Y.Y.Y.Y.Y.Y.Y.Y.Y.Y.Y.Y.",
"Y.Y.Y.Y.Y.Y.Y.Y.Y.Y.Y.Y.Y.Y.Y.Y.Y.Y.Y.Y.Y.Y.Y.Y.Y.Y.Y.Y.Y.Y.Y.Y.Y.Y.Y.Y.Y.Y.Y.Y.Y.Y.Y.Y.Y.Y.Y.Y.Y.Y.Y.Y.Y.Y.Y.Y.Y.Y.Y.Y.Y.Y.Y.Y.",
"Y.Y.Y.Y.Y.Y.Y.Y.Y.Y.Y.Y.Y.Y.Y.Y.Y.Y.Y.Y.Y.Y.Y.Y.Y.Y.Y.Y.Y.Y.Y.Y.Y.Y.Y.Y.Y.Y.Y.Y.Y.Y.Y.Y.Y.Y.Y.Y.Y.Y.Y.Y.Y.Y.Y.Y.Y.Y.Y.Y.Y.Y.Y.Y.",
"Y.Y.Y.Y.Y.Y.Y.Y.Y.Y.Y.Y.Y.Y.Y.Y.Y.Y.Y.Y.Y.Y.Y.Y.Y.Y.Y.Y.Y.Y.Y.Y.Y.Y.Y.Y.Y.Y.Y.Y.Y.Y.Y.Y.Y.Y.Y.Y.Y.Y.Y.Y.Y.Y.Y.Y.Y.Y.Y.Y.Y.Y.Y.Y.",
"Y.Y.Y.Y.Y.Y.Y.Y.Y.Y.Y.Y.Y.Y.Y.Y.Y.Y.Y.Y.Y.Y.Y.Y.Y.Y.Y.Y.Y.Y.Y.Y.Y.Y.Y.Y.Y.Y.Y.Y.Y.Y.Y.Y.Y.Y.Y.Y.Y.Y.Y.Y.Y.Y.Y.Y.Y.Y.Y.Y.Y.Y.Y.Y.",
"Y.Y.Y.Y.Y.Y.Y.Y.Y.Y.Y.Y.Y.Y.Y.Y.Y.Y.Y.Y.Y.Y.Y.Y.Y.Y.Y.Y.Y.Y.Y.Y.Y.Y.Y.Y.Y.Y.Y.Y.Y.Y.Y.Y.Y.Y.Y.Y.Y.Y.Y.Y.Y.Y.Y.Y.Y.Y.Y.Y.Y.Y.Y.Y.",
"Y.Y.Y.Y.Y.Y.Y.Y.Y.Y.Y.Y.Y.Y.Y.Y.Y.Y.Y.Y.Y.Y.Y.Y.Y.Y.Y.Y.Y.Y.Y.Y.Y.Y.Y.Y.Y.Y.Y.Y.Y.Y.Y.Y.Y.Y.Y.Y.Y.Y.Y.Y.Y.Y.Y.Y.Y.Y.Y.Y.Y.Y.Y.Y.",
"Y.Y.Y.Y.Y.Y.Y.Y.Y.Y.Y.Y.Y.Y.Y.Y.Y.Y.Y.Y.Y.Y.Y.Y.Y.Y.Y.Y.Y.Y.Y.Y.Y.Y.Y.Y.Y.Y.Y.Y.Y.Y.Y.Y.Y.Y.Y.Y.Y.Y.Y.Y.Y.Y.Y.Y.Y.Y.Y.Y.Y.Y.Y.Y.",
"Y.Y.Y.Y.Y.Y.Y.Y.Y.Y.Y.Y.Y.Y.Y.Y.Y.Y.Y.Y.Y.Y.Y.Y.Y.Y.Y.Y.Y.Y.Y.Y.Y.Y.Y.Y.Y.Y.Y.Y.Y.Y.Y.Y.Y.Y.Y.Y.Y.Y.Y.Y.Y.Y.Y.Y.Y.Y.Y.Y.Y.Y.Y.Y.",
"Y.Y.Y.Y.Y.Y.Y.Y.Y.Y.Y.Y.Y.Y.Y.Y.Y.Y.Y.Y.Y.Y.Y.Y.Y.Y.Y.Y.Y.Y.Y.Y.Y.Y.Y.Y.Y.Y.Y.Y.Y.Y.Y.Y.Y.Y.Y.Y.Y.Y.Y.Y.Y.Y.Y.Y.Y.Y.Y.Y.Y.Y.Y.Y.",
"Y.Y.Y.Y.Y.Y.Y.Y.Y.Y.Y.Y.Y.Y.Y.Y.Y.Y.Y.Y.Y.Y.Y.Y.Y.Y.Y.Y.Y.Y.Y.Y.Y.Y.Y.Y.Y.Y.Y.Y.Y.Y.Y.Y.Y.Y.Y.Y.Y.Y.Y.Y.Y.Y.Y.Y.Y.Y.Y.Y.Y.Y.Y.Y.",
"Y.Y.Y.Y.Y.Y.Y.Y.Y.Y.Y.Y.Y.Y.Y.Y.Y.Y.Y.Y.Y.Y.Y.Y.W W W W W W W W W W W W W W W W Y.Y.Y.Y.Y.Y.Y.Y.Y.Y.Y.Y.Y.Y.Y.Y.Y.Y.Y.Y.Y.Y.Y.Y.",
"Y.Y.Y.Y.Y.Y.Y.Y.Y.Y.Y.Y.Y.Y.Y.Y.Y.Y.Y.Y.Y.Y.Y.} W W W W W W W W W W W W W W W W } Y.Y.Y.Y.Y.Y.Y.Y.Y.Y.Y.Y.Y.Y.Y.Y.Y.Y.Y.Y.Y.Y.Y.",
"Y.Y.Y.Y.Y.Y.Y.Y.Y.Y.Y.Y.Y.Y.Y.Y.Y.Y.Y.Y.Y.Y.} &.&.&.&.&.&.&.&.&.&.&.&.&.&.&.&.&.&.} Y.Y.Y.Y.Y.Y.Y.Y.Y.Y.Y.Y.Y.Y.Y.Y.Y.Y.Y.Y.Y.Y.",
"Y.Y.Y.Y.Y.Y.Y.Y.Y.Y.Y.Y.Y.Y.Y.Y.Y.Y.Y.Y.Y.T } :.>.>.>.>.>.>.>.>.>.>.>.>.>.>.>.2.:.} T Y.Y.Y.Y.Y.Y.Y.Y.Y.Y.Y.Y.Y.Y.Y.Y.Y.Y.Y.Y.Y.",
"Y.Y.Y.Y.Y.Y.Y.Y.Y.Y.Y.Y.Y.Y.Y.Y.F F F F F I | >.r.w.w.r.w.r.r.r.q.r.r.r.r.r.r.r.>.| I F F F F F Y.Y.Y.Y.Y.Y.Y.Y.Y.Y.Y.Y.Y.Y.Y.Y.",
"Y.Y.Y.Y.Y.Y.Y.Y.Y.Y.Y.Y.Y.Y.Y.F F F F F F I | 4.b.b.b.b.b.s.b.s.s.s.s.s.s.s.s.s.4.| P F F F F F F Y.Y.Y.Y.Y.Y.Y.Y.Y.Y.Y.Y.Y.Y.Y.",
"Y.Y.Y.Y.Y.Y.Y.Y.Y.Y.Y.Y.Y.Y.K K L P I T T | 2.i.m.m.m.m.M.M.m.M.M.M.M.M.M.M.M.M.i.2.| T T T P L K K Y.Y.Y.Y.Y.Y.Y.Y.Y.Y.Y.Y.Y.Y.",
"Y.Y.Y.Y.Y.Y.Y.Y.Y.Y.Y.Y.Y.G P T R } | ;.:.4.u.s.B.B.B.Z.B.B.B.Z.B.B.B.B.B.B.B.B.n.u.4.:.=.&.W R T P G Y.Y.Y.Y.Y.Y.Y.Y.Y.Y.Y.Y.Y.",
"Y.Y.Y.Y.Y.Y.Y.Y.Y.Y.Y.Y.F G P E *.>.3.q.u.s.m.B.S.Z.S.Z.S.S.Z.Z.A.S.A.A.A.S.S.A.B.m.s.u.q.,.>.&.E I G F Y.Y.Y.Y.Y.Y.Y.Y.Y.Y.Y.Y.",
"Y.Y.Y.Y.Y.Y.Y.Y.Y.Y.Y.D K L R | >.q.r.s.n.M.B.A.S.D.F.F.F.F.F.G.G.G.G.F.F.F.D.S.A.B.M.n.b.w.q.>.*.R L D D Y.Y.Y.Y.Y.Y.Y.Y.Y.Y.Y.",
"Y.Y.Y.Y.Y.Y.Y.Y.Y.Y.b U T E *.<.q.u.s.n.N.B.A.A.D.F.G.H.J.J.J.J.J.J.J.J.G.G.F.S.A.Z.N.N.n.b.u.0.>.*.E T U b Y.Y.Y.Y.Y.Y.Y.Y.Y.Y.",
"Y.Y.Y.Y.Y.Y.Y.Y.x x v U W =.>.q.u.p.m.N.Z.Z.S.S.S.F.H.L.L.L.L.L.L.L.P.L.K.J.F.D.S.Z.S.Z.N.n.b.r.q.>.=.{ U v x x Y.Y.Y.Y.Y.Y.Y.Y.",
"Y.Y.Y.Y.Y.Y.Y.Y.x x v Y -.,.w.i.s.m.N.Z.S.D.D.D.D.H.J.P.U.U.U.U.I.I.U.U.P.K.G.F.D.D.S.S.Z.N.n.b.u.w.0.-.Y v x x Y.Y.Y.Y.Y.Y.Y.Y.",
"Y.Y.Y.Y.Y.Y.Y.Y.x x m Y <.w.y.b.m.N.B.Z.S.D.G.G.H.J.L.I.U.U.U.U.U.U.U.U.I.L.J.J.G.G.D.S.Z.Z.B.m.b.i.w.<.Y Z x x Y.Y.Y.Y.Y.Y.Y.Y.",
"Y.Y.Y.Y.Y.Y.Y.Y.x x Z o.9.i.b.M.B.Z.Z.S.S.F.G.H.L.P.P.I.U.U.U.U.U.U.U.U.I.P.P.K.H.H.F.S.Z.Z.Z.B.m.b.i.5.[ Z x x Y.Y.Y.Y.Y.Y.Y.Y.",
"Y.Y.Y.Y.Y.Y.Y.Y.x x Z +.e.s.M.B.Z.S.S.S.S.G.J.P.I.U.U.U.U.U.U.U.U.U.U.U.I.I.U.I.L.H.G.S.S.S.S.S.B.M.b.e.o.A x x Y.Y.Y.Y.Y.Y.Y.Y.",
"Y.Y.Y.Y.Y.Y.Y.c n A [ $.y.M.B.B.S.D.S.S.S.F.H.L.U.U.U.U.U.U.U.U.U.U.U.U.U.U.U.U.P.J.F.D.S.S.S.Z.Z.B.M.y.$.[ A n c Y.Y.Y.Y.Y.Y.Y.",
"Y.Y.Y.Y.Y.5 e M S O.1.8.m.B.B.A.S.S.S.S.D.F.J.L.U.U.U.U.U.U.U.U.U.U.U.U.U.U.U.U.L.J.F.S.S.S.D.S.Z.Z.B.m.a.1.O.S M e 5 Y.Y.Y.Y.Y.",
"Y.Y.Y.Y.4 5 y B %.t.s.m.B.S.S.S.S.S.S.S.S.G.J.P.U.U.U.U.U.U.U.U.U.U.U.U.U.U.U.U.L.J.G.S.D.S.D.D.D.Z.C.Z.m.s.t.@.B y 5 5 Y.Y.Y.Y.",
"Y.Y.Y.Y.5 5 t V 6.s.M.B.A.D.S.D.S.S.S.S.D.F.H.K.P.I.I.I.U.U.U.U.U.U.U.U.U.I.I.P.L.G.G.D.D.D.S.D.S.S.S.A.B.M.s.6.V t 5 5 Y.Y.Y.Y.",
"Y.Y.Y.Y.5 5 t V 6.s.M.B.A.S.S.S.S.D.S.D.D.F.G.H.K.L.P.I.U.U.U.U.U.U.U.U.I.P.K.K.G.G.F.D.D.S.S.S.S.D.D.A.B.M.s.1.V t 5 5 Y.Y.Y.Y.",
"Y.Y.Y.Y.5 5 t V 6.s.M.N.A.S.S.S.D.S.D.D.D.D.F.G.F.J.K.P.U.U.U.U.U.U.U.U.I.K.J.G.F.F.D.S.S.S.S.S.D.S.S.A.B.M.n.6.V t 5 5 Y.Y.Y.Y.",
"Y.Y.Y.Y.5 5 t V 6.s.M.B.A.S.S.D.S.S.D.A.C.C.A.A.D.G.K.P.I.U.I.I.U.I.I.U.L.J.G.D.S.A.A.B.A.S.S.S.S.S.D.A.B.N.s.6.V t 5 5 Y.Y.Y.Y.",
"Y.Y.Y.Y.5 5 t V 6.m.M.B.A.D.D.S.S.C.x.h.X...j.N.S.F.G.K.K.K.L.K.L.K.L.K.J.G.F.D.v.k...X...x.C.D.S.S.D.A.B.M.s.6.[ t 5 5 Y.Y.Y.Y.",
"Y.Y.Y.Y.5 5 t V 6.s.M.B.Z.D.S.S.S.c.g.) g k X.k.D.F.F.G.J.G.G.J.G.J.G.G.G.G.F.D.k.X.^ g ) ..v.S.D.S.S.A.N.M.s.6.z t 5 5 Y.Y.Y.Y.",
"Y.Y.Y.Y.5 5 t V 1.s.M.B.A.D.S.S.S.x.' g # : ^ h.S.D.F.D.D.D.D.D.F.F.D.F.D.D.D.D...~ < # g ' x.S.S.S.D.A.B.M.s.6.V y 5 5 Y.Y.Y.Y.",
"Y.Y.Y.Y.5 5 t V 6.s.M.B.Z.D.S.D.S.z.) 2 X 1 j ..S.S.S.D.S.D.S.S.S.D.D.S.D.S.S.S...~ - + 2 ) z.S.S.S.S.C.N.M.s.6.[ t 5 5 Y.Y.Y.Y.",
"Y.Y.Y.Y.5 5 t [ 6.s.M.B.A.D.S.S.S.z.) > X $ j g.S.S.D.D.S.S.S.D.S.S.S.S.D.S.S.S...h $ X > _ z.D.S.S.S.A.B.M.s.6.f t 5 5 Y.Y.Y.Y.",
"Y.Y.Y.Y.5 5 t z 6.n.M.B.A.D.S.D.S.l._ >   $ h ..D.S.S.S.S.D.S.S.S.D.D.S.S.S.D.S...h $   > _ z.D.S.S.S.A.B.M.n.6.V t 5 5 Y.Y.Y.Y.",
"Y.Y.Y.Y.5 5 t [ 6.s.M.N.Z.S.A.D.S.z.` 3 @ : ~ g.D.S.S.S.S.S.D.D.S.S.S.S.S.D.S.D.j.~ : @ 3 ` l.S.S.A.S.Z.B.M.n.6.V t 5 5 Y.Y.Y.Y.",
"Y.Y.Y.Y.5 5 t f 6.s.n.M.N.B.Z.A.S.v.g._ 3 ~ ] l.S.S.D.S.D.S.S.S.S.S.D.S.S.D.S.S.l.] ~ g ( ..v.S.A.A.B.N.N.s.s.6.V t 5 5 Y.Y.Y.Y.",
"Y.Y.Y.Y.5 5 t V 6.s.n.m.m.N.B.B.S.A.l.k.d.g.l.V.D.S.S.S.S.S.S.S.D.S.S.S.S.S.D.S.v.l...] k.c.A.S.Z.B.M.M.s.n.s.6.[ t 5 5 Y.Y.Y.Y.",
"Y.Y.Y.Y.5 5 t V 1.s.s.n.s.n.M.B.A.D.D.D.F.D.D.D.S.S.S.D.S.D.S.S.S.S.D.S.S.D.S.S.D.D.S.S.D.D.D.A.B.M.s.s.s.s.s.1.f t 5 5 Y.Y.Y.Y.",
"Y.Y.Y.Y.5 5 t f @.i.i.s.s.s.M.N.B.C.A.A.S.S.D.D.S.S.S.D.D.S.S.D.D.S.S.S.S.S.S.D.D.S.S.S.S.A.Z.B.N.M.s.s.s.u.i.1.[ 0 5 5 Y.Y.Y.Y.",
"Y.Y.Y.Y.5 5 e B O.q.r.s.s.s.n.m.M.N.B.A.S.D.S.S.D.S.S.S.S.S.S.S.S.S.D.S.S.D.S.S.D.D.D.S.C.Z.N.M.M.M.s.s.s.r.e.O.f r 5 5 Y.Y.Y.Y.",
"Y.Y.Y.Y.5 5 q M o.3.w.u.p.b.b.b.n.n.N.A.S.S.S.S.S.S.S.S.D.S.S.S.S.S.S.D.S.S.S.D.D.S.S.S.Z.N.m.n.s.s.s.s.u.w.,.+.M q 5 5 Y.Y.Y.Y.",
"Y.Y.Y.Y.5 5 r s C +.#.9.w.p.p.s.s.n.M.B.B.A.A.A.A.A.A.A.A.A.A.A.A.A.A.A.A.A.A.A.A.Z.A.A.N.M.n.s.s.s.s.t.9.#.+.C a r 5 5 Y.Y.Y.Y.",
"Y.Y.Y.Y.Y.Y.9 w u d Q  .7.r.i.p.s.n.m.M.N.N.N.N.N.N.N.N.N.N.N.N.N.N.N.N.N.N.N.N.N.N.N.N.N.n.n.s.s.i.r.5. .Q s u w 7 Y.Y.Y.Y.Y.Y.",
"Y.Y.Y.Y.Y.Y.Y.8 6 7 i Q O.q.w.i.s.s.n.n.M.n.M.M.M.n.M.n.M.n.M.M.m.m.m.M.n.m.m.M.m.n.m.n.m.n.s.p.u.r.q.O.B i 7 7 6 Y.Y.Y.Y.Y.Y.Y.",
"Y.Y.Y.Y.Y.Y.Y.Y.% % 8 d ! #.$.7.8.8.8.8.8.8.8.8.8.8.8.8.8.8.8.8.8.8.8.8.8.8.8.8.8.8.8.8.8.8.8.8.7.1.#.o.p 8 % % Y.Y.Y.Y.Y.Y.Y.Y.",
"Y.Y.Y.Y.Y.Y.Y.Y.Y.% 7 0 p f l l / / / / / / / / / / / / / / / / / / / / / / / / / / / / / / / / l f f p 0 7 % Y.Y.Y.Y.Y.Y.Y.Y.Y.",
"Y.Y.Y.Y.Y.Y.Y.Y.Y.Y.& * = = , , < < < < < < < < < < < < < < < < < < < < < < < < < < < < < < < < , ; ; ; * & Y.Y.Y.Y.Y.Y.Y.Y.Y.Y.",
"Y.Y.Y.Y.Y.Y.Y.Y.Y.Y.Y.o o o o o O O O O O O O O o o O O O O O O O O O O O O O O O O O O O o o o O O O O o Y.Y.Y.Y.Y.Y.Y.Y.Y.Y.Y.",
"Y.Y.Y.Y.Y.Y.Y.Y.Y.Y.Y.Y.o . . . . . . . . . . . . . . . . . . . . . . . . . . . o . . . . . . . o o o o Y.Y.Y.Y.Y.Y.Y.Y.Y.Y.Y.Y.",
"Y.Y.Y.Y.Y.Y.Y.Y.Y.Y.Y.Y.Y.Y.Y.Y.Y.Y.Y.Y.Y.Y.Y.Y.Y.Y.Y.Y.Y.Y.Y.Y.Y.Y.Y.Y.Y.Y.Y.Y.Y.Y.Y.Y.Y.Y.Y.Y.Y.Y.Y.Y.Y.Y.Y.Y.Y.Y.Y.Y.Y.Y.Y.Y.",
"Y.Y.Y.Y.Y.Y.Y.Y.Y.Y.Y.Y.Y.Y.Y.Y.Y.Y.Y.Y.Y.Y.Y.Y.Y.Y.Y.Y.Y.Y.Y.Y.Y.Y.Y.Y.Y.Y.Y.Y.Y.Y.Y.Y.Y.Y.Y.Y.Y.Y.Y.Y.Y.Y.Y.Y.Y.Y.Y.Y.Y.Y.Y.Y.",
"Y.Y.Y.Y.Y.Y.Y.Y.Y.Y.Y.Y.Y.Y.Y.Y.Y.Y.Y.Y.Y.Y.Y.Y.Y.Y.Y.Y.Y.Y.Y.Y.Y.Y.Y.Y.Y.Y.Y.Y.Y.Y.Y.Y.Y.Y.Y.Y.Y.Y.Y.Y.Y.Y.Y.Y.Y.Y.Y.Y.Y.Y.Y.Y.",
"Y.Y.Y.Y.Y.Y.Y.Y.Y.Y.Y.Y.Y.Y.Y.Y.Y.Y.Y.Y.Y.Y.Y.Y.Y.Y.Y.Y.Y.Y.Y.Y.Y.Y.Y.Y.Y.Y.Y.Y.Y.Y.Y.Y.Y.Y.Y.Y.Y.Y.Y.Y.Y.Y.Y.Y.Y.Y.Y.Y.Y.Y.Y.Y.",
"Y.Y.Y.Y.Y.Y.Y.Y.Y.Y.Y.Y.Y.Y.Y.Y.Y.Y.Y.Y.Y.Y.Y.Y.Y.Y.Y.Y.Y.Y.Y.Y.Y.Y.Y.Y.Y.Y.Y.Y.Y.Y.Y.Y.Y.Y.Y.Y.Y.Y.Y.Y.Y.Y.Y.Y.Y.Y.Y.Y.Y.Y.Y.Y.",
"Y.Y.Y.Y.Y.Y.Y.Y.Y.Y.Y.Y.Y.Y.Y.Y.Y.Y.Y.Y.Y.Y.Y.Y.Y.Y.Y.Y.Y.Y.Y.Y.Y.Y.Y.Y.Y.Y.Y.Y.Y.Y.Y.Y.Y.Y.Y.Y.Y.Y.Y.Y.Y.Y.Y.Y.Y.Y.Y.Y.Y.Y.Y.Y.",
"Y.Y.Y.Y.Y.Y.Y.Y.Y.Y.Y.Y.Y.Y.Y.Y.Y.Y.Y.Y.Y.Y.Y.Y.Y.Y.Y.Y.Y.Y.Y.Y.Y.Y.Y.Y.Y.Y.Y.Y.Y.Y.Y.Y.Y.Y.Y.Y.Y.Y.Y.Y.Y.Y.Y.Y.Y.Y.Y.Y.Y.Y.Y.Y."
};
