/* XPM */
static char *result[] = {
/* columns rows colors chars-per-pixel */
"64 64 193 2 ",
"   c #041229",
".  c #00143C",
"X  c #031333",
"o  c #14263D",
"O  c #001947",
"+  c #001847",
"@  c #001D54",
"#  c #001F5C",
"$  c #13294A",
"%  c #16335E",
"&  c #1E3657",
"*  c #1A3150",
"=  c #203449",
"-  c #002161",
";  c #042768",
":  c #062969",
">  c #163769",
",  c #002773",
"<  c #022C7E",
"1  c #0E357B",
"2  c #0D3277",
"3  c #10367C",
"4  c #153C7C",
"5  c #163A73",
"6  c #30485E",
"7  c #2C4868",
"8  c #344F66",
"9  c #33506D",
"0  c #385879",
"q  c #415D73",
"w  c #46647B",
"e  c #002F8C",
"r  c #00308D",
"t  c #063284",
"y  c #163F84",
"u  c #053692",
"i  c #18438C",
"p  c #194796",
"a  c #214C97",
"s  c #2A5795",
"d  c #25529A",
"f  c #3A6594",
"g  c #3A689C",
"h  c #0F42A3",
"j  c #1346A0",
"k  c #1B52B4",
"l  c #134DB9",
"z  c #2B5CA9",
"x  c #2858A3",
"c  c #265BB2",
"v  c #3A6AA3",
"b  c #3263A9",
"n  c #3A6CA9",
"m  c #3769A9",
"M  c #386BB7",
"N  c #3A73BC",
"B  c #2A61B1",
"V  c #436483",
"C  c #45688A",
"Z  c #4E718B",
"A  c #52738A",
"S  c #4F7494",
"D  c #577C97",
"F  c #0042C3",
"G  c #0748C6",
"H  c #094BC8",
"J  c #1254CD",
"K  c #1A57C9",
"L  c #0E51D0",
"P  c #1C5ED4",
"I  c #175BDB",
"U  c #245DC1",
"Y  c #1F60D5",
"T  c #2B65C8",
"R  c #356CC1",
"E  c #3E73C6",
"W  c #2B6DDC",
"Q  c #2566D7",
"!  c #3777DC",
"~  c #356ED2",
"^  c #0057FF",
"/  c #0158FF",
"(  c #0A5EFE",
")  c #085BF7",
"_  c #115BE1",
"`  c #0C60FF",
"'  c #1466FF",
"]  c #1768FF",
"[  c #1A6BFF",
"{  c #1D69F5",
"}  c #1F71FF",
"|  c #1862EC",
" . c #256AE8",
".. c #3879E6",
"X. c #216FFE",
"o. c #2372FF",
"O. c #2B75FF",
"+. c #2C7AFF",
"@. c #347DFE",
"#. c #3D7FFF",
"$. c #3077F3",
"%. c #437CD4",
"&. c #447AC1",
"*. c #5F849D",
"=. c #62879E",
"-. c #5D84A2",
";. c #658CA4",
":. c #628CAA",
">. c #6B93AA",
",. c #6B96B4",
"<. c #739DB5",
"1. c #75A1BB",
"2. c #78A4BB",
"3. c #3E82E4",
"4. c #3681FF",
"5. c #3C83FF",
"6. c #3D8AFF",
"7. c #4D85C1",
"8. c #4D89CB",
"9. c #5D97CB",
"0. c #5D98CF",
"q. c #4984D4",
"w. c #4E8AD4",
"e. c #528CD5",
"r. c #5D9AD4",
"t. c #5A98D8",
"y. c #7CAAC6",
"u. c #7EAEC9",
"i. c #75A3C0",
"p. c #4A8BED",
"a. c #4988E5",
"s. c #518DEE",
"d. c #599AEF",
"f. c #5799E8",
"g. c #4385FF",
"h. c #458AFF",
"j. c #4A8DFF",
"k. c #4687F4",
"l. c #4D94FF",
"z. c #4791FA",
"x. c #5395FE",
"c. c #559BFF",
"v. c #5A9DFF",
"b. c #5798F4",
"n. c #4C91E8",
"m. c #5DA3FF",
"M. c #5FA3F4",
"N. c #68A9EE",
"B. c #71B4EE",
"V. c #62A4FF",
"C. c #65AAFF",
"Z. c #6AACFF",
"A. c #65A8F4",
"S. c #6CB2FF",
"D. c #6EB4F7",
"F. c #71B5F1",
"G. c #72B6FF",
"H. c #75BAFE",
"J. c #78BDFF",
"K. c #7EC3FF",
"L. c #80AEC6",
"P. c #83B3CC",
"I. c #84B5D1",
"U. c #8BBDD6",
"Y. c #8FC2DC",
"T. c #8EC0D7",
"R. c #91C4DC",
"E. c #95C9E2",
"W. c #99CDE5",
"Q. c #92C7E1",
"!. c #9CD2EB",
"~. c #81C6FF",
"^. c #85CAFF",
"/. c #8ACDFF",
"(. c #8DD0FF",
"). c #93D4FF",
"_. c #9BDAFF",
"`. c #A0D7EF",
"'. c #A5DDF5",
"]. c #A1DEFF",
"[. c #A6E2FF",
"{. c #ADE7FF",
"}. c #B1E6FF",
"|. c #B3E9FF",
" X c #BBEDFF",
".X c #C1EFFF",
"XX c #C6F1FF",
"oX c #CDF4FF",
"OX c #D3F7FF",
"+X c #D6F8FF",
"@X c #DDFBFF",
"#X c #E0FCFF",
"$X c None",
/* pixels */
"$X$X$X$X$X$X$X$X$X$X$X$X$X$X$X$X$X$X$X$X$X$X$X$X$X$X$X$X$X$X$X$X$X$X$X$X$X$X$X$X$X$X$X$X$X$X$X$X$X$X$X$X$X$X$X$X$X$X$X$X$X$X$X$X",
"$X$X$X$X$X$X$X$X$X$X$X$X$X$X$X$X$X$X$X$X$X$X$X$X$X$X$X$X$X$X$X$X$X$X$X$X$X$X$X$X$X$X$X$X$X$X$X$X$X$X$X$X$X$X$X$X$X$X$X$X$X$X$X$X",
"$X$X$X$X$X$X$X$X$X$X$X$X$X$X$X$X$X$X$X$X$X$X$X$X$X$X$X$X$X$X$X$X$X$X$X$X$X$X$X$X$X$X$X$X$X$X$X$X$X$X$X$X$X$X$X$X$X$X$X$X$X$X$X$X",
"$X$X$X$X$X$X$X$X$X$X$X$X$X$X$X$X$X$X$X$X$X$X$X$X$X$X$X$X$X$X$X$X$X$X$X$X$X$X$X$X$X$X$X$X$X$X$X$X$X$X$X$X$X$X$X$X$X$X$X$X$X$X$X$X",
"$X$X$X$X$X$X$X$X$X$X$X$X$X$X$X$X$X$X$X$X$X$X$X$X$X$X$X$X$X$X$X$X$X$X$X$X$X$X$X$X$X$X$X$X$X$X$X$X$X$X$X$X$X$X$X$X$X$X$X$X$X$X$X$X",
"$X$X$X$X$X$X$X$X$X$X$X$X$X$X$X$X$X$X$X$X$X$X$X$X$X$X$X$X$X$X$X$X$X$X$X$X$X$X$X$X$X$X$X$X$X$X$X$X$X$X$X$X$X$X$X$X$X$X$X$X$X$X$X$X",
"$X$X$X$X$X$X$X$X$X$X$X$X$X$X$X$X$X$X$X$X$X$X$X$X$X$X$X$X$X$X$X$X$X$X$X$X$X$X$X$X$X$X$X$X$X$X$X$X$X$X$X$X$X$X$X$X$X$X$X$X$X$X$X$X",
"$X$X$X$X$X$X$X$X$X$X$X$X$X$X$X$X$X$X$X$X$X$X$X$X$X$X$X$X$X$X$X$X$X$X$X$X$X$X$X$X$X$X$X$X$X$X$X$X$X$X$X$X$X$X$X$X$X$X$X$X$X$X$X$X",
"$X$X$X$X$X$X$X$X$X$X$X$X$X$X$X$X$X$X$X$X$X$X$X$X$X$X$X$X$X$X$X$X$X$X$X$X$X$X$X$X$X$X$X$X$X$X$X$X$X$X$X$X$X$X$X$X$X$X$X$X$X$X$X$X",
"$X$X$X$X$X$X$X$X$X$X$X$X$X$X$X$X$X$X$X$X$X$X$X$X$X$X$X$X$X$X$X$X$X$X$X$X$X$X$X$X$X$X$X$X$X$X$X$X$X$X$X$X$X$X$X$X$X$X$X$X$X$X$X$X",
"$X$X$X$X$X$X$X$X$X$X$X$X$X$X$X$X$X$X$X$X$X$X$X$X$X$X$X$X$X$X$X$X$X$X$X$X$X$X$X$X$X$X$X$X$X$X$X$X$X$X$X$X$X$X$X$X$X$X$X$X$X$X$X$X",
"$X$X$X$X$X$X$X$X$X$X$X$X$X$X$X$X$X$X$X$X$X$X$X$X$X$X$X$X$X$X$X$X$X$X$X$X$X$X$X$X$X$X$X$X$X$X$X$X$X$X$X$X$X$X$X$X$X$X$X$X$X$X$X$X",
"$X$X$X$X$X$X$X$X$X$X$X$X$X$X$X$X$X$X$X$X$X$X$X$X$X$X$X$X$X$X$X$X$X$X$X$X$X$X$X$X$X$X$X$X$X$X$X$X$X$X$X$X$X$X$X$X$X$X$X$X$X$X$X$X",
"$X$X$X$X$X$X$X$X$X$X$X$X$X$X$X$X$X$X$X$X$X$X$X$X$X$X$X$X$X$X$X$X$X$X$X$X$X$X$X$X$X$X$X$X$X$X$X$X$X$X$X$X$X$X$X$X$X$X$X$X$X$X$X$X",
"$X$X$X$X$X$X$X$X$X$X$X$X$X$X$X$X$X$X$X$X$X$X$X$X$X$X5.#.#.#.#.#.#.#.#.#.#.#.#.#.#.$X$X$X$X$X$X$X$X$X$X$X$X$X$X$X$X$X$X$X$X$X$X$X",
"$X$X$X$X$X$X$X$X$X$X$X$X$X$X$X$X$X$X$X$X$X$X$X$X$X#.#.#.#.#.#.#.#.#.#.#.#.#.#.#.#.#.$X$X$X$X$X$X$X$X$X$X$X$X$X$X$X$X$X$X$X$X$X$X",
"$X$X$X$X$X$X$X$X$X$X$X$X$X$X$X$X$X$X$X$X$X$X$X$X$Xg.#.g.g.h.h.h.h.h.h.h.h.h.h.h.g.#.#.$X$X$X$X$X$X$X$X$X$X$X$X$X$X$X$X$X$X$X$X$X",
"$X$X$X$X$X$X$X$X$X$X$X$X$X$X$X$X$X$X$X$X$X$X$X$XO.#.j.j.x.x.v.v.v.v.c.m.v.v.x.l.j.h.@.X.$X$X$X$X$X$X$X$X$X$X$X$X$X$X$X$X$X$X$X$X",
"$X$X$X$X$X$X$X$X$X$X$X$X$X$X$X$X$X$X$X/ / / / ( O.5.l.v.V.C.S.S.S.S.S.S.Z.Z.V.v.x.h.@.[ / / / / / $X$X$X$X$X$X$X$X$X$X$X$X$X$X$X",
"$X$X$X$X$X$X$X$X$X$X$X$X$X$X$X$X$X$X/ / / / / ( X.5.x.V.Z.J.K.K.K.K.K.K.K.K.G.Z.v.j.@.' / / / / / / $X$X$X$X$X$X$X$X$X$X$X$X$X$X",
"$X$X$X$X$X$X$X$X$X$X$X$X$X$X$X$X$X` ] ] [ [ o.+.5.l.V.Z.J.~./././.^.(.(.(.^.K.G.Z.v.j.@.o.} } ' ] ' $X$X$X$X$X$X$X$X$X$X$X$X$X$X",
"$X$X$X$X$X$X$X$X$X$X$X$X$X$X$X$X` } O.+.@.6.6.l.v.V.S.J.~.)._._._._.)._._.)./.K.G.Z.m.c.j.6.6.4.+.o.' / $X$X$X$X$X$X$X$X$X$X$X$X",
"$X$X$X$X$X$X$X$X$X$X$X$X$X$X$X/ ` o.4.j.c.m.S.S.G.G.J.~.(.].].].[.[.[.[.[.[.).^.K.K.G.S.S.C.c.x.h.+.[ / / $X$X$X$X$X$X$X$X$X$X$X",
"$X$X$X$X$X$X$X$X$X$X$X$X$X$X) ( ] +.h.m.C.H.K.K.^.^.^.(.].]. X}.|.{.|.|.|.{.[.).^.^.^.^.~.J.S.V.x.5.X.( ( ) $X$X$X$X$X$X$X$X$X$X",
"$X$X$X$X$X$X$X$X$X$X$X$X$X_ { o.+.6.c.C.G.~./.(.(.(.)._.]. X.X.XXX XXX XXX X|.].).).).).).~.J.G.m.l.5.o.{ | $X$X$X$X$X$X$X$X$X$X",
"$X$X$X$X$X$X$X$X$X$X$X$XF I  .@.h.c.C.H.~./.).].].].].]. XXXoXoXOXoXoXOXoXoX.X}.]._._.]._.).~.J.S.m.l.5.$. .L F $X$X$X$X$X$X$X$X",
"$X$X$X$X$X$X$X$X$X$X$XF F P ..z.v.C.G.K./.).].{.{.{.{. XXXOX@X@X@X@X@X@X@X+XoX.X|.{.{.{.{._.).~.J.S.V.x.3. .J F F $X$X$X$X$X$X$X",
"$X$X$X$X$X$X$X$X$X$X$XF F P ..c.Z.G.K.^.)._.[.{.}.}. X.XoX+X#X#X#X#X#X#X#X@XOXoX X|.|.}.{.].).).~.J.G.V.p.W J F F $X$X$X$X$X$X$X",
"$X$X$X$X$X$X$X$X$X$X$XF F Q 3.M.G.~./.).].].{.{. X XXXOXOX+X#X#X#X#X#X#X#X#X+XOXoX.X X|.{.].]._.).~.J.S.n...J F F $X$X$X$X$X$X$X",
"$X$X$X$X$X$X$X$X$X$X$XF F Q a.A.J./.).].[.{.{.|..XXXOX+X@X#X#X#X#X#X#X#X#X#X#X+XOXOX.X X{.{.{.[._.).~.J.d.! J F F $X$X$X$X$X$X$X",
"$X$X$X$X$X$X$X$X$X$X$XG G W n.F./.)._.{.{.{.{.|..XoX@X#X#X#X#X#X#X#X#X#X#X#X#X#X#X+XoX X{.{.{.{.[._.).~.M.3.P G G $X$X$X$X$X$X$X",
"$X$X$X$X$X$X$X$X$X$XK K Q ..d.H.^.).].{.{.{.{.|..XOX@X#X#X#X#X#X#X#X#X#X#X#X#X#X@XOXoX X{.{.{.{.[._./.~.A.p.! Y K l $X$X$X$X$X$X",
"$X$X$X$X$X$X$X$Xr h K ~ ..z.M.K.^.)._.{.{.{.{.|.XXoX@X#X#X#X#X#X#X#X#X#X#X#X#X#X#X+XoX X{.{.{.{.[._.(.^.D.d.k...T k u $X$X$X$X$X",
"$X$X$X$X$X$X$Xr u h c ! x.M.S.K.^.)._.{.{.{.{.|. XOX#X#X#X#X#X#X#X#X#X#X#X#X#X#X@X+XoX X{.{.{.{.[._.(.K.H.C.v.p.~ k u e $X$X$X$X",
"$X$X$X$X$X$X$Xr r h T a.V.S.K.K.(._.[.{.{.{.{.{. XXX+X+X+X+X+X+XOXOX+XOX+X+XOX+X+XoXXX X{.{.{.{.[.].)./.K.G.C.b.~ c u e $X$X$X$X",
"$X$X$X$X$X$X$Xr e j R e.S.J.K.(._._.{.{.{.{.{.|.|.XXXXXXXXXXXXXXoXXXoXXXXXXXXXoXXXXX X|.{.{.{.{.{.[._.)./.K.H.M.%.c u e $X$X$X$X",
"$X$X$X$X$X$X$Xr r j E f.K.K.(._.[.[.{.{.{.{.{.{.|.|. X X X X X X X X X X X X X X X X|.{.{.{.{.{.{.[.[.[.).(.K.N.q.z u r $X$X$X$X",
"$X$X$X$X$X$X$Xr e j N t.K.(._.[.{.{.{.{.{.[.[.'.[.{.{.{.{.{.{.{.{.{.{.{.{.{.{.{.{.[.[.[.'.[.[.{.{.{.{.{.].).^.F.w.B u r $X$X$X$X",
"$X$X$X$X$X$X$X< < p N t.K.)._.[.{.{.{.{.!.Q.u.y.T.W.{.{.{.{.{.{.{.{.{.{.{.{.{.{.{.'.Q.I.2.I.W.].{.{.{.{.].)./.B.8.z t < $X$X$X$X",
"$X$X$X$X$X$X$X, , i N r.K.(._.[.{.{.{.{.Y.i.D S ,.U.'.{.{.{.{.{.{.{.{.{.{.{.{.{.{.!.u.:.C ;.u.!.{.{.{.{.].)./.B.8.x < , $X$X$X$X",
"$X$X$X$X$X$X$X; : 4 n r.K.)._.[.{.{.{.{.I.-.9 > S y.[.{.{.{.{.{.{.{.{.{.{.{.{.{.{.E.,.0 * f <.W.{.{.{.{.].).(.B.7.s : : $X$X$X$X",
"$X$X$X$X$X$X$X- - 4 n r.K.(._.[.{.{.{.|.u.S & $ V 1.'.{.{.{.{.{.{.{.{.{.{.{.{.{.{.R.-.9 . 9 ;.E.{.{.{.{.].).^.B.7.s : - $X$X$X$X",
"$X$X$X$X$X$X$X- - 4 n r.K.)._.[.{.{.{.{.u.Z & $ w 1.'.{.{.{.{.{.{.{.{.{.{.{.|.{.{.Y.-.7 X 8 ;.E.{.{.{.{.].).^.B.7.s : - $X$X$X$X",
"$X$X$X$X$X$X$X- : 4 n r.K.)._.[.{.{.{.{.u.A = o w 2.'.{.{.{.{.{.{.{.{.{.{.{.{.{.{.Y.*.8   8 ;.E.{.{.{.{.].).(.B.7.s : - $X$X$X$X",
"$X$X$X$X$X$X$X- - 4 n r.K.(._.[.{.{.{.{.u.A = o w 2.'.{.{.{.{.{.{.{.{.{.{.{.{.{.{.T.=.6   8 >.E.|.{.{.{.].).^.F.:.s : - $X$X$X$X",
"$X$X$X$X$X$X$X- - 4 n r.K.^.)._.'.[.{.{.T.>.w 0 =.P.'.|.{.{.{.{.{.|.{.{.|.{.{.{.{.W.2.A 6 *.2.W.{.[.[.]._.(.K.F.8.s : - $X$X$X$X",
"$X$X$X$X$X$X$X- - 4 n r.K.(.(.).)._.[.{.W.P.<.>.L.R.{.{.{.{.{.{.{.{.{.{.{.{.{.{.{.!.T.2.=.2.T.`.{.]._.).(./.K.F.7.d : - $X$X$X$X",
"$X$X$X$X$X$X$X- - 4 n 0.K.K.K.^./._.[.|.{.`.W.R.!.[.{.{.{.{.{.{.{.{.{.{.{.{.{.|.{.[.'.W.E.W.'.{.[.].).K.^.K.K.F.7.s : - $X$X$X$X",
"$X$X$X$X$X$X$X- - 4 m t.J.K.K.K.^.(._.[.[.[.[.[.[.[.[.[.[.[.[.[.[.[.[.[.[.[.[.[.[.[.[.[.[.[.[.[.].).(.K.K.K.K.N.7.d : # $X$X$X$X",
"$X$X$X$X$X$X$X- - 4 b e.G.G.J.K.^.(.)._._._._._._._._._._._._._._._._._._._._._._._._._._._._._.).(.(.K.K.J.S.N.&.a : - $X$X$X$X",
"$X$X$X$X$X$X$X- - 3 z q.C.Z.H.K.~.^./.(.(.(.(.(.(.(.(.(.(.(.(.(.(.(.(.(./.(.(.(./.(.(.(./.(.(.(.(.(.K.K.J.G.Z.d.N a : - $X$X$X$X",
"$X$X$X$X$X$X$X- - 3 z %.v.C.S.J.K.K.K.~.K.K.~.~.K.^.K.K.K.^.K.~.K.K.~.~.~.K.~.~.~.~.~.~.~.~.~.~.K.K.K.K.H.Z.V.s.R a : # $X$X$X$X",
"$X$X$X$X$X$X$X$X- 1 a M %.q.e.t.r.r.9.9.9.9.9.9.9.9.9.9.9.9.9.9.9.9.9.9.9.9.9.9.9.9.9.9.9.9.9.9.0.r.0.r.r.w.%.E c p ; - $X$X$X$X",
"$X$X$X$X$X$X$X$X$X2 p d z z b m n g g f f f f f f f f f f f f f f f f f f f f f f f f f f f f f g g v n m b z x a y $X$X$X$X$X$X",
"$X$X$X$X$X$X$X$X$X$X3 1 3 3 3 4 5 5 > % % % % % % % % % % % % % % % % % % % % % % % % % % % % % % > 5 4 4 4 3 3 3 $X$X$X$X$X$X$X",
"$X$X$X$X$X$X$X$X$X$X$X# - - - - # @ O . . . . . . . . . . . . . . . . . . . . . . . . . . . . . . $ # - - - - - - $X$X$X$X$X$X$X",
"$X$X$X$X$X$X$X$X$X$X$X$X- - - - # @ O . . . . . . . . + . . . . . . . . . . . . . . . . + . . . + O @ - - - - - $X$X$X$X$X$X$X$X",
"$X$X$X$X$X$X$X$X$X$X$X$X$X$X$X$X$X$X$X$X$X$X$X$X$X$X$X$X$X$X$X$X$X$X$X$X$X$X$X$X$X$X$X$X$X$X$X$X$X$X$X$X$X$X$X$X$X$X$X$X$X$X$X$X",
"$X$X$X$X$X$X$X$X$X$X$X$X$X$X$X$X$X$X$X$X$X$X$X$X$X$X$X$X$X$X$X$X$X$X$X$X$X$X$X$X$X$X$X$X$X$X$X$X$X$X$X$X$X$X$X$X$X$X$X$X$X$X$X$X",
"$X$X$X$X$X$X$X$X$X$X$X$X$X$X$X$X$X$X$X$X$X$X$X$X$X$X$X$X$X$X$X$X$X$X$X$X$X$X$X$X$X$X$X$X$X$X$X$X$X$X$X$X$X$X$X$X$X$X$X$X$X$X$X$X",
"$X$X$X$X$X$X$X$X$X$X$X$X$X$X$X$X$X$X$X$X$X$X$X$X$X$X$X$X$X$X$X$X$X$X$X$X$X$X$X$X$X$X$X$X$X$X$X$X$X$X$X$X$X$X$X$X$X$X$X$X$X$X$X$X",
"$X$X$X$X$X$X$X$X$X$X$X$X$X$X$X$X$X$X$X$X$X$X$X$X$X$X$X$X$X$X$X$X$X$X$X$X$X$X$X$X$X$X$X$X$X$X$X$X$X$X$X$X$X$X$X$X$X$X$X$X$X$X$X$X",
"$X$X$X$X$X$X$X$X$X$X$X$X$X$X$X$X$X$X$X$X$X$X$X$X$X$X$X$X$X$X$X$X$X$X$X$X$X$X$X$X$X$X$X$X$X$X$X$X$X$X$X$X$X$X$X$X$X$X$X$X$X$X$X$X",
"$X$X$X$X$X$X$X$X$X$X$X$X$X$X$X$X$X$X$X$X$X$X$X$X$X$X$X$X$X$X$X$X$X$X$X$X$X$X$X$X$X$X$X$X$X$X$X$X$X$X$X$X$X$X$X$X$X$X$X$X$X$X$X$X"
};
