/* XPM */
static char *result[] = {
/* columns rows colors chars-per-pixel */
"64 64 168 2 ",
"   c #091933",
".  c #00133B",
"X  c #091C3D",
"o  c #091E43",
"O  c #1E3147",
"+  c #0C2554",
"@  c #0F2954",
"#  c #102A54",
"$  c #1E385E",
"%  c #243B55",
"&  c #243E5D",
"*  c #012363",
"=  c #0B3077",
"-  c #0D3378",
";  c #163978",
":  c #244062",
">  c #364F65",
",  c #37536D",
"<  c #375678",
"1  c #375573",
"2  c #47657B",
"3  c #00308D",
"4  c #163D83",
"5  c #0F3E93",
"6  c #19428C",
"7  c #194698",
"8  c #19489D",
"9  c #254A85",
"0  c #204483",
"q  c #2C5385",
"w  c #305785",
"e  c #24509D",
"r  c #194DA7",
"t  c #154AA9",
"y  c #1D52A7",
"u  c #1950AA",
"i  c #2355AF",
"p  c #315FAB",
"a  c #2F5EB0",
"s  c #2D62BD",
"d  c #386AB8",
"f  c #476A8C",
"g  c #52748C",
"h  c #527792",
"j  c #527897",
"k  c #587F9F",
"l  c #587B91",
"z  c #4071B6",
"x  c #4679B6",
"c  c #0143C4",
"v  c #0E4FC4",
"b  c #0F51C8",
"n  c #1355CC",
"m  c #1A5CD5",
"M  c #165BDA",
"N  c #1E60D4",
"B  c #2F67C5",
"V  c #2261C4",
"C  c #326DC5",
"Z  c #3A6EC3",
"A  c #3A75C5",
"S  c #3F7AC5",
"D  c #2265D4",
"F  c #2A6DD2",
"G  c #3E77D7",
"H  c #3276DA",
"J  c #125AE2",
"K  c #0057FF",
"L  c #0058FF",
"P  c #0A5EFE",
"I  c #0D62FF",
"U  c #1265FF",
"Y  c #1C6DFF",
"T  c #1A65F1",
"R  c #1F70FF",
"E  c #256CEC",
"W  c #2F70E6",
"Q  c #3779E4",
"!  c #206EFD",
"~  c #2574FF",
"^  c #2975FF",
"/  c #2A7BFF",
"(  c #337CFD",
")  c #3D7FFF",
"_  c #4379D1",
"`  c #5E8299",
"'  c #5E86A6",
"]  c #4F83B6",
"[  c #648BA4",
"{  c #648EAC",
"}  c #6E97AE",
"|  c #6E9BB8",
" . c #729CB3",
".. c #709CBA",
"X. c #77A4BE",
"o. c #3F82E4",
"O. c #2F80FF",
"+. c #3D85FF",
"@. c #3D8AFF",
"#. c #4982D4",
"$. c #4284D9",
"%. c #7AA8C5",
"&. c #4E8EE4",
"*. c #4686E4",
"=. c #518CE7",
"-. c #508CEC",
";. c #5996E6",
":. c #5799E0",
">. c #5196E9",
",. c #5A9AE6",
"<. c #4287FF",
"1. c #4589FF",
"2. c #498AF5",
"3. c #4B93FF",
"4. c #4997FF",
"5. c #5397FF",
"6. c #569AFF",
"7. c #5899F3",
"8. c #5DA2FF",
"9. c #5FA9FF",
"0. c #5DA1F4",
"q. c #60A2E3",
"w. c #65A9EF",
"e. c #6BABE7",
"r. c #6FB0E7",
"t. c #66A9F5",
"y. c #62A4FF",
"u. c #66ABFF",
"i. c #6AADFF",
"p. c #67B0FF",
"a. c #6EB2FF",
"s. c #70B5F6",
"d. c #71B6FD",
"f. c #76BCFF",
"g. c #79BDFF",
"h. c #7ABBF5",
"j. c #7DC3FE",
"k. c #80AFC6",
"l. c #80AFC8",
"z. c #81B1CC",
"x. c #89BBD5",
"c. c #92C5DD",
"v. c #93C7E1",
"b. c #96CBE4",
"n. c #99CEE8",
"m. c #99CDE5",
"M. c #9DD3EB",
"N. c #80C6FF",
"B. c #84CAFF",
"V. c #8BCEFF",
"C. c #8DD0FF",
"Z. c #92D3FF",
"A. c #9BDAFF",
"S. c #A3DBF3",
"D. c #A2DFFF",
"F. c #A6E2FF",
"G. c #ADE7FF",
"H. c #AFE8FF",
"J. c #B3EAFF",
"K. c #BBEDFF",
"L. c #C0EFFF",
"P. c #C5F1FF",
"I. c #CCF4FF",
"U. c #D2F6FF",
"Y. c #D7F8FF",
"T. c #DBFAFF",
"R. c #E0FCFF",
"E. c None",
/* pixels */
"E.E.E.E.E.E.E.E.E.E.E.E.E.E.E.E.E.E.E.E.E.E.E.E.E.E.E.E.E.E.E.E.E.E.E.E.E.E.E.E.E.E.E.E.E.E.E.E.E.E.E.E.E.E.E.E.E.E.E.E.E.E.E.E.",
"E.E.E.E.E.E.E.E.E.E.E.E.E.E.E.E.E.E.E.E.E.E.E.E.E.E.E.E.E.E.E.E.E.E.E.E.E.E.E.E.E.E.E.E.E.E.E.E.E.E.E.E.E.E.E.E.E.E.E.E.E.E.E.E.",
"E.E.E.E.E.E.E.E.E.E.E.E.E.E.E.E.E.E.E.E.E.E.E.E.E.E.E.E.E.E.E.E.E.E.E.E.E.E.E.E.E.E.E.E.E.E.E.E.E.E.E.E.E.E.E.E.E.E.E.E.E.E.E.E.",
"E.E.E.E.E.E.E.E.E.E.E.E.E.E.E.E.E.E.E.E.E.E.E.E.E.E.E.E.E.E.E.E.E.E.E.E.E.E.E.E.E.E.E.E.E.E.E.E.E.E.E.E.E.E.E.E.E.E.E.E.E.E.E.E.",
"E.E.E.E.E.E.E.E.E.E.E.E.E.E.E.E.E.E.E.E.E.E.E.E.E.E.E.E.E.E.E.E.E.E.E.E.E.E.E.E.E.E.E.E.E.E.E.E.E.E.E.E.E.E.E.E.E.E.E.E.E.E.E.E.",
"E.E.E.E.E.E.E.E.E.E.E.E.E.E.E.E.E.E.E.E.E.E.E.E.E.E.E.E.E.E.E.E.E.E.E.E.E.E.E.E.E.E.E.E.E.E.E.E.E.E.E.E.E.E.E.E.E.E.E.E.E.E.E.E.",
"E.E.E.E.E.E.E.E.E.E.E.E.E.E.E.E.E.E.E.E.E.E.E.E.E.E.E.E.E.E.E.E.E.E.E.E.E.E.E.E.E.E.E.E.E.E.E.E.E.E.E.E.E.E.E.E.E.E.E.E.E.E.E.E.",
"E.E.E.E.E.E.E.E.E.E.E.E.E.E.E.E.E.E.E.E.E.E.E.E.E.E.E.E.E.E.E.E.E.E.E.E.E.E.E.E.E.E.E.E.E.E.E.E.E.E.E.E.E.E.E.E.E.E.E.E.E.E.E.E.",
"E.E.E.E.E.E.E.E.E.E.E.E.E.E.E.E.E.E.E.E.E.E.E.E.) ) ) ) ) ) ) ) ) ) ) ) ) ) ) ) E.E.E.E.E.E.E.E.E.E.E.E.E.E.E.E.E.E.E.E.E.E.E.E.",
"E.E.E.E.E.E.E.E.E.E.E.E.E.E.E.E.E.E.E.E.E.E.E.) ) ) ) ) ) ) ) +.) ) ) ) ) +.) ) ) E.E.E.E.E.E.E.E.E.E.E.E.E.E.E.E.E.E.E.E.E.E.E.",
"E.E.E.E.E.E.E.E.E.E.E.E.E.E.E.E.E.E.E.E.E.E.+.<.1.1.1.1.1.1.1.1.1.1.1.1.1.1.1.1.1.+.E.E.E.E.E.E.E.E.E.E.E.E.E.E.E.E.E.E.E.E.E.E.",
"E.E.E.E.E.E.E.E.E.E.E.E.E.E.E.E.E.E.E.E.E.~ +.3.6.6.6.6.6.5.6.6.6.6.6.5.6.6.6.5.3.+.~ E.E.E.E.E.E.E.E.E.E.E.E.E.E.E.E.E.E.E.E.E.",
"E.E.E.E.E.E.E.E.E.E.E.E.E.E.E.E.K K K K L R @.6.u.u.u.u.u.u.u.u.i.u.u.u.u.u.u.u.6.+.R L L L K K E.E.E.E.E.E.E.E.E.E.E.E.E.E.E.E.",
"E.E.E.E.E.E.E.E.E.E.E.E.E.E.E.K K K K K L R @.8.g.g.g.g.f.j.f.f.f.g.f.g.f.g.f.g.9.@.R L K L K K K E.E.E.E.E.E.E.E.E.E.E.E.E.E.E.",
"E.E.E.E.E.E.E.E.E.E.E.E.E.E.E.P I I I I I / 3.p.B.B.B.B.B.B.B.B.B.B.B.B.B.B.B.B.u.3./ I I I I P P E.E.E.E.E.E.E.E.E.E.E.E.E.E.E.",
"E.E.E.E.E.E.E.E.E.E.E.E.E.E.U Y R ~ ~ / O.4.9.f.Z.C.Z.Z.C.Z.Z.Z.Z.Z.Z.C.Z.Z.C.Z.f.9.4./ / / ~ Y Y U E.E.E.E.E.E.E.E.E.E.E.E.E.E.",
"E.E.E.E.E.E.E.E.E.E.E.E.L P Y ^ ( +.1.4.6.9.f.B.A.A.A.A.A.A.A.A.A.A.A.A.A.A.A.A.B.f.9.5.4.1.+.( ^ Y P L E.E.E.E.E.E.E.E.E.E.E.E.",
"E.E.E.E.E.E.E.E.E.E.E.E.K P ! ( 1.5.6.u.d.j.B.A.G.F.F.F.F.G.F.F.G.F.G.F.G.F.F.F.A.V.j.a.i.6.6.1.( ! P K E.E.E.E.E.E.E.E.E.E.E.E.",
"E.E.E.E.E.E.E.E.E.E.E.P P U ^ +.5.u.a.g.B.C.A.F.H.H.G.J.J.J.J.J.J.J.J.J.J.H.H.G.D.A.Z.N.g.a.y.6.+.~ U P P E.E.E.E.E.E.E.E.E.E.E.",
"E.E.E.E.E.E.E.E.E.E.J T ! ^ +.3.y.a.f.N.C.Z.A.F.G.J.J.K.P.K.K.P.P.K.K.P.K.J.J.G.F.A.Z.Z.N.f.d.y.4.+.^ ! T J E.E.E.E.E.E.E.E.E.E.",
"E.E.E.E.E.E.E.E.E.c M E ( +.3.8.i.g.N.C.A.A.F.G.G.J.L.I.I.I.I.I.I.I.I.I.I.K.J.H.F.F.A.A.V.N.f.i.8.3.<.( E M c E.E.E.E.E.E.E.E.E.",
"E.E.E.E.E.E.E.E.c c m W 2.5.y.i.f.N.V.A.F.F.F.G.G.K.P.U.T.T.T.T.Y.Y.Y.T.I.P.K.H.G.G.F.F.A.C.N.f.u.y.5.<.W m c c E.E.E.E.E.E.E.E.",
"E.E.E.E.E.E.E.E.c c m Q -.6.i.f.N.V.Z.A.G.H.H.J.J.K.I.Y.R.R.R.R.R.R.R.R.Y.I.P.J.J.H.G.G.D.Z.V.N.f.i.y.-.W m c c E.E.E.E.E.E.E.E.",
"E.E.E.E.E.E.E.E.c c N Q 7.i.f.N.V.Z.A.F.G.J.J.K.K.I.U.T.R.R.R.R.R.R.R.R.T.I.I.K.K.J.H.G.F.A.Z.V.N.f.i.7.Q N c c E.E.E.E.E.E.E.E.",
"E.E.E.E.E.E.E.E.c c D o.0.d.N.V.A.D.D.F.G.J.K.P.I.U.Y.T.R.R.R.R.R.R.R.R.T.T.U.I.P.K.J.G.F.F.A.A.V.j.f.0.*.D c c E.E.E.E.E.E.E.E.",
"E.E.E.E.E.E.E.E.c c D *.w.j.V.Z.D.F.F.G.J.J.P.I.T.T.T.T.R.R.R.R.R.R.R.R.R.R.T.T.I.L.K.G.G.F.F.D.Z.V.j.w.*.D c c E.E.E.E.E.E.E.E.",
"E.E.E.E.E.E.E.b b n H >.s.C.Z.A.G.G.J.G.G.J.P.U.R.R.R.R.R.R.R.R.R.R.R.R.R.R.T.R.U.I.K.G.G.H.G.F.D.Z.V.s.>.H n b v E.E.E.E.E.E.E.",
"E.E.E.E.E.E.u V F H >.w.j.Z.A.D.F.G.G.G.G.K.P.Y.R.R.R.R.R.R.R.R.R.R.R.R.R.R.R.R.U.P.J.G.G.G.G.G.F.A.C.j.w.&.H F V u E.E.E.E.E.E.",
"E.E.E.E.E.3 u C $.>.w.h.C.A.F.F.G.G.H.G.G.K.P.U.R.R.R.R.R.R.R.R.R.R.R.R.R.R.R.R.U.P.K.H.G.G.G.G.F.D.A.V.h.w.>.$.C u 3 E.E.E.E.E.",
"E.E.E.E.3 3 y d :.s.j.C.D.F.F.G.G.G.G.G.G.K.P.U.R.R.R.R.R.R.R.R.R.R.R.R.R.R.R.R.U.P.J.G.G.G.G.G.G.F.G.A.V.j.s.:.A y 3 3 E.E.E.E.",
"E.E.E.E.3 3 y S q.j.Z.A.F.G.G.G.G.G.G.G.G.J.P.I.T.T.R.T.R.R.R.R.R.R.R.R.R.T.T.Y.I.P.J.G.G.G.G.G.G.G.G.F.A.C.B.q.S y 3 3 E.E.E.E.",
"E.E.E.E.3 3 y _ q.j.C.A.F.G.G.G.G.G.G.G.G.J.K.P.I.U.T.T.R.R.R.R.R.R.R.R.T.Y.U.U.I.K.J.G.H.G.G.G.G.G.G.F.A.C.j.q.S y 3 3 E.E.E.E.",
"E.E.E.E.3 3 y S q.j.C.A.F.G.G.G.G.G.H.H.G.J.J.K.P.I.I.T.R.R.R.T.R.R.R.R.T.U.P.P.K.K.H.G.G.G.G.G.G.G.G.F.A.C.j.q.#.y 3 3 E.E.E.E.",
"E.E.E.E.3 3 y S q.j.C.A.F.G.H.G.H.G.G.H.G.H.J.J.J.K.I.Y.R.R.R.T.R.R.R.R.Y.I.K.J.H.H.H.H.G.H.G.G.G.G.G.F.A.C.j.q.S y 3 3 E.E.E.E.",
"E.E.E.E.3 3 y S q.j.C.A.F.G.G.G.G.F.S.M.m.M.A.F.G.J.I.U.Y.T.T.T.T.T.T.T.U.P.K.H.A.M.M.b.M.F.G.G.G.G.G.F.A.C.j.q.S y 3 3 E.E.E.E.",
"E.E.E.E.3 3 y S q.j.B.A.F.G.G.G.H.S.c.z.| %.x.M.H.J.K.P.U.I.I.U.I.I.I.I.I.K.J.G.n.c.%.| %.n.S.G.G.G.G.F.A.Z.j.q.S y 3 3 E.E.E.E.",
"E.E.E.E.3 3 e S q.j.A.A.F.G.G.G.H.M.%.{ f ' X.v.H.J.J.K.K.K.K.K.P.K.P.K.K.J.J.H.n.%.' f { %.M.G.G.G.G.F.A.C.B.q.#.y 3 3 E.E.E.E.",
"E.E.E.E.3 3 y S q.j.C.A.F.G.G.G.G.b...f $ < ' z.H.H.J.J.H.H.K.J.J.J.J.J.J.H.H.G.%.{ < $ f | m.G.G.G.G.F.A.C.j.q.S y 3 3 E.E.E.E.",
"E.E.E.E.3 3 y S e.j.C.A.F.G.G.G.H.c.{ < o : j z.G.G.G.H.G.H.G.H.G.G.H.G.H.G.G.G.%.` : o < } c.H.G.G.G.F.A.C.j.q.S y 3 3 E.E.E.E.",
"E.E.E.E.3 3 y $.q.j.C.Z.F.G.G.G.G.b.{ < X & j %.H.G.G.G.G.G.G.G.G.G.G.G.G.G.G.H.%.h & X < { c.G.G.G.G.F.Z.C.j.q.S y 3 3 E.E.E.E.",
"E.E.E.E.3 3 y #.q.j.Z.A.F.H.G.G.H.c.[ ,   % l %.G.H.G.H.G.G.G.G.G.G.G.G.G.G.G.G.%.l %   , [ m.H.G.G.G.F.A.C.j.q.S y 3 3 E.E.E.E.",
"E.E.E.E.3 3 y d q.j.C.A.F.G.G.G.H.c.[ ,   % l %.G.G.G.G.H.G.G.G.G.H.G.G.G.H.G.H.z.g %   , [ c.G.G.G.G.F.A.Z.j.q.S y 3 3 E.E.E.E.",
"E.E.E.E.3 3 y #.q.j.V.A.D.F.F.G.G.b.} 2 O > ` z.G.H.G.G.G.H.G.H.H.G.H.G.G.G.H.G.z.` > O 2 } c.G.G.F.F.D.A.C.j.q.S y 3 3 E.E.E.E.",
"E.E.E.E.3 3 y S q.j.B.Z.A.A.F.F.G.M.%.[ 2 ` X.c.G.G.H.G.G.G.G.G.G.G.G.G.G.G.G.G.c. .` 2 [ X.M.G.F.F.D.A.C.j.j.q.S y 3 3 E.E.E.E.",
"E.E.E.E.3 3 e ] q.j.j.C.C.Z.A.D.G.S.c.%.} X.c.m.G.H.G.H.G.G.H.G.G.G.G.G.H.G.G.G.M.c.X. .k.c.S.G.D.A.Z.C.B.j.j.q.#.y 3 3 E.E.E.E.",
"E.E.E.E.3 3 r $.q.j.j.B.j.V.Z.A.F.G.S.M.b.m.S.S.G.G.G.G.G.G.G.G.G.G.G.G.G.G.G.H.S.M.m.m.M.S.F.G.A.Z.C.j.j.j.j.e.d y 3 3 E.E.E.E.",
"E.E.E.E.3 3 r d q.j.j.j.j.B.C.A.D.G.G.G.G.G.H.H.G.H.H.G.H.G.G.G.H.G.G.G.G.G.G.G.G.G.H.G.H.G.F.D.A.C.j.j.j.j.j.:.#.y 3 3 E.E.E.E.",
"E.E.E.E.3 3 u A :.p.j.j.j.B.V.C.A.A.S.G.G.G.H.H.G.G.G.G.G.G.G.H.G.G.G.H.G.H.G.G.G.G.G.G.G.D.A.A.C.C.C.j.j.j.d.:.A 8 3 3 E.E.E.E.",
"E.E.E.E.3 3 r C &.u.d.d.g.N.V.V.Z.A.A.F.G.G.G.G.G.H.G.G.H.G.G.G.G.G.G.G.G.G.H.G.G.G.G.G.F.A.Z.C.C.C.j.j.f.a.u.=.Z u 3 3 E.E.E.E.",
"E.E.E.E.3 3 t B *.y.u.d.g.N.N.N.j.C.Z.D.G.G.G.G.G.G.H.G.H.H.G.G.G.G.G.G.G.G.G.G.H.G.G.G.A.A.C.B.j.j.j.j.d.u.y.G B t 3 3 E.E.E.E.",
"E.E.E.E.3 3 t s _ -.6.t.d.j.j.j.j.C.Z.A.D.F.F.F.F.F.F.F.F.F.F.F.G.F.G.F.F.G.G.F.F.F.F.F.A.C.B.j.j.j.j.j.t.7.-.G s t 3 3 E.E.E.E.",
"E.E.E.E.E.3 8 y a Z #.;.t.d.f.j.j.j.C.Z.A.A.A.D.A.D.A.A.A.A.A.D.A.A.A.A.A.A.A.A.A.A.A.A.Z.C.B.j.j.j.j.0.;.#.A s i t 3 E.E.E.E.E.",
"E.E.E.E.E.E.7 7 e e d _ ,.u.d.f.j.j.V.C.C.C.C.C.C.Z.Z.Z.C.Z.Z.Z.C.Z.C.Z.Z.C.Z.Z.Z.Z.C.C.V.B.B.j.p.p.p.7.#.d e e 7 5 E.E.E.E.E.E.",
"E.E.E.E.E.E.E.- = - i Z =.y.i.d.j.j.j.B.V.B.V.V.B.B.B.B.B.B.B.B.B.B.B.B.B.V.B.B.B.B.B.B.B.B.j.j.d.p.y.=.d e - - = E.E.E.E.E.E.E.",
"E.E.E.E.E.E.E.E.* * 0 a _ =.;.q.e.r.r.r.r.r.r.r.r.r.r.r.r.r.r.r.r.r.r.r.r.r.r.r.r.r.r.r.r.r.r.e.q.q.-._ s 6 * * E.E.E.E.E.E.E.E.",
"E.E.E.E.E.E.E.E.E.* 4 e p d z x ] ] ] ] ] ] ] ] ] ] ] ] ] ] ] ] ] ] ] ] ] ] ] ] ] ] ] ] ] ] ] ] x d d p e ; * E.E.E.E.E.E.E.E.E.",
"E.E.E.E.E.E.E.E.E.E.; ; 0 9 9 q w w w w w w w w w w w w w w w w w w w w w w w w w w w w w w w q q 9 9 0 ; ; E.E.E.E.E.E.E.E.E.E.",
"E.E.E.E.E.E.E.E.E.E.E.+ + + + + @ # @ # # # # # # # # # # # # # # # # # # # # # # # # # # # # @ @ + + + + E.E.E.E.E.E.E.E.E.E.E.",
"E.E.E.E.E.E.E.E.E.E.E.E.. . . . . . . . . . . . . . . . . . . . . . . . . . . . . . . . . . . . . . . . E.E.E.E.E.E.E.E.E.E.E.E.",
"E.E.E.E.E.E.E.E.E.E.E.E.. . . . . . . . . . . . . . . . . . . . . . . . . . . . . . . . . . . . . . . . E.E.E.E.E.E.E.E.E.E.E.E.",
"E.E.E.E.E.E.E.E.E.E.E.E.E.E.E.E.E.E.E.E.E.E.E.E.E.E.E.E.E.E.E.E.E.E.E.E.E.E.E.E.E.E.E.E.E.E.E.E.E.E.E.E.E.E.E.E.E.E.E.E.E.E.E.E.",
"E.E.E.E.E.E.E.E.E.E.E.E.E.E.E.E.E.E.E.E.E.E.E.E.E.E.E.E.E.E.E.E.E.E.E.E.E.E.E.E.E.E.E.E.E.E.E.E.E.E.E.E.E.E.E.E.E.E.E.E.E.E.E.E.",
"E.E.E.E.E.E.E.E.E.E.E.E.E.E.E.E.E.E.E.E.E.E.E.E.E.E.E.E.E.E.E.E.E.E.E.E.E.E.E.E.E.E.E.E.E.E.E.E.E.E.E.E.E.E.E.E.E.E.E.E.E.E.E.E.",
"E.E.E.E.E.E.E.E.E.E.E.E.E.E.E.E.E.E.E.E.E.E.E.E.E.E.E.E.E.E.E.E.E.E.E.E.E.E.E.E.E.E.E.E.E.E.E.E.E.E.E.E.E.E.E.E.E.E.E.E.E.E.E.E."
};
