/* XPM */
static char *result[] = {
/* columns rows colors chars-per-pixel */
"64 64 118 2 ",
"   c #171717",
".  c #1C1A16",
"X  c #161818",
"o  c #181B19",
"O  c #221D16",
"+  c #1B231D",
"@  c #1E2B1F",
"#  c #272016",
"$  c #2B2215",
"%  c #22241B",
"&  c #2A2518",
"*  c #252B1D",
"=  c #312615",
"-  c #352915",
";  c #3C2C14",
":  c #342B19",
">  c #2C301F",
",  c #3E3217",
"<  c #34351E",
"1  c #3D3A1D",
"2  c #1B2620",
"3  c #1C2B23",
"4  c #1E3125",
"5  c #1E3629",
"6  c #202920",
"7  c #233425",
"8  c #2C3A25",
"9  c #213E2E",
"0  c #323D24",
"q  c #402E14",
"w  c #453315",
"e  c #483414",
"r  c #4C3815",
"t  c #41361D",
"y  c #4C3C1D",
"u  c #533D15",
"i  c #523E19",
"p  c #24422D",
"a  c #2B442B",
"s  c #294A2F",
"d  c #3D4B26",
"f  c #334629",
"g  c #374B2B",
"h  c #3A4C29",
"j  c #3C532C",
"k  c #234331",
"l  c #264A32",
"z  c #294F34",
"x  c #2A5335",
"c  c #2E5B36",
"v  c #2D5B38",
"b  c #325634",
"n  c #335934",
"m  c #3D5B32",
"M  c #365E38",
"N  c #32643A",
"B  c #3A6238",
"V  c #346B3D",
"C  c #3A6E3D",
"Z  c #3D733F",
"A  c #574015",
"S  c #594317",
"D  c #5C4618",
"F  c #5E491B",
"G  c #624D1B",
"H  c #67521D",
"J  c #4D4023",
"K  c #524424",
"L  c #5D4B24",
"P  c #445629",
"I  c #675220",
"U  c #6C5723",
"Y  c #675529",
"T  c #6E5A2A",
"R  c #725C27",
"E  c #4D622D",
"W  c #456535",
"Q  c #4C6C36",
"!  c #426D3D",
"~  c #43743E",
"^  c #4A723C",
"/  c #4E7B3E",
"(  c #537235",
")  c #5E7932",
"_  c #50773A",
"`  c #76602C",
"'  c #78612C",
"]  c #427740",
"[  c #457A41",
"{  c #4B7E42",
"}  c #5F843B",
"|  c #648135",
" . c #688737",
".. c #6E923C",
"X. c #789B3C",
"o. c #4C8043",
"O. c #528444",
"+. c #5A8741",
"@. c #558945",
"#. c #598C46",
"$. c #5D9046",
"%. c #618D41",
"&. c #639546",
"*. c #699542",
"=. c #679946",
"-. c #6B9D47",
";. c #749D40",
":. c #6EA147",
">. c #73A547",
",. c #77A947",
"<. c #7AAB47",
"1. c #7FB047",
"2. c #84AD41",
"3. c #83B246",
"4. c #89B545",
"5. c #8BBA47",
"6. c #93C147",
"7. c None",
/* pixels */
"7.7.7.7.7.7.7.7.7.7.7.7.7.7.7.7.7.7.7.7.7.7.7.7.7.7.7.7.                7.7.7.7.7.7.7.7.7.7.7.7.7.7.7.7.7.7.7.7.7.7.7.7.7.7.7.7.",
"7.7.7.7.7.7.7.7.7.7.7.7.7.7.7.7.7.7.7.7.7.7.7.7.7.7.7.7.                7.7.7.7.7.7.7.7.7.7.7.7.7.7.7.7.7.7.7.7.7.7.7.7.7.7.7.7.",
"7.7.7.7.7.7.7.7.7.7.7.7.7.7.7.7.7.7.7.7.7.7.7.7.7.7.7.7.& * * * * > * * 7.7.7.7.7.7.7.7.7.7.7.7.7.7.7.7.7.7.7.7.7.7.7.7.7.7.7.7.",
"7.7.7.7.7.7.7.7.7.7.7.7.7.7.7.7.7.7.7.7.7.7.7.7.7.7.7.0 P P P P P P P d f 7.7.7.7.7.7.7.7.7.7.7.7.7.7.7.7.7.7.7.7.7.7.7.7.7.7.7.",
"7.7.7.7.7.7.7.7.7.7.7.7.7.7.7.7.7.7.7.7.7.7.7.7.7.o * P E ) | | | | ) E d *   7.7.7.7.7.7.7.7.7.7.7.7.7.7.7.7.7.7.7.7.7.7.7.7.7.",
"7.7.7.7.7.7.7.7.7.7.7.7.7.7.7.7.7.7.7.7.7.7.7.7.o   > P ) X.2.2.2.2.X.) P *     7.7.7.7.7.7.7.7.7.7.7.7.7.7.7.7.7.7.7.7.7.7.7.7.",
"7.7.7.7.7.7.7.7.7.7.7.7.7.7.7.7.7.7.7.7.7.7.7.7.% + 8 P  .2.6.6.5.6.2. .E 8 % % 7.7.7.7.7.7.7.7.7.7.7.7.7.7.7.7.7.7.7.7.7.7.7.7.",
"7.7.7.7.7.7.7.7.7.7.7.7.7.7.7.7.7.7.7.7.7.7.7.7 8 f j ( ..2.6.6.6.6.4...( j a 8 7 7.7.7.7.7.7.7.7.7.7.7.7.7.7.7.7.7.7.7.7.7.7.7.",
"7.7.7.7.7.7.7.7.7.7.7.7.7.7.7.7.7.7.7.7.7.o % 8 g m Q } >.3.6.6.6.6.5.X.} Q m g 8 + o 7.7.7.7.7.7.7.7.7.7.7.7.7.7.7.7.7.7.7.7.7.",
"7.7.7.7.7.7.7.7.7.7.7.7.7.7.7.7.7.7.7.7.X   + a m ^ @...,.5.6.6.6.6.5.<.*.+.^ m a % X o 7.7.7.7.7.7.7.7.7.7.7.7.7.7.7.7.7.7.7.7.",
"7.7.7.7.7.7.7.7.7.7.7.7.7.7.7.7.7.7.7.7.    % f W / &.>.<.5.6.5.6.5.4.2.:.&./ W f % X   7.7.7.7.7.7.7.7.7.7.7.7.7.7.7.7.7.7.7.7.",
"7.7.7.7.7.7.7.7.7.7.7.7.7.7.7.7.7.7.7.7.    % g W +.-.>.<.3.5.5.5.5.3.<.>.-.} Q f %     7.7.7.7.7.7.7.7.7.7.7.7.7.7.7.7.7.7.7.7.",
"7.7.7.7.7.7.7.7.7.7.7.7.7.7.7.7.7.7.7.7.    * g Q %.:.>.<.1.1.3.1.1.1.<.,.:.#.Q g *     7.7.7.7.7.7.7.7.7.7.7.7.7.7.7.7.7.7.7.7.",
"7.7.7.7.7.7.7.7.7.7.7.7.7.7.7.7.7.7.7.7.    * h ( *.>.,.,.<.<.<.<.<.<.,.,.>...( h %     7.7.7.7.7.7.7.7.7.7.7.7.7.7.7.7.7.7.7.7.",
"7.7.7.7.7.7.7.7.7.7.7.7.7.7.7.7.7.7.7.7.+ + * j ( ..>.,.,.,.,.,.,.,.,.,.>.>.=.( j 7 + o 7.7.7.7.7.7.7.7.7.7.7.7.7.7.7.7.7.7.7.7.",
"7.7.7.7.7.7.7.7.7.7.7.7.7.7.7.7.7.7.7.@ 4 4 a m / &.-.>.>.,.,.,.,.,.,.>.>.:.&.^ m a 7 7 * 7.7.7.7.7.7.7.7.7.7.7.7.7.7.7.7.7.7.7.",
"7.7.7.7.7.7.7.7.7.7.7.7.7.7.7.7.7.o + * 9 s b B { #.=.:.:.,.,.,.,.,.>.>.-.=.#./ W b a 9 7 o o 7.7.7.7.7.7.7.7.7.7.7.7.7.7.7.7.7.",
"7.7.7.7.7.7.7.7.7.7.7.7.7.7.7.7.o   + 7 a c N ~ o.#.$.=.:.>.,.,.,.<.>.-.=.&.#.o.Z N c p 7 + X o 7.7.7.7.7.7.7.7.7.7.7.7.7.7.7.7.",
"7.7.7.7.7.7.7.7.7.7.7.7.7.7.7.7.o o 2 9 x V Z / o.@.$.$.=.>.>.>.>.>.>.=.=.#.@.o./ Z B x 7 3 X o 7.7.7.7.7.7.7.7.7.7.7.7.7.7.7.7.",
"7.7.7.7.7.7.7.7.7.7.7.7.7.7.7.+ + + 7 p c V Z } O.#.$.$.=.=.:.-.:.-.=.=.&.#.@.o.o.[ C n a 7 2 2 + 7.7.7.7.7.7.7.7.7.7.7.7.7.7.7.",
"7.7.7.7.7.7.7.7.7.7.7.7.7.X o + 3 4 7 z B ~ o.O.@.@.#.$.$.$.:.$.=.=.&.$.$.#.#.@.o.o.~ B z 7 4 3 + o   7.7.7.7.7.7.7.7.7.7.7.7.7.",
"7.7.7.7.7.7.7.7.7.7.7.7.X X o + 3 7 s b ! / @.@.@.#.#.#.$.$.#.$.#.$.$.$.#.#.#.@.@.@.{ ~ n p 5 4 + o o X 7.7.7.7.7.7.7.7.7.7.7.7.",
"7.7.7.7.7.7.7.7.7.7.7.7.    o @ 5 9 z M ~ O.@.@.@.#.#.#.$.#.@.#.#.#.#.#.#.#.#.@.@.@.o.! B l p 5 3 o o   7.7.7.7.7.7.7.7.7.7.7.7.",
"7.7.7.7.7.7.7.7.7.7.7.7.    + 3 7 l x B C ~ o.O.@.@.#.#.#.#.#.#.#.#.@.#.#.#.@.O.O.o./ C N x s 7 3 o     7.7.7.7.7.7.7.7.7.7.7.7.",
"7.7.7.7.7.7.7.7.7.7.7.7.    + @ k x v N Z Z [ o.O.@.$.@.#.#.#.#.#.#.#.#.#.#.@.O.o.Z Z V V c x p 7 o     7.7.7.7.7.7.7.7.7.7.7.7.",
"7.7.7.7.7.7.7.7.7.7.7.7.    + 4 s v N V V V Z [ o.@.@.$.#.@.#.#.#.#.@.@.#.#.@.o.o.Z Z V V V c s 7 +     7.7.7.7.7.7.7.7.7.7.7.7.",
"7.7.7.7.7.7.7.7.7.7.7.7.    + 7 l M V V V V Z ~ o.o.@.O.@.@.@.@.O.@.@.@.O.O.O.{ ~ Z V V V V c s 7 +     7.7.7.7.7.7.7.7.7.7.7.7.",
"7.7.7.7.7.7.7.7.7.7.7.7.    + 7 s N V V V V V Z ] o.o.o.o.o.o.o.o.o.o.o.o.o.o.] Z V V V V V N s 7 +     7.7.7.7.7.7.7.7.7.7.7.7.",
"7.7.7.7.7.7.7.7.7.7.7.7.    + 7 s N V V V V V V Z ] ] ] ] ] ] ] ] ] ] Z ] ] Z Z V V V V V V N s 4 +     7.7.7.7.7.7.7.7.7.7.7.7.",
"7.7.7.7.7.7.7.7.7.7.7.7.    + 7 s c V V V V V V Z V C C V Z V Z Z V Z Z C Z Z V V V V V V V c s 7 +     7.7.7.7.7.7.7.7.7.7.7.7.",
"7.7.7.7.7.7.7.7.7.7.7.7.    + 7 s c N V V V V V V V V V V V V V V V V V V V V V V V V V V V c a 4 +     7.7.7.7.7.7.7.7.7.7.7.7.",
"7.7.7.7.7.7.7.7.7.7.7.7.    o 4 p x c N N V V V V V V V V V V V V V V V V V V V V V V N N c x p @ +     7.7.7.7.7.7.7.7.7.7.7.7.",
"7.7.7.7.7.7.7.7.7.7.7.7.  X o 3 9 k z v v V V V V V V V V V V V V V V V V V V V V V V v v x l 9 3 2 X X 7.7.7.7.7.7.7.7.7.7.7.7.",
"7.7.7.7.7.7.7.7.7.7.7.7.  X o 3 5 k k v v N V V V V V V V V V V V V V V V V V V V V N v x l 9 5 2 X X X 7.7.7.7.7.7.7.7.7.7.7.7.",
"7.7.7.7.7.7.7.7.7.7.7.7.    o 2 5 5 k l v N V N N N N N N N N N V N N N N N N N N N v v z k 9 3 2 X X   7.7.7.7.7.7.7.7.7.7.7.7.",
"7.7.7.7.7.7.7.7.7.7.7.7.    o 2 3 9 k l l v v v v v v v v v v v v v v v v v v v v v v z l k 9 3 2 X     7.7.7.7.7.7.7.7.7.7.7.7.",
"7.7.7.7.7.7.7.7.7.7.7.7.    o 2 5 5 k k l l z z z z z z z z z z z z z l z z z z z z z l k k 5 4 2 X X   7.7.7.7.7.7.7.7.7.7.7.7.",
"7.7.7.7.7.7.7.7.7.7.7.7.    o 2 3 9 k 9 9 k k k k k k k k k l k k k k k k k k k k k k k k k 9 4 2 o X X 7.7.7.7.7.7.7.7.7.7.7.7.",
"7.7.7.7.7.7.7.7.7.7.7.7.X o o + 3 5 9 9 9 9 9 k 9 9 k 9 9 k k 9 k k 9 9 9 k k k 9 9 9 9 5 9 5 3 2 X X X 7.7.7.7.7.7.7.7.7.7.7.7.",
"7.7.7.7.7.7.7.7.7.7.7.7.7.o o + 2 3 5 5 9 9 9 9 9 k 9 9 9 9 9 9 9 9 k 9 9 9 9 9 9 9 9 9 4 5 3 2 2 X X 7.7.7.7.7.7.7.7.7.7.7.7.7.",
"7.7.7.7.7.7.7.7.7.7.7.7.7.  o o 2 2 3 5 5 9 9 9 9 k 9 k 9 9 k 9 k 9 k 9 9 9 9 9 9 9 9 5 3 3 2 2 o o   7.7.7.7.7.7.7.7.7.7.7.7.7.",
"7.7.7.7.7.7.7.7.7.7.7.7.7.7.  o X X o 2 5 5 9 9 p k 9 9 9 9 9 9 9 9 9 9 9 9 k 9 9 k 5 5 3 + o X o X 7.7.7.7.7.7.7.7.7.7.7.7.7.7.",
"7.7.7.7.7.7.7.7.7.7.7.7.7.7.7.  X X X 2 3 5 9 9 9 7 9 9 9 9 9 9 9 9 9 9 9 9 9 9 9 5 5 3 + o       7.7.7.7.7.7.7.7.7.7.7.7.7.7.7.",
"7.7.7.7.7.7.7.7.7.7.7.7.7.7.7.  X X X 2 2 3 3 5 7 7 7 8 8 0 0 0 0 0 9 9 8 8 6 7 4 5 3 3 + o X     7.7.7.7.7.7.7.7.7.7.7.7.7.7.7.",
"7.7.7.7.7.7.7.7.7.7.7.7.7.7.7.7.  X o o 2 2 3 3 * * > < < 1 t t t t 1 < < 7 > * 3 2 2 + o o     7.7.7.7.7.7.7.7.7.7.7.7.7.7.7.7.",
"7.7.7.7.7.7.7.7.7.7.7.7.7.7.7.7.7.7.X o X X o o & $ - : 1 w r e r r e , - - & % O o o o o X 7.7.7.7.7.7.7.7.7.7.7.7.7.7.7.7.7.7.",
"7.7.7.7.7.7.7.7.7.7.7.7.7.7.7.7.7.7.7.X X o o O $ $ - ; e r u u u u r w q - = $ O . . o X 7.7.7.7.7.7.7.7.7.7.7.7.7.7.7.7.7.7.7.",
"7.7.7.7.7.7.7.7.7.7.7.7.7.7.7.7.7.7.7.. O O O & = - , e r u u u u A u r e ; - = & O O . . 7.7.7.7.7.7.7.7.7.7.7.7.7.7.7.7.7.7.7.",
"7.7.7.7.7.7.7.7.7.7.7.7.7.7.7.7.7.7.7.O O O O - ; q q r i S D D D D S u r e q - $ $ O O O 7.7.7.7.7.7.7.7.7.7.7.7.7.7.7.7.7.7.7.",
"7.7.7.7.7.7.7.7.7.7.7.7.7.7.7.7.7.7.7.O O & = - q e r u S G G G G G G S u r e q - = $ # O 7.7.7.7.7.7.7.7.7.7.7.7.7.7.7.7.7.7.7.",
"7.7.7.7.7.7.7.7.7.7.7.7.7.7.7.7.7.7.7.O & = - - q e r u D G I I G H G D u r e q ; = $ # O 7.7.7.7.7.7.7.7.7.7.7.7.7.7.7.7.7.7.7.",
"7.7.7.7.7.7.7.7.7.7.7.7.7.7.7.7.7.7.7.O O O = - q q r u F I U U U U I G i e q ; - $ $ O O 7.7.7.7.7.7.7.7.7.7.7.7.7.7.7.7.7.7.7.",
"7.7.7.7.7.7.7.7.7.7.7.7.7.7.7.7.7.7.7.7.O O O : = ; q y L U R R R R U L y w - - = $ O . 7.7.7.7.7.7.7.7.7.7.7.7.7.7.7.7.7.7.7.7.",
"7.7.7.7.7.7.7.7.7.7.7.7.7.7.7.7.7.7.7.7.7.7.O & $ = ; y L T ' ' ' ' R L y ; = $ $ O 7.7.7.7.7.7.7.7.7.7.7.7.7.7.7.7.7.7.7.7.7.7.",
"7.7.7.7.7.7.7.7.7.7.7.7.7.7.7.7.7.7.7.7.7.7.7.O O = - y L T ' ' ' R T L y : $ $ O 7.7.7.7.7.7.7.7.7.7.7.7.7.7.7.7.7.7.7.7.7.7.7.",
"7.7.7.7.7.7.7.7.7.7.7.7.7.7.7.7.7.7.7.7.7.7.7.O O $ - t J L Y Y Y Y L J 1 = $ O O 7.7.7.7.7.7.7.7.7.7.7.7.7.7.7.7.7.7.7.7.7.7.7.",
"7.7.7.7.7.7.7.7.7.7.7.7.7.7.7.7.7.7.7.7.7.7.7.7.O O O < t K K K K K K t : & O O 7.7.7.7.7.7.7.7.7.7.7.7.7.7.7.7.7.7.7.7.7.7.7.7.",
"7.7.7.7.7.7.7.7.7.7.7.7.7.7.7.7.7.7.7.7.7.7.7.7.7.7.7.7.7.7.7.7.7.7.7.7.7.7.7.7.7.7.7.7.7.7.7.7.7.7.7.7.7.7.7.7.7.7.7.7.7.7.7.7.",
"7.7.7.7.7.7.7.7.7.7.7.7.7.7.7.7.7.7.7.7.7.7.7.7.7.7.7.7.7.7.7.7.7.7.7.7.7.7.7.7.7.7.7.7.7.7.7.7.7.7.7.7.7.7.7.7.7.7.7.7.7.7.7.7.",
"7.7.7.7.7.7.7.7.7.7.7.7.7.7.7.7.7.7.7.7.7.7.7.7.7.7.7.7.7.7.7.7.7.7.7.7.7.7.7.7.7.7.7.7.7.7.7.7.7.7.7.7.7.7.7.7.7.7.7.7.7.7.7.7.",
"7.7.7.7.7.7.7.7.7.7.7.7.7.7.7.7.7.7.7.7.7.7.7.7.7.7.7.7.7.7.7.7.7.7.7.7.7.7.7.7.7.7.7.7.7.7.7.7.7.7.7.7.7.7.7.7.7.7.7.7.7.7.7.7.",
"7.7.7.7.7.7.7.7.7.7.7.7.7.7.7.7.7.7.7.7.7.7.7.7.7.7.7.7.7.7.7.7.7.7.7.7.7.7.7.7.7.7.7.7.7.7.7.7.7.7.7.7.7.7.7.7.7.7.7.7.7.7.7.7.",
"7.7.7.7.7.7.7.7.7.7.7.7.7.7.7.7.7.7.7.7.7.7.7.7.7.7.7.7.7.7.7.7.7.7.7.7.7.7.7.7.7.7.7.7.7.7.7.7.7.7.7.7.7.7.7.7.7.7.7.7.7.7.7.7.",
"7.7.7.7.7.7.7.7.7.7.7.7.7.7.7.7.7.7.7.7.7.7.7.7.7.7.7.7.7.7.7.7.7.7.7.7.7.7.7.7.7.7.7.7.7.7.7.7.7.7.7.7.7.7.7.7.7.7.7.7.7.7.7.7."
};
