/* XPM */
static char *result[] = {
/* columns rows colors chars-per-pixel */
"64 64 17 1 ",
"  c black",
". c #040404",
"X c #1E1E1E",
"o c #3F3013",
"O c gray21",
"+ c #422200",
"@ c #7C5500",
"# c #4D4C4B",
"$ c #7D7B76",
"% c #84482A",
"& c #D97F40",
"* c #C6A900",
"= c #F6A954",
"- c #A29E96",
"; c #BEBBB5",
": c gray91",
"> c None",
/* pixels */
">>>>>>>>>>>>>>>>>>>>>>>>>>>>>>>>>>>>>>>>>>>>>>>>>>>>>>>>>>>>>>>>",
">>>>>>>>>>>>>>>>>>>>>>>>>>>>>>>>>>>>>>>>>>>>>>>>>>>>>>>>>>>>>>>>",
">>>>>>>>>>>>>>>>>>>>>>>>>>>>>>>>>>>>>>>>>>>>>>>>>>>>>>>>>>>>>>>>",
">>>>>>>>>>>>>>>>>>>>>>>>>>>>>       >>>>>>>>>>>>>>>>>>>>>>>>>>>>",
">>>>>>>>>>>>>>>>>>>>>>>>>>>>>       >>>>>>>>>>>>>>>>>>>>>>>>>>>>",
">>>>>>>>>>>>>>>>>>>>>>>>>>>>>       >>>>>>>>>>>>>>>>>>>>>>>>>>>>",
">>>>>>>>>>>>>>>>>>>>>>>>>>   *******   >>>>>>>>>>>>>>>>>>>>>>>>>",
">>>>>>>>>>>>>>>>>>>>>>>>>>   *******   >>>>>>>>>>>>>>>>>>>>>>>>>",
">>>>>>>>>>>>>>>>>>>>>>>>>>   *******   >>>>>>>>>>>>>>>>>>>>>>>>>",
">>>>>>>>>>>>>>>>>>>>>>>   @@@*******@@@    >>>>>>>>>>>>>>>>>>>>>",
">>>>>>>>>>>>>>>>>>>>>>>   @@@*******@@@    >>>>>>>>>>>>>>>>>>>>>",
">>>>>>>>>>>>>>>>>>>>>>>   @@@*******@@@    >>>>>>>>>>>>>>>>>>>>>",
">>>>>>>>>>>>>>>>>>>>>>>   @@@@@@@@@@@@@    >>>>>>>>>>>>>>>>>>>>>",
">>>>>>>>>>>>>>>>>>>>>>>   @@@@@@@@@@@@@    >>>>>>>>>>>>>>>>>>>>>",
">>>>>>>>>>>>>>>>>>>>>>>   @@@@@@@@@@@@@    >>>>>>>>>>>>>>>>>>>>>",
">>>>>>>>>>>>>>>>>>>>>>>   +++@@@@@@@+++    >>>>>>>>>>>>>>>>>>>>>",
">>>>>>>>>>>>>>>>>>>>>>>   +++@@@@@@@+++    >>>>>>>>>>>>>>>>>>>>>",
">>>>>>>>>>>>>>>>>>>>>>>   +++@@@@@@@+++    >>>>>>>>>>>>>>>>>>>>>",
">>>>>>>>>>>>>>>>>>>>   XXXXXX+++++++XXXXXXX  >>>>>>>>>>>>>>>>>>>",
">>>>>>>>>>>>>>>>>>>>   XXXXXX+++++++XXXXXXX  >>>>>>>>>>>>>>>>>>>",
">>>>>>>>>>>>>>>>>>>>   XXXXXX+++++++XXXXXXX  >>>>>>>>>>>>>>>>>>>",
">>>>>>>>>>>>>>>>>>>>   XXXXXX+++++++XXXXXXX  >>>>>>>>>>>>>>>>>>>",
">>>>>>>>>>>>>>>>>   XXXOOO###$$$$$$$###OOOOXX    >>>>>>>>>>>>>>>",
">>>>>>>>>>>>>>>>>   XXXOOO###$$$$$$$###OOOOXX    >>>>>>>>>>>>>>>",
">>>>>>>>>>>>>>>>>   XXXOOO###$$$$$$$###OOOOXX    >>>>>>>>>>>>>>>",
">>>>>>>>>>>>>>   XXXOOO######-------#######OOXXXX   >>>>>>>>>>>>",
">>>>>>>>>>>>>>   XXXOOO######-------#######OOXXXX   >>>>>>>>>>>>",
">>>>>>>>>>>>>>   XXXOOO######-------#######OOXXXX   >>>>>>>>>>>>",
">>>>>>>>>>>>>>   XXXOOO######-------#######OOXXXX   >>>>>>>>>>>>",
">>>>>>>>>>>>>>   $$$$$$OOO###$$$$$$$###OOOO$$$$$$   >>>>>>>>>>>>",
">>>>>>>>>>>>>>   $$$$$$OOO###$$$$$$$###OOOO$$$$$$   >>>>>>>>>>>>",
">>>>>>>>>>>>>>   $$$$$$OOO###$$$$$$$###OOOO$$$$$$   >>>>>>>>>>>>",
">>>>>>>>>>>>>>   ###$$$------;;;;;;;-------$$####   >>>>>>>>>>>>",
">>>>>>>>>>>>>>   ###$$$------;;;;;;;-------$$####   >>>>>>>>>>>>",
">>>>>>>>>>>>>>   XXX------;;;;;;;;;;;;;------XXXX   >>>>>>>>>>>>",
">>>>>>>>>>>>>>   XXX------;;;;;;;;;;;;;------XXXX   >>>>>>>>>>>>",
">>>>>>>>>>>>>>   XXX------;;;;;;;;;;;;;------XXXX   >>>>>>>>>>>>",
">>>>>>>>>>>>>>   XXX------;;;;;;;;;;;;;------XXXX   >>>>>>>>>>>>",
">>>>>>>>>>>>>>>>>   XXXOOOOOO#######OOOOOOOXX    >>>>>>>>>>>>>>>",
">>>>>>>>>>>>>>>>>   XXXOOOOOO#######OOOOOOOXX    >>>>>>>>>>>>>>>",
">>>>>>>>>>>>>>>>>   XXXOOOOOO#######OOOOOOOXX    >>>>>>>>>>>>>>>",
">>>>>>>>>>>>>>>>>   ###:::...$$$$$$$...::::##    >>>>>>>>>>>>>>>",
">>>>>>>>>>>>>>>>>   ###:::...$$$$$$$...::::##    >>>>>>>>>>>>>>>",
">>>>>>>>>>>>>>>>>   ###:::...$$$$$$$...::::##    >>>>>>>>>>>>>>>",
">>>>>>>>>>>>>>>>>...OOO###===#######===####OO....>>>>>>>>>>>>>>>",
">>>>>>>>>>>>>>>>>...OOO###===#######===####OO....>>>>>>>>>>>>>>>",
">>>>>>>>>>>>>>>>>...OOO###===#######===####OO....>>>>>>>>>>>>>>>",
">>>>>>>>>>>>>>>>>...OOO###===#######===####OO....>>>>>>>>>>>>>>>",
">>>>>>>>>>>>>>...$$$$$$OOO%%%%%%%%%%%%%OOOO$$$$$$...>>>>>>>>>>>>",
">>>>>>>>>>>>>>...$$$$$$OOO%%%%%%%%%%%%%OOOO$$$$$$...>>>>>>>>>>>>",
">>>>>>>>>>>>>>...$$$$$$OOO%%%%%%%%%%%%%OOOO$$$$$$...>>>>>>>>>>>>",
">>>>>>>>>>....======...###$$$$$$$$$$$$$####..=======...>>>>>>>>>",
">>>>>>>>>>....======...###$$$$$$$$$$$$$####..=======...>>>>>>>>>",
">>>>>>>>>>....======...###$$$$$$$$$$$$$####..=======...>>>>>>>>>",
">>>>>>>>>>....===&&&...####################..&&&&===...>>>>>>>>>",
">>>>>>>>>>....===&&&...####################..&&&&===...>>>>>>>>>",
">>>>>>>>>>....===&&&...####################..&&&&===...>>>>>>>>>",
">>>>>>>>>>>>>>.........OOO#############OOOO.........>>>>>>>>>>>>",
">>>>>>>>>>>>>>.........OOO#############OOOO.........>>>>>>>>>>>>",
">>>>>>>>>>>>>>.........OOO#############OOOO.........>>>>>>>>>>>>",
">>>>>>>>>>>>>>>>>>>>...oooooo.......ooooooo..>>>>>>>>>>>>>>>>>>>",
">>>>>>>>>>>>>>>>>>>>...oooooo.......ooooooo..>>>>>>>>>>>>>>>>>>>",
">>>>>>>>>>>>>>>>>>>>...oooooo.......ooooooo..>>>>>>>>>>>>>>>>>>>",
">>>>>>>>>>>>>>>>>>>>...oooooo.......ooooooo..>>>>>>>>>>>>>>>>>>>"
};
