/* XPM */
static char *result[] = {
/* columns rows colors chars-per-pixel */
"64 64 11 1 ",
"  c gray9",
". c #2E2415",
"X c #213F2F",
"o c #4F3712",
"O c #346B3D",
"+ c #644F1B",
"@ c #7B642E",
"# c #598C46",
"$ c #77A947",
"% c #93C147",
"& c None",
/* pixels */
"&&&&&&&&&&&&&&&&&&&&&&&&&&&&        &&&&&&&&&&&&&&&&&&&&&&&&&&&&",
"&&&&&&&&&&&&&&&&&&&&&&&&&&&&        &&&&&&&&&&&&&&&&&&&&&&&&&&&&",
"&&&&&&&&&&&&&&&&&&&&&&&&&&&&        &&&&&&&&&&&&&&&&&&&&&&&&&&&&",
"&&&&&&&&&&&&&&&&&&&&&&&&&&&&        &&&&&&&&&&&&&&&&&&&&&&&&&&&&",
"&&&&&&&&&&&&&&&&&&&&&&&&    %%%%%%%%    &&&&&&&&&&&&&&&&&&&&&&&&",
"&&&&&&&&&&&&&&&&&&&&&&&&    %%%%%%%%    &&&&&&&&&&&&&&&&&&&&&&&&",
"&&&&&&&&&&&&&&&&&&&&&&&&    %%%%%%%%    &&&&&&&&&&&&&&&&&&&&&&&&",
"&&&&&&&&&&&&&&&&&&&&&&&&    %%%%%%%%    &&&&&&&&&&&&&&&&&&&&&&&&",
"&&&&&&&&&&&&&&&&&&&&    ####%%%%%%%%####    &&&&&&&&&&&&&&&&&&&&",
"&&&&&&&&&&&&&&&&&&&&    ####%%%%%%%%####    &&&&&&&&&&&&&&&&&&&&",
"&&&&&&&&&&&&&&&&&&&&    ####%%%%%%%%####    &&&&&&&&&&&&&&&&&&&&",
"&&&&&&&&&&&&&&&&&&&&    ####%%%%%%%%####    &&&&&&&&&&&&&&&&&&&&",
"&&&&&&&&&&&&&&&&&&&&    $$$$$$$$$$$$$$$$    &&&&&&&&&&&&&&&&&&&&",
"&&&&&&&&&&&&&&&&&&&&    $$$$$$$$$$$$$$$$    &&&&&&&&&&&&&&&&&&&&",
"&&&&&&&&&&&&&&&&&&&&    $$$$$$$$$$$$$$$$    &&&&&&&&&&&&&&&&&&&&",
"&&&&&&&&&&&&&&&&&&&&    $$$$$$$$$$$$$$$$    &&&&&&&&&&&&&&&&&&&&",
"&&&&&&&&&&&&&&&&    OOOO####$$$$$$$$####OOOO    &&&&&&&&&&&&&&&&",
"&&&&&&&&&&&&&&&&    OOOO####$$$$$$$$####OOOO    &&&&&&&&&&&&&&&&",
"&&&&&&&&&&&&&&&&    OOOO####$$$$$$$$####OOOO    &&&&&&&&&&&&&&&&",
"&&&&&&&&&&&&&&&&    OOOO####$$$$$$$$####OOOO    &&&&&&&&&&&&&&&&",
"&&&&&&&&&&&&    XXXX########################XXXX    &&&&&&&&&&&&",
"&&&&&&&&&&&&    XXXX########################XXXX    &&&&&&&&&&&&",
"&&&&&&&&&&&&    XXXX########################XXXX    &&&&&&&&&&&&",
"&&&&&&&&&&&&    XXXX########################XXXX    &&&&&&&&&&&&",
"&&&&&&&&&&&&    OOOOOOOO################OOOOOOOO    &&&&&&&&&&&&",
"&&&&&&&&&&&&    OOOOOOOO################OOOOOOOO    &&&&&&&&&&&&",
"&&&&&&&&&&&&    OOOOOOOO################OOOOOOOO    &&&&&&&&&&&&",
"&&&&&&&&&&&&    OOOOOOOO################OOOOOOOO    &&&&&&&&&&&&",
"&&&&&&&&&&&&    OOOOOOOOOOOOOOOOOOOOOOOOOOOOOOOO    &&&&&&&&&&&&",
"&&&&&&&&&&&&    OOOOOOOOOOOOOOOOOOOOOOOOOOOOOOOO    &&&&&&&&&&&&",
"&&&&&&&&&&&&    OOOOOOOOOOOOOOOOOOOOOOOOOOOOOOOO    &&&&&&&&&&&&",
"&&&&&&&&&&&&    OOOOOOOOOOOOOOOOOOOOOOOOOOOOOOOO    &&&&&&&&&&&&",
"&&&&&&&&&&&&    XXXXOOOOOOOOOOOOOOOOOOOOOOOOXXXX    &&&&&&&&&&&&",
"&&&&&&&&&&&&    XXXXOOOOOOOOOOOOOOOOOOOOOOOOXXXX    &&&&&&&&&&&&",
"&&&&&&&&&&&&    XXXXOOOOOOOOOOOOOOOOOOOOOOOOXXXX    &&&&&&&&&&&&",
"&&&&&&&&&&&&    XXXXOOOOOOOOOOOOOOOOOOOOOOOOXXXX    &&&&&&&&&&&&",
"&&&&&&&&&&&&    XXXXXXXXXXXXXXXXXXXXXXXXXXXXXXXX    &&&&&&&&&&&&",
"&&&&&&&&&&&&    XXXXXXXXXXXXXXXXXXXXXXXXXXXXXXXX    &&&&&&&&&&&&",
"&&&&&&&&&&&&    XXXXXXXXXXXXXXXXXXXXXXXXXXXXXXXX    &&&&&&&&&&&&",
"&&&&&&&&&&&&    XXXXXXXXXXXXXXXXXXXXXXXXXXXXXXXX    &&&&&&&&&&&&",
"&&&&&&&&&&&&&&&&    XXXXXXXXXXXXXXXXXXXXXXXX    &&&&&&&&&&&&&&&&",
"&&&&&&&&&&&&&&&&    XXXXXXXXXXXXXXXXXXXXXXXX    &&&&&&&&&&&&&&&&",
"&&&&&&&&&&&&&&&&    XXXXXXXXXXXXXXXXXXXXXXXX    &&&&&&&&&&&&&&&&",
"&&&&&&&&&&&&&&&&    XXXXXXXXXXXXXXXXXXXXXXXX    &&&&&&&&&&&&&&&&",
"&&&&&&&&&&&&&&&&&&&&    ....oooooooo....    &&&&&&&&&&&&&&&&&&&&",
"&&&&&&&&&&&&&&&&&&&&    ....oooooooo....    &&&&&&&&&&&&&&&&&&&&",
"&&&&&&&&&&&&&&&&&&&&    ....oooooooo....    &&&&&&&&&&&&&&&&&&&&",
"&&&&&&&&&&&&&&&&&&&&    ....oooooooo....    &&&&&&&&&&&&&&&&&&&&",
"&&&&&&&&&&&&&&&&&&&&....oooo++++++++oooo....&&&&&&&&&&&&&&&&&&&&",
"&&&&&&&&&&&&&&&&&&&&....oooo++++++++oooo....&&&&&&&&&&&&&&&&&&&&",
"&&&&&&&&&&&&&&&&&&&&....oooo++++++++oooo....&&&&&&&&&&&&&&&&&&&&",
"&&&&&&&&&&&&&&&&&&&&....oooo++++++++oooo....&&&&&&&&&&&&&&&&&&&&",
"&&&&&&&&&&&&&&&&&&&&&&&&....@@@@@@@@....&&&&&&&&&&&&&&&&&&&&&&&&",
"&&&&&&&&&&&&&&&&&&&&&&&&....@@@@@@@@....&&&&&&&&&&&&&&&&&&&&&&&&",
"&&&&&&&&&&&&&&&&&&&&&&&&....@@@@@@@@....&&&&&&&&&&&&&&&&&&&&&&&&",
"&&&&&&&&&&&&&&&&&&&&&&&&....@@@@@@@@....&&&&&&&&&&&&&&&&&&&&&&&&",
"&&&&&&&&&&&&&&&&&&&&&&&&&&&&&&&&&&&&&&&&&&&&&&&&&&&&&&&&&&&&&&&&",
"&&&&&&&&&&&&&&&&&&&&&&&&&&&&&&&&&&&&&&&&&&&&&&&&&&&&&&&&&&&&&&&&",
"&&&&&&&&&&&&&&&&&&&&&&&&&&&&&&&&&&&&&&&&&&&&&&&&&&&&&&&&&&&&&&&&",
"&&&&&&&&&&&&&&&&&&&&&&&&&&&&&&&&&&&&&&&&&&&&&&&&&&&&&&&&&&&&&&&&",
"&&&&&&&&&&&&&&&&&&&&&&&&&&&&&&&&&&&&&&&&&&&&&&&&&&&&&&&&&&&&&&&&",
"&&&&&&&&&&&&&&&&&&&&&&&&&&&&&&&&&&&&&&&&&&&&&&&&&&&&&&&&&&&&&&&&",
"&&&&&&&&&&&&&&&&&&&&&&&&&&&&&&&&&&&&&&&&&&&&&&&&&&&&&&&&&&&&&&&&",
"&&&&&&&&&&&&&&&&&&&&&&&&&&&&&&&&&&&&&&&&&&&&&&&&&&&&&&&&&&&&&&&&"
};
